<svg xmlns="http://www.w3.org/2000/svg" viewBox="0 0 880.12 907.13"><defs><style>.cls-1{fill:#707272;}.cls-2{fill:#909493;}.cls-3{fill:#a0a5a5;}.cls-4{fill:#adb3b3;}.cls-5{fill:#bebfb6;}.cls-6{fill:#818483;}.cls-7{fill:#a0a3a2;}.cls-8{fill:#fff;opacity:0.35;}</style></defs><g id="Layer_2" data-name="Layer 2"><g id="Layer_1-2" data-name="Layer 1"><path class="cls-1" d="M803.77,907.13l76.35-70s-21.2-190-17-238.18,17-174.9,17-174.9V50.67L794.48,0S531.89,109.91,491.59,124.8s-289,156.93-289,156.93L8.48,424.06,0,488.9c21.33,44,191,143.3,242.8,173.1,57.42,33,155,66.68,280.06,128.49C664.5,860.47,803.77,907.13,803.77,907.13Z"/><path class="cls-2" d="M787.69,883.38l71.95-66s-20-179.1-16-224.45,16-164.83,16-164.83V76.26L778.93,28.51S531.47,132.08,493.49,146.12,221.17,294,221.17,294L38.22,428.14l-8,61.1c20.1,41.45,180,135,228.82,163.13,54.1,31.13,146,62.84,263.91,121.09C656.44,839.41,787.69,883.38,787.69,883.38Z"/><path class="cls-3" d="M30.22,489.24c20.1,41.45,180,135,228.82,163.13,54.1,31.13,146,62.84,263.91,121.09,133.49,65.95,264.74,109.92,264.74,109.92l71.95-66s-20-179.1-16-224.45,16-164.83,16-164.83V76.26l-.42-.25c-20.05,12.39-40.39,37.62-55.5,51.47-23.06,21.16-45.64,42.85-67.49,65.26-24.72,25.36-48.56,51.68-75.32,74.88-33.31,28.88-70.74,52.57-108,76.14C465,399.36,375.79,455.56,276.6,486.93,254.25,494,231.21,499.81,207.76,500c-53.56.45-106.06-28.32-158.7-18.42a79.87,79.87,0,0,0-18.62,6Z"/><path class="cls-4" d="M712.73,789.91,769,738.38S753.33,598.44,756.46,563,769,434.22,769,434.22V159.29L705.89,122s-193.35,80.93-223,91.89S270.1,329.42,270.1,329.42L127.16,434.22,120.91,482c15.71,32.39,140.65,105.52,178.78,127.45C342,633.74,413.79,658.52,505.89,704,610.18,755.55,712.73,789.91,712.73,789.91Z"/><path class="cls-5" d="M755,307v104.8s-9.37,93.35-12.49,128.78S755,715.94,755,715.94l-56.22,51.53S596.19,733.11,491.9,681.58C399.8,636.07,328,611.3,285.7,587c-32.18-18.51-126.18-73.48-164.18-109.65l-.61,4.64c15.71,32.39,140.65,105.52,178.78,127.45C342,633.74,413.79,658.52,505.89,704c104.29,51.53,206.84,85.89,206.84,85.89L769,738.38S753.33,598.44,756.46,563,769,434.22,769,434.22V159.29L755,151Z"/><path class="cls-4" d="M838.6,824.24c3.43-3.14,7.07-6.7,7.55-11.32.65-6.22-4.66-11.37-9.87-14.82-17.3-11.48-38.67-16.38-54.47-29.85-5.46-4.65-11.35-10.67-18.44-9.56-4.11.64-7.41,3.62-10.45,6.48-8.44,7.93-17.63,17.87-15.82,29.32,1.08,6.84,5.94,12.36,10.13,17.87a117.52,117.52,0,0,1,15.29,26.78c2.59,6.35,4.65,13,8.18,18.87,10.39,17.33,20.07,10.09,31.88-.74Z"/><path class="cls-4" d="M844.65,481.29c1.29-5.51,2.69-11.17,1.92-16.78s-4.26-11.26-9.72-12.75c-2.91-.8-6-.36-9,.33A58.84,58.84,0,0,0,794,474.56c-11,15.1-14.05,34.37-16.8,52.85l-6.75,45.32c-1,6.76-2,13.72-.41,20.37s6.45,13,13.17,14.22c4.2.78,8.47-.48,12.54-1.77,8.25-2.6,28.95-5.62,34.19-12.74,5-6.73,2-25.36,2.66-33.59A512.93,512.93,0,0,1,844.65,481.29Z"/><path class="cls-4" d="M847.65,135.88c-.36-3.45-.9-7-2.76-9.94-2.88-4.53-8.6-6.75-13.95-6.36s-10.33,3.06-14.45,6.5c-11.72,9.8-16.92,25.16-21.59,39.71s-9.29,29-10.61,44.14c-1.28,14.77.66,29.6,1.6,44.4,2.65,42-2.86,84.23.6,126.17.49,5.94,1.53,12.56,6.28,16.15a6.84,6.84,0,0,0,4.9,1.57c3.84-.49,5.63-5,6.41-8.74,3.92-19.09,1.78-38.82,1.55-58.3a294.91,294.91,0,0,1,8.71-74.67c2.76-11.09,6.21-22.13,12-32,4.34-7.46,9.92-14.16,14.07-21.73C849.9,185.36,849.68,155.12,847.65,135.88Z"/><path class="cls-4" d="M244.34,598.45c-1-8.61-9.89-13.66-17.59-17.64a336.21,336.21,0,0,1-41.91-25.73,221.2,221.2,0,0,1-27.31-22.78c-5.17-5.16-10-10.69-15.73-15.26-17.53-14-41-17.54-63.25-20.54-6-.81-13.43-1-16.63,4.15-3.35,5.38.7,12.38,5.44,16.6,11.55,10.29,27.16,14.37,41.32,20.62,33,14.57,58.77,41.36,85.19,66,7.54,7,21.18,19.77,32.77,17C234.85,618.8,245.36,607.12,244.34,598.45Z"/><path class="cls-4" d="M739.72,845.12l-20.47-24c-4.76-5.59-9.56-11.2-15.22-15.89-16.23-13.45-37.78-18-57.89-24.27-43.72-13.71-83.48-37.44-125.11-56.56-3.63-1.67-7.44-3.34-11.43-3.17s-8.17,2.78-8.75,6.73c-.44,3,1.22,5.88,3,8.31,8.28,11.09,20.66,18.26,32.81,24.9,44,24.05,89.48,45.17,134.94,66.29l48.07,22.31c4.2,2,17,10.73,21.63,8.74C747.54,855.83,742.92,848.87,739.72,845.12Z"/><path class="cls-6" d="M822.24,77.7c.68-1.11,1.37-2.39,1-3.65a4.87,4.87,0,0,0-2.13-2.43L793.6,51.78c-3.75-2.7-7.61-5.45-12.08-6.61-10.82-2.79-21.82,4.59-28.58,13.5s-11,19.59-18.42,28c-4.59,5.18-10.61,10-11.58,16.81-.92,6.51,3.18,12.7,8,17.22C769.4,157,802.81,109.5,822.24,77.7Z"/><path class="cls-6" d="M253.31,332.12c20.35-11.59,42.24-23.21,54.22-43.32-17-5.61-34.68,4.85-49.67,14.63A1763.4,1763.4,0,0,1,70.47,410c-4,2-8.6,4.82-8.56,9.27.05,6.11,8.18,8.09,14.28,8,38.75-.58,53.85-9.33,83.27-32.28A781.26,781.26,0,0,1,253.31,332.12Z"/><path class="cls-6" d="M632.12,136.76c-36.34,13.57-74.4,23.35-108.16,42.45-21.36,12.08-41.06,27.91-64.6,34.85-1.14-4.75,3-9,6.89-12,55-42.89,125.26-61.24,183.68-99.31,10.91-7.11,21.41-14.91,32.94-21,6.73-3.54,26.56-15.13,33.76-9.62,11.11,8.51-7.19,21.19-13,26C682.62,115.59,657.46,127.3,632.12,136.76Z"/><path class="cls-1" d="M433.22,231.46c9.35,6.09,9.38,19.69,15.2,29.22,4.69,7.67,13,12.34,21.15,16.1A198.56,198.56,0,0,0,533.41,294c-10,10.71-20.21,21.85-24.95,35.68s-2.45,31.21,9.27,39.95c-8.23,4.12-16.4-7-16.23-16.17s4-18.79.48-27.29-13.12-12.55-22.16-13.43-18.18.67-27.21-.26c-2.95-.3-6.23-1.1-7.77-3.64-2.23-3.7.55-8.26,1.39-12.5,2.42-12.23-11.6-21-23.66-24.14a138.21,138.21,0,0,0-34.28-4.47c-6.07,0-13.05,0-16.94-4.68-5-6-1.56-15.72-5.72-22.31-1.91-3-5.17-4.94-7.46-7.69-7.24-8.66-2.69-22,4-31.1,9.8-13.41,40.19-38.3,54.67-18.28,7.56,10.46-1.1,18.61-.86,28.51C416.33,227.23,421.33,223.72,433.22,231.46Z"/><path class="cls-1" d="M377,667.87c.16-7.12-2.2-14.16-1.63-21.25,1.2-14.78,14.69-25.65,28.48-31.11s28.91-7.43,42-14.33q-4.59-12.87-9.17-25.72a21.8,21.8,0,0,1-1.62-6.79c-.06-3.37,1.43-6.55,2.88-9.58l19.88-41.39-33.33,24.06c-5.54,4-11.28,8.24-14.44,14.31s-2.8,14.55,2.64,18.69a98.69,98.69,0,0,1-44,11.07c-7.15.1-15.17-.29-20.39,4.58-10.47,9.74.92,27.31-2.08,41.29l-39.67,17.39c-8.38,3.67-18.07,9.18-18.34,18.32-.24,7.93,7,13.94,13.92,17.76C324.58,697.55,376.06,708.65,377,667.87Z"/><path class="cls-1" d="M851.51,337.72c-6.89,2-14.22,0-21.25-1.43s-15-2.06-20.78,2.2c-3.7,2.72-6.23,7.27-10.64,8.54-2.47.72-5.12.25-7.66-.19-11.77-2-23.86-3.21-35.64-1.24a68.62,68.62,0,0,0-49.91,37.78c-3.35,7.11-6.6,15.87-14.25,17.67-7.3,1.72-14.06-4.11-19-9.75a185.56,185.56,0,0,1-31.52-50.8A70.58,70.58,0,0,0,669,366.65c2.41,1.23,5.18,2.34,7.75,1.51,3.35-1.08,4.86-4.86,5.91-8.21a417.82,417.82,0,0,0,11.17-43.78c1.44,4.39,8.15,2,11.36-1.34,9.34-9.62,18.63-22.14,32-22.28,6.14-.07,12.1,2.65,18.23,2.34,13.67-.69,21.72-15,29.23-26.41S807,246,818.28,253.79c3.18,2.21,5.75,5.83,9.6,6.21,3.51.34,6.58-2.18,9.19-4.54l25.79-23.31c1.81-1.64,4.41-3.36,6.46-2.05a5.56,5.56,0,0,1,1.92,3.25A113,113,0,0,1,873,291.6C870.43,302.54,863.66,334.13,851.51,337.72Z"/><path class="cls-7" d="M286,479.87c-.58-8-4.34-15.53-4.95-23.54-1.64-21.65,19.78-41.07,15.26-62.31-2.82-13.22-16-22.77-29.52-23.5s-26.66,6.24-35.64,16.35S217,409.93,213.79,423.08A141.88,141.88,0,0,0,210,463.21c1,20.24,11.71,44.31,33.65,49.29C264.16,517.15,287.57,501.9,286,479.87Z"/><path class="cls-7" d="M377.32,530c4.38-8.36,6.17-18.94,1.35-27.06-4.61-7.79-14.54-11.44-23.51-10.19s-16.93,6.69-23,13.46c-5.27,5.93-9.53,13.14-16.48,17-4.37,2.42-9.39,3.26-14.25,4.38-7.17,1.67-14.54,4.25-19.39,9.79s-6.14,14.76-1,20.07c3,3.12,7.43,4.3,11.67,5.06C322.2,567.8,362.28,558.73,377.32,530Z"/><path class="cls-7" d="M180.29,469.22c6.67.45,11.91-5.44,15.61-11,4.35-6.56,8.31-14.21,6.95-22-2.08-11.92-17.32-18.43-28.47-13.72s-17.28,17.66-16.59,29.74c.17,3,.87,6.31,3.26,8.15,4.91,3.8,12.88-1.13,18,2.35Z"/><path class="cls-7" d="M716.32,207.78c1.14-7.27.68-15.21-3.52-21.26-4.3-6.2-11.95-9.43-19.47-10s-15,1.34-22.19,3.58a205.14,205.14,0,0,0-37.71,16.08c-10.33,5.69-20.51,12.63-26.43,22.82s-6.42,24.34,1.62,33c6.53,7,16.84,8.84,26.39,9.07C668.41,261.87,710.59,244.38,716.32,207.78Z"/><path class="cls-7" d="M545,278.34a57.47,57.47,0,0,0,32.25-38c.61-2.41,1-5.22-.54-7.19-1.16-1.49-3.1-2.09-4.94-2.54a97.16,97.16,0,0,0-55.11,2.55c-7,2.45-14.28,6.25-17.21,13.07-4.07,9.47,2.46,20.8,11.55,25.65s19.89,4.9,30.2,4.84Z"/><path class="cls-7" d="M660.75,709.87c2.56-3.58,4.49-8.13,3.15-12.32-1.2-3.77-4.72-6.27-8.16-8.22-12.72-7.19-27.24-10.53-40.48-16.69a103.7,103.7,0,0,1-27.91-19.09c-9.76-9.35-20.43-21.67-33.74-19.34-9.13,1.59-15.85,10.49-16.79,19.72s3,18.41,8.8,25.64,13.34,12.82,20.8,18.33L587,713.08c5.19,3.83,10.47,7.71,16.54,9.89C620.79,729.19,649.51,725.63,660.75,709.87Z"/><path class="cls-7" d="M740.2,698.82c3.24-16.82-4.47-34.88-18-45.44-5.67-4.44-12.51-7.74-19.72-7.9s-14.72,3.28-18.17,9.6c-8.65,15.84,11.56,35.13,5.93,52.28-1.68,5.11-5.5,9.26-7.54,14.24s-1.46,11.94,3.44,14.16C706.17,744.82,736.81,716.45,740.2,698.82Z"/><path class="cls-7" d="M633,654.07c17.37,1.2,33.92-14.84,33.26-32.24a16.92,16.92,0,0,0-2.71-9.27c-2.47-3.43-6.57-5.22-10.55-6.64-7.07-2.54-14.53-4.45-22-4s-15.11,3.55-19.71,9.49c-5.78,7.47-5.77,18.51-1,26.67s13.55,13.49,22.82,15.28Z"/><path class="cls-8" d="M714.65,681.55c12.11-24.75,10.45-53.75,7.92-81.19-2.86-31-6.57-62.25-17-91.58-4.06-11.4-12.88-24.54-24.73-22.06-8.45,1.76-13.06,10.76-16,18.89-10.32,28.8-14.36,59.71-12.94,90.27.55,12,1.94,24.17-.11,36s-8.23,23.76-19,29.21c-14.19,7.21-33.35,7.1-29.54,28.55,2.33,13.09,16.29,27.56,28.78,31.56C660.71,730.41,702.3,706.79,714.65,681.55Z"/><path class="cls-8" d="M679.59,463c9.18.18,18.73.3,27-3.58s15-13,12.82-22c-2.55-10.63-15.17-15.13-26.05-16.2-8.8-.87-18.06-.57-25.88,3.53s-13.74,12.85-12.22,21.55c2,11.36,15.8,17.53,27.06,15Z"/><path class="cls-8" d="M324.81,397.4c23.16-7.4,48.29-13.7,64.67-31.66,4.74-5.19,8.71-11.74,8.36-18.77-.61-12.52-15-20.56-27.49-19.25s-23.18,9-33.47,16.17a670.62,670.62,0,0,1-144.44,76.35c-16.95,6.46-45.15,16.93-43.08,40,2.16,24.11,26.12,16.21,40.21,7.64C234.16,440.68,274.35,413.53,324.81,397.4Z"/></g></g></svg>