<svg xmlns="http://www.w3.org/2000/svg" viewBox="0 0 3080.01 2972.48"><defs><style>.cls-1{fill:#a34d4c;}.cls-2{fill:#c57171;}.cls-3{fill:#b45e5d;}.cls-4{fill:#bd6969;}.cls-5{fill:#cb7677;}.cls-6{fill:#cf7773;}.cls-7{fill:#b35d5c;}.cls-8{fill:#bc6868;}.cls-9{fill:#bd6766;}.cls-10{fill:#ab5554;}</style></defs><g id="Layer_2" data-name="Layer 2"><g id="Layer_1-2" data-name="Layer 1"><path class="cls-1" d="M3080,1542.06v50c-.18,3.24-.38,6.48-.55,9.71q-.63,12.21-1.23,24.41c-1.35,30.07-5.9,59.52-15.34,88.24-11.11,33.84-19.93,68.51-32.4,101.82-58.72,156.85-118.34,313.36-177.66,470-20.51,54.16-39.18,109.11-68.26,159.61-2.32,4-4,8.7-7.21,11.89-20.17,20.27-38.87,41.92-62.23,59.08Q2496.8,2677.24,2279,2838.43c-44.22,32.6-87.69,66.21-136.08,92.9a202.74,202.74,0,0,1-81.48,24.73c-26.85,2.35-53.87,3.09-80.84,3.68q-108.93,2.36-217.87,4c-54,.89-108,1.43-161.93,2.28q-113.43,1.79-226.87,3.8L1232,2972.13a59.13,59.13,0,0,0-5.92-.52q-36.86.39-73.71.87l-66.68-.12-17.76-.21c-5.2-.82-10.4-1.7-15.61-2.44-21.87-3.1-43-9.19-63.52-17C868,2906.48,754.65,2845.23,645.16,2776.89c-86.64-54.09-168.82-114.33-241-187.22-17.8-18-36.11-35.55-52.75-54.57-19.08-21.8-36.65-44.92-54.68-67.62a192.26,192.26,0,0,1-14.32-20.41q-31.37-52.28-62.29-104.8c-2.71-4.58-5.33-9.25-7.58-14.06a2363.88,2363.88,0,0,1-103.79-261.65c-32-97.4-63.51-194.93-84-295.66-7.57-37.12-13.92-74.37-18.42-111.92C3.48,1635.56,3,1611.87,1.4,1588.3c.13-4.27.48-8.55.36-12.82C1.25,1558.34.6,1541.2,0,1524.07a14.7,14.7,0,0,0,.05-14q.53-10.17,1.06-20.35,1.39-20.82,2.81-41.65l.17-4c1.29-41.26,7.11-82.07,12.07-123,3.57-29.42,6.81-58.89,11-88.21,6.5-45.07,13.72-90,20.62-135A1064.53,1064.53,0,0,1,84.16,940.42,610.85,610.85,0,0,1,130.08,831c28.24-51.87,61.95-100.32,98-147.08q58.93-76.44,123.75-148c52.75-58.33,106.2-116,159.05-174.27,30-33.08,60.76-65.13,95-94.16,41.57-35.27,85.22-66.92,132.18-94.61C789.56,142.53,842.77,116,898.62,94.84c60.69-23,120.92-47.31,183.84-64C1137.54,16.27,1192.51,1.47,1250,0l62,0,12,.05c22.28,1.18,44.56,2.44,66.85,3.52,36.61,1.77,73.21,3.6,109.83,5.05,20.63.81,41.33.4,62,1.48,37.64,2,74.82,7.86,111.77,15,63.95,12.44,127.8,25.34,191.73,37.88,13.94,2.73,27.94,5.47,42,7,42.38,4.44,84.83,8.22,127.25,12.35q25.84,2.52,51.64,5.5c10.08,1.17,20.08,3,30.16,4.15,11.84,1.35,23.79,1.8,35.55,3.52,17.7,2.59,35.52,5,52.86,9.18,28.11,6.84,56.42,13.53,83.67,23.07,84.94,29.72,167.11,66.24,249,103.48,19.46,8.85,36.47,20.75,52.13,34.7,30.11,26.84,58.63,55.36,86.06,85,72.11,77.82,139.56,159.56,203.34,244.26,53.32,70.82,104.7,143.07,143.09,223.54,2.43,5.11,5,10.18,7.82,15.08a186.28,186.28,0,0,1,21.56,55.6c1.7,8.13,4.73,16.07,5.61,24.26,1.31,12.23,1.34,24.61,1.76,36.92,1.05,31.31,1.92,62.61,3,93.91,1.57,44,3.39,87.88,5,131.82,1.12,31.3,1.87,62.61,3,93.91,1.59,44.28,3.47,88.54,5,132.82,1,29.63,1.77,59.28,2.63,88.92l-.13,22Zm-122.09-494c0-3.67.23-7.34.09-11-1.22-30.9-2.92-61.79-3.58-92.7a156.3,156.3,0,0,0-7.8-46c-11.64-35.38-29.05-67.95-47.82-99.81-31.82-54-67.43-105.5-104.89-155.71-45.4-60.84-92.66-120.19-143-177.06-20.29-22.91-40.27-46.12-61.14-68.49-17.49-18.75-36-36.52-54.19-54.63-8.14-8.11-9.85-8.07-19.49-1.21-19.43,13.81-35.11,31.5-50.93,49.06-16,17.79-31.54,36.08-48.21,53.26a156.4,156.4,0,0,1-56.22,37.22c-9,3.48-17.85,7.3-26.77,11-22.1,5.69-43.29,13.58-61.64,27.46-15.18,11.49-25.85,26.49-27.69,45.76a180.16,180.16,0,0,0,.64,38.84c2.3,18.81,6.71,37.35,9.53,56.11,3.53,23.44-.49,45.38-16.7,63.55-8.62,9.66-18.4,18.28-27.71,27.31q-31.92,31-63.89,61.88-30.17,29.19-60.33,58.38-50.85,49.5-101.61,99.09c-13.61,13.24-27.41,26.28-41.17,39.36-1,1-2.5,1.56-5.16,3.17,1-4.12,1.37-6.67,2.17-9.1,15.47-47.16,30.39-94.51,46.64-141.4a907,907,0,0,1,69.75-152.5c24.62-43.17,38-89.3,37-139.24-.2-9.64-1.11-19.26-1.67-28.89q-2.41-40.86-4.81-81.72c.16-11.56.43-23.12.44-34.69,0-13.87.2-27.71,4.15-41.18,4.25-11.87,7.41-24.27,12.94-35.51,22.21-45.12,48.79-87.61,80.83-126.43,8.14-9.85,18.78-17.64,28.27-26.37l11.25-6.25L2214,186.18c-23.79-6-47.36-13.22-71.43-17.79-35.16-6.68-70.59-12.1-106.38-14.79-25.44-1.92-50.8-4.87-76.2-7.35l-4-.08c-13.88-1.34-27.77-2.57-41.64-4.06-21.46-2.31-43.08-3.73-64.29-7.44C1815.39,128.59,1781,121,1746.44,114c-53.42-10.86-106.78-22.1-160.9-29.07-15.14-2-30.37-3.13-45.56-4.67l-44-.08-46.84-2.1c-16.61-.75-33.22-1.46-49.82-2.27-11.95-.58-23.89-1.42-35.85-2-29.22-1.3-58.45-2.92-87.69-3.54-15.26-.32-30.55,1.19-45.83,1.88l-4,.06c-15.84,2-31.8,3.3-47.49,6.09-15.39,2.74-30.56,6.78-45.75,10.58-50.14,12.53-99.53,27.61-148.3,44.68a1398,1398,0,0,0-148.57,61.6,1027.49,1027.49,0,0,0-103,57.31c-42.56,27.05-83.4,56.44-118.73,92.58-30.49,31.17-59.69,63.61-89.43,95.51Q512.5,453.74,500.37,467,461.68,509.45,423.08,552q-27.81,30.74-55.24,61.8c-5,5.69-9.32,12-13.95,18.06-1.48,1.87-2.95,3.75-4.43,5.63l4.58,2a38.22,38.22,0,0,1,21.7,6.52c7.12,4.83,14.47,9.65,20.53,15.68,18.41,18.28,36.41,37,54.26,55.83,15.57,16.41,30.69,33.23,46.07,49.81,8.35,9,16.85,17.88,25.28,26.81,4.68,6,9,12.24,14.1,17.84,16.52,18.2,32.51,36.95,51.95,52.25,6,5.24,11.71,10.79,18,15.68,25.92,20.28,54.47,35.54,86.23,44.57,21,6,36,18.88,45.64,38.64,5.51,11.32,12.3,22,18.52,33l.32,5.66c-10.85,18.81-21.76,37.59-32.48,56.49-1.25,2.2-1.44,5-2.12,7.54-2.88-.68-5.85-1.11-8.64-2.07q-27.33-9.43-54.58-19c-17.23-6.1-34.5-12.08-51.58-18.57a240,240,0,0,1-70.28-41c-8.61-7.28-16.67-15.2-25-22.83-10.51-9.59-20.63-19.65-31.64-28.63-12.06-9.83-25.3-18-40.14-23.27-12.63-5.14-25.24-10.34-37.9-15.41-35.32-14.16-72.33-20.48-110.07-22.66-23.25-1.34-46.57-1.33-69.85-2.21-12.21-.46-24.39-1.52-37.63-2.38-.45.77-1.74,2.69-2.74,4.74a650,650,0,0,0-47.91,134.35c-7.8,33.37-14.36,67.06-20.43,100.8-5.36,29.79-9.43,59.83-13.79,89.79-4.55,31.29-9,62.58-13,93.93q-5.88,46-10.62,92.2c-2,19.84-3.2,39.78-4.38,59.69-1.43,24.24-3.51,48.5-3.42,72.74.11,29.25,1.73,58.52,3.61,87.72,1.41,21.89,3.51,43.8,6.62,65.51,9.15,63.73,23.57,126.39,41.65,188.14,13.95,47.62,29.21,94.87,44,142.24,2.18,7,5.13,13.67,7.73,20.5.85,2.88,1.6,5.78,2.55,8.63,21,62.56,42.85,124.82,70.29,184.88,15.63,34.2,32.23,68,50,101.18a702.51,702.51,0,0,0,71.81,108.06c15.83,19.7,31.84,39.37,49.21,57.69,20.39,21.48,41.67,42.21,63.78,61.91,26.32,23.44,53.3,46.24,81.13,67.86,42.64,33.12,87.65,62.92,133.51,91.45,48.12,29.94,97.3,58,148,83.28q51.39,25.63,104,48.88c24.33,10.79,49.24,20.42,74.39,29.16a228.47,228.47,0,0,0,79.47,13c45.61-.81,91.21,1.06,136.86-1.59,41.52-2.4,83.2.45,124.84-2,39.86-2.37,79.86.36,119.85-1.94,42.19-2.43,84.53.44,126.84-2.07,39.53-2.35,79.19,0,118.85-1.86,50.53-2.41,101.2-2.14,151.81-2.37,45.28-.2,90.58.23,135.68-4.31a234.69,234.69,0,0,0,43-8.36c28.73-8.53,54.1-24.1,78.4-41.23,22.86-16.11,45.17-33,67.69-49.61q76-56,152-112c55.49-40.92,111.12-81.65,166.36-122.9,45.88-34.27,93.44-66.29,137.26-103.31a192.81,192.81,0,0,0,43.5-53c17.62-31.16,28.65-65.21,41.27-98.54,2.26-6,.93-8.21-5.28-8.64-10.37-.73-19.17-5.07-27.66-10.53-23.92-15.37-45.23-34.06-65.86-53.38-23.5-22-50-37-82-42.72-21.2-3.79-42.4-3.65-63.71-3.48-13.27,1-26.58,1.52-39.79,3-22.82,2.59-45.56,5.88-68.36,8.7-26.42,3.27-52.87,6.38-79.31,9.5-13.55,1.6-27.08,3.79-40.69,4.43-17,.79-24.41-5.58-28.22-22-.6-2.59-1.1-5.22-1.48-7.85-2.42-16.78-10.56-29.81-24.81-39.22a118.17,118.17,0,0,0-39.4-16.62c-22.74-5.14-45.63-9.64-68.54-14q-111.45-21.11-223-41.91c-3.06-.58-6-1.49-9.06-2.25a16.23,16.23,0,0,1,7.79-3.54q172.38-35.12,344.79-70.13c15.3-3.1,30.48-7,46.39-6.51,12.67.39,23.52,4.06,32.21,13.43,5.43,5.87,10.92,11.68,16.18,17.7,12.35,14.16,24.73,16.42,40.87,7.21,2-1.15,3.93-2.51,5.9-3.76,14.35-9.08,28.32-18.85,43.13-27.09,41.11-22.88,84.54-37.74,132.46-35.42l40.87,2c2.88.75,5.72,1.72,8.65,2.2,18.72,3.11,37.47,6,56.18,9.17q89.61,15.2,179.21,30.54c8.09,1.37,16.24,2.38,24.66,3.6,1.89-4.21,3.53-7.46,4.83-10.84,4.28-11.2,8.43-22.45,12.64-33.68,22.36-59.57,44.36-119.28,67.18-178.67s33.4-121.14,34.6-184.53c.36-18.93-1.14-37.9-1.78-56.85q-1-28.93-1.94-57.85-1-29.43-2.06-58.85-1-27.93-2-55.86l-2-56.85q-1-27.92-2-55.85-1-28.92-2-57.85-1-28.43-2-56.85Q2959,1078.44,2957.92,1048Z"/><path class="cls-2" d="M2087.37,460q2.4,40.86,4.81,81.72c.56,9.63,1.47,19.25,1.67,28.89,1,49.94-12.42,96.07-37,139.24a907,907,0,0,0-69.75,152.5c-16.25,46.89-31.17,94.24-46.64,141.4-.8,2.43-1.2,5-2.17,9.1,2.66-1.61,4.12-2.17,5.16-3.17,13.76-13.08,27.56-26.12,41.17-39.36q50.87-49.47,101.61-99.09,30.09-29.28,60.33-58.38,32-30.93,63.89-61.88c9.31-9,19.09-17.65,27.71-27.31,16.21-18.17,20.23-40.11,16.7-63.55-2.82-18.76-7.23-37.3-9.53-56.11a180.16,180.16,0,0,1-.64-38.84c1.84-19.27,12.51-34.27,27.69-45.76,18.35-13.88,39.54-21.77,61.64-27.46a74.54,74.54,0,0,0,5.79,6.83c7,6.62,14.41,12.83,21.2,19.65,8,8,15.43,16.51,23.16,24.76,10.46,11.16,21.23,22.05,31.4,33.46,18.57,20.84,37.25,41.61,55.08,63.08,25.49,30.7,50.7,61.65,75.18,93.15C2564.56,757,2582.3,782,2600,807c27.79,39.13,53.58,79.56,74.6,122.76,11.49,23.62,21.75,47.69,21.81,75,0,23.55,2.66,47.09,3.47,70.65,1.08,31.58,1.52,63.18,2.23,94.77.62,8,1.44,15.9,1.8,23.86.77,17.62,1.37,35.24,1.94,52.87q1.14,35.92,2.12,71.86,1.14,41.94,2.12,83.87c0,.66.06,1.33.1,2,1.25,25.25,2.85,50.48,3.65,75.74a614.06,614.06,0,0,1-3.68,85.73c-3.33,30.66-10.83,60.3-21.13,89.25-7.37,20.72-15.29,41.24-23.05,61.81q-33.35,88.38-66.71,176.75c-4.2,11.18-7.62,22.64-11.4,34l-40.87-2c-47.92-2.32-91.35,12.54-132.46,35.42-14.81,8.24-28.78,18-43.13,27.09-2,1.25-3.88,2.61-5.9,3.76-16.14,9.21-28.52,6.95-40.87-7.21-5.26-6-10.75-11.83-16.18-17.7-8.69-9.37-19.54-13-32.21-13.43-15.91-.5-31.09,3.41-46.39,6.51q-172.43,34.93-344.79,70.13a16.23,16.23,0,0,0-7.79,3.54c3,.76,6,1.67,9.06,2.25q111.47,21,223,41.91c22.91,4.34,45.8,8.84,68.54,14a118.17,118.17,0,0,1,39.4,16.62c14.25,9.41,22.39,22.44,24.81,39.22.38,2.63.88,5.26,1.48,7.85,3.81,16.41,11.24,22.78,28.22,22,13.61-.64,27.14-2.83,40.69-4.43,26.44-3.12,52.89-6.23,79.31-9.5,22.8-2.82,45.54-6.11,68.36-8.7,13.21-1.51,26.52-2,39.79-3-1.19,3.1-2.24,6.26-3.61,9.28-12.94,28.36-33.76,50.13-58.3,68.56-28.77,21.6-57.85,42.79-86.82,64.13Q2280,2346.58,2208.73,2399q-92.54,68.16-185.09,136.31C2005,2549,1985,2560,1963,2567.56c-23.73,8.1-48.42,9-72.93,10.21-36.91,1.78-73.89-.3-110.88,1.9-40.87,2.42-81.88-.41-122.87,2-41.2,2.41-82.55-.43-123.87,2-39.87,2.38-79.87-.19-119.87,1.9-45.2,2.36-90.56,1.93-135.85,2.36-34.33.33-68.67,0-103,.14a190.48,190.48,0,0,1-70.37-13c-33.49-13.07-66.66-27.14-99.26-42.29A1444.16,1444.16,0,0,1,876,2465c-40.43-24-80.13-49.1-118-77-31.1-22.91-62.27-45.82-89.95-72.9-24.26-23.73-48.87-47.23-71.61-72.38a540.17,540.17,0,0,1-62.85-85.08c-.85-1.41-2.1-2.59-3-4-4.92-7.83-9.79-15.7-14.68-23.56-.7-4.09-.8-8.41-2.22-12.24-2.88-7.79-6.86-15.18-9.71-23-14.19-38.77-28.62-77.47-42.07-116.5-10.64-30.84-20.11-62.09-29.89-93.22-18-57.24-33.59-115.14-43.11-174.42-4.89-30.48-9.48-61.29-10.4-92.07-1.18-39.19-2.62-78.54,1.32-117.77,2.32-23.13,3.47-46.39,6-69.49q5.7-51.56,12.71-103c4.71-34.27,10.11-68.45,15.45-102.63a810.49,810.49,0,0,1,28.28-121.51A477.12,477.12,0,0,1,503.18,979c3.53-5.16,5.87-11.12,8.76-16.71,8.31,7.63,16.37,15.55,25,22.83a240,240,0,0,0,70.28,41c17.08,6.49,34.35,12.47,51.58,18.57q27.24,9.64,54.58,19c2.79,1,5.76,1.39,8.64,2.07.06.73.12,1.47.17,2.2-2.3,3.2-5.29,6.1-6.8,9.64-11.15,26-23.06,51.76-32.71,78.33a526.79,526.79,0,0,0-29,123.27c-2.36,21.8-4.9,43.68-5.31,65.57-.34,18.53,1.95,37.15,3.65,55.68,3.15,34.21,12.33,66.69,28.7,97.07A187.11,187.11,0,0,0,714,1542.25a170.9,170.9,0,0,0,49.26,33.61,128.86,128.86,0,0,0,51.2,12c37.41.89,69.86-13.2,97.68-37.23,34.79-30.06,58.79-67.77,73.74-111.16,13.41-38.94,19.88-79.44,26.11-120,5.77-37.53,11.28-75.09,21.65-111.73,20.49-72.45,57.47-135.11,111.47-187.64,2.53-2.47,5.92-4.07,8.91-6.08,7.75,6.27,15,13.26,23.32,18.67,34.9,22.76,90.92,23.58,121.72-18.86,14.76-20.34,19-43.17,12.55-67.34-2.43-9.18-7.62-17.64-11.55-26.43,12.88-4.4,25.55-9.62,38.69-13,26.42-6.87,53.19-12.37,79.61-19.21,18.54-4.8,35.85-12.77,50-26.15,13.28-12.6,21.08-28,21.77-46.67.72-19.31-6.57-35.88-17.57-51-17.92-24.58-42.41-41.37-69.38-54.08a576.46,576.46,0,0,0-88-32.63,390.56,390.56,0,0,0-96.42-14.88c-18.13-.51-36.48,2.2-54.55,4.74-29.94,4.2-57.94,15.07-85.26,27.56-8.94,4.09-17.3,9.45-26.46,14.53,1.74,2.76,2.63,4.47,3.81,6,7.59,9.68,15.6,19.06,22.83,29,21.5,29.59,38.76,61.42,48.11,97,6.91,26.26,8,52.63-2.22,78.51-9,22.79-23.19,41.49-42.29,57-25.56,20.76-54.93,31.1-87.23,33.08-33.29,2-64.65-6.21-94.69-20.36-31.55-14.85-57.48-37-81.71-61.52-6.76-6.84-7.89-7.08-13.5.89-13.61,19.32-26.81,38.92-40.41,58.24-2.38,3.39-5.88,6-8.86,9-6.22-11-13-21.66-18.52-33-9.61-19.76-24.59-32.65-45.64-38.64-31.76-9-60.31-24.29-86.23-44.57-6.25-4.89-12-10.44-18-15.68,7.68-9.18,15.19-18.51,23.09-27.5,14.91-17,30-33.77,45.08-50.64,1.56,1.71,3,3.52,4.69,5.11,7,6.62,13.39,14,21.12,19.57,12.67,9.13,26.55,16.56,39.3,25.6,26.89,19.08,52.61,39.56,73.66,65.31,3.77,4.62,8.4,8.54,12.61,12.8,3.3,3.33,6.44,2.94,9.38-.43,1.31-1.5,2.37-3.22,3.68-4.71,16.44-18.73,32.34-38,49.52-56C886.57,836,904,819.49,921.8,803.52c16.82-15.07,34-29.87,52.28-43.12,22.32-16.21,45.93-30.65,68.93-45.93a64.19,64.19,0,0,0,6-5.17,50.73,50.73,0,0,0-4.18-5.31c-11.58-11-22.66-22.58-35-32.68-21.48-17.6-45-31.82-71.83-40.25-28.46-8.94-57.75-12.61-87.3-14.85-5.28-.4-10.64.07-15.95.35-7.62.39-15.23,1-22.85,1.45,2-3,3.61-6.41,6.14-8.88,7.38-7.19,15.21-13.92,22.73-21,26.37-24.71,55.6-45.79,86.41-64.28,29.67-17.8,60.37-34.05,91.43-49.31,32.85-16.15,67-29.52,101.5-41.86,46.49-16.64,93.83-30.32,141.6-42.65a366.36,366.36,0,0,1,83.88-11.66c31.92-.69,63.89,1,95.83,1.82,11.63.31,23.26,1,34.85,2,28.52,2.45,57.08,4.47,85.7,3.69a335.45,335.45,0,0,1,64.64,4.72c41,6.88,82.09,14.15,122.75,23,63.86,13.95,128.22,23.81,193.42,28.34,17.25,1.2,34.54,2.28,51.67,4.51C2025.52,450.58,2056.42,455.44,2087.37,460Zm-993.8,1752a214.84,214.84,0,0,0,94.11-16.12c30.69-12.57,56.22-31.66,74.25-59.77,23-35.94,32.67-75.47,29.92-118a44.53,44.53,0,0,0-1.81-8.77c-8-29.13-29-47.34-53.57-61.69a315.18,315.18,0,0,0-82.26-33.25c-32.92-8.27-66.15-15.4-99.43-22.16-28.7-5.83-57.71-10.13-86.48-15.66-30.47-5.85-60.76-10.31-92.12-7-20.63,2.2-41,5.13-60.84,10.76-37.39,10.6-71.36,27.3-98.68,56-38.1,40-50.63,86.65-36.41,139.82,7.11,26.6,23.7,46.5,48.45,59.39,19,9.89,39.56,13.51,60.36,16.6,20.07,3,40.43,4.88,60.1,9.59,38.86,9.29,77.33,20.2,116,30.41C1006.71,2203.08,1048.33,2213.86,1093.57,2212ZM2546.88,992.07c-1.25-16.91-1.73-31.24-3.47-45.41a218.77,218.77,0,0,0-25.74-79.38c-11.27-20.48-26.09-38.11-44.82-51.7-40.53-29.44-84.17-30.17-128.79-10.39-27.46,12.18-50.52,30.22-70,53.45-29.47,35.16-44.59,75.53-45.79,120.88-.72,27.37,6.94,53.48,18.65,78.1a429.08,429.08,0,0,1,33.72,102.17c4.25,21.6,10.1,42.85,21.31,62.15,8.87,15.27,20.28,28,36.2,36.23,18.61,9.68,38.13,12.58,58.94,10,38-4.64,68.71-22.2,92.55-51.77,19.82-24.58,31.91-53.15,38.9-83.61a687.45,687.45,0,0,0,11.68-67.83C2543.38,1040,2544.88,1014.72,2546.88,992.07ZM1659.53,2449.24c0-.93-.08-1.85-.11-2.78-4.49-.13-9-.52-13.45-.35-20.84.81-41.22-2.22-61.14-8-19.19-5.53-37.24-13.88-48.48-31.23-14.49-22.37-17.89-46.32-5.19-70.95,6.65-12.91,17.88-21.22,30-28.45,5-3,9.87-6,16.59-10-4.12-.76-6-1.3-7.82-1.42a292.87,292.87,0,0,1-79.8-16.89c-16.31-5.81-32.79-11.18-49.28-16.47-21.33-6.84-42.92-11.38-65.64-10.88A133.29,133.29,0,0,0,1308,2271.5c-13.85,8.36-25.7,19-33.46,33.54a76.64,76.64,0,0,0,13.11,89.64c23.76,24.36,53.84,37.38,85.64,47.22,24.57,7.61,49.76,12.33,75.2,15.58,28,3.58,56.1,6.86,84.44,6.6,12-.11,24-.28,36,.05a283.89,283.89,0,0,0,54.63-4.31C1635.94,2457.74,1648.31,2455.28,1659.53,2449.24ZM1237.3,1775.4l.72.06c0,4.33-.29,8.69,0,13,1.82,22.82,8,43.69,25.3,60.19a156.71,156.71,0,0,0,33.25,23.67c24.68,13.5,51.18,22.59,78,30.65,9.43,2.84,19.71,5.13,29.37,4.45,19.75-1.41,35.9-11.81,49.27-25.94,12.92-13.63,22.75-29.52,30.33-46.69,8.88-20.08,13.88-40.87,10.36-63-1.93-12.14-6.52-22.9-15.12-32-10.31-10.84-23.13-16.51-37.42-19.69-27.2-6.07-55.06-3-82.48-6-10.22-1.14-20.73-1.21-30.61-3.71-23.06-5.82-44.94-3.09-66.07,6.88-12.72,6-21.72,15.15-22.51,30.37C1239.25,1756.89,1238.13,1766.14,1237.3,1775.4Zm1292-357.33a132.31,132.31,0,0,0,67.71-16.45c26.05-14.18,43.9-34.61,48-64.64,3.73-27-4.71-49.72-26.83-66.86-11-8.53-21.82-17.41-31.94-26.95-20.81-19.65-36.92-20.25-56.64.51-17.61,18.53-34.2,38-50.87,57.42a99.24,99.24,0,0,0-20.84,38.31c-9.5,34.34,3.32,61.15,37.75,73.53A84.05,84.05,0,0,0,2529.33,1418.07Z"/><path class="cls-3" d="M516,2130.13c4.89,7.86,9.76,15.73,14.68,23.56.88,1.41,2.13,2.59,3,4a540.17,540.17,0,0,0,62.85,85.08c22.74,25.15,47.35,48.65,71.61,72.38,27.68,27.08,58.85,50,89.95,72.9,37.87,27.89,77.57,53,118,77a1444.16,1444.16,0,0,0,128.06,67.77c32.6,15.15,65.77,29.22,99.26,42.29a190.48,190.48,0,0,0,70.37,13c34.33-.13,68.67.19,103-.14,45.29-.43,90.65,0,135.85-2.36,40-2.09,80,.48,119.87-1.9,41.32-2.47,82.67.37,123.87-2,41-2.4,82,.43,122.87-2,37-2.2,74-.12,110.88-1.9,24.51-1.19,49.2-2.11,72.93-10.21,22-7.52,42-18.6,60.65-32.26q92.65-68,185.09-136.31,71.22-52.44,142.45-104.87c29-21.34,58.05-42.53,86.82-64.13,24.54-18.43,45.36-40.2,58.3-68.56,1.37-3,2.42-6.18,3.61-9.28,21.31-.17,42.51-.31,63.71,3.48,32,5.72,58.47,20.71,82,42.72,20.63,19.32,41.94,38,65.86,53.38,8.49,5.46,17.29,9.8,27.66,10.53,6.21.43,7.54,2.65,5.28,8.64-12.62,33.33-23.65,67.38-41.27,98.54a192.81,192.81,0,0,1-43.5,53c-43.82,37-91.38,69-137.26,103.31-55.24,41.25-110.87,82-166.36,122.9q-76,56.06-152,112c-22.52,16.59-44.83,33.5-67.69,49.61-24.3,17.13-49.67,32.7-78.4,41.23a234.69,234.69,0,0,1-43,8.36c-45.1,4.54-90.4,4.11-135.68,4.31-50.61.23-101.28,0-151.81,2.37-39.66,1.89-79.32-.49-118.85,1.86-42.31,2.51-84.65-.36-126.84,2.07-40,2.3-80-.43-119.85,1.94-41.64,2.48-83.32-.37-124.84,2-45.65,2.65-91.25.78-136.86,1.59a228.47,228.47,0,0,1-79.47-13c-25.15-8.74-50.06-18.37-74.39-29.16q-52.51-23.26-104-48.88c-50.69-25.29-99.87-53.34-148-83.28-45.86-28.53-90.87-58.33-133.51-91.45-27.83-21.62-54.81-44.42-81.13-67.86-22.11-19.7-43.39-40.43-63.78-61.91-17.37-18.32-33.38-38-49.21-57.69a702.51,702.51,0,0,1-71.81-108.06c-17.78-33.14-34.38-67-50-101.18-27.44-60.06-49.33-122.32-70.29-184.88-1-2.85-1.7-5.75-2.55-8.63,13.6-.6,27.22-.92,40.79-1.86,37.11-2.56,72.91-11.62,107.92-23.56,33.71-11.49,66.34-25.78,98.49-41.11,4.75-2.26,9.89-3.69,14.84-5.51,1.43,3.34,3,6.64,4.27,10,4.06,10.88,7.66,21.94,12.07,32.67,10.07,24.55,19.75,49.31,31,73.31C492,2086.53,504.36,2108.14,516,2130.13Zm864.91,495.93h-119c-28,0-56-.05-84,0-21.68.06-36.7,10.14-44.9,30.26-.38.92-.71,1.87-1.06,2.8-13.3,35.2-26.49,70.44-39.94,105.59-5,13.06-9.75,26.31-16.15,38.69a50.4,50.4,0,0,0-5.86,26.83c.47,8.47,4.26,13.74,12.59,15.77a66.79,66.79,0,0,0,16.77,1.93c54.6-.92,109.2,1.6,163.82-1.59,37.19-2.17,74.53-1.63,111.8-2.33,2.66,0,5.32-.22,8-.41,16.9-1.18,33.8-2.4,50.7-3.55,12.28-.84,24.58-1.26,36.82-2.43,23.82-2.28,47.58-5.14,71.4-7.42q36.73-3.51,73.51-6.36c26.5-2.09,53-5.1,79.54-5.48,36.26-.51,72.54,1.09,108.81,1.79,1,0,2,.2,3,.27,15.9,1.2,31.79,2.51,47.7,3.57,13.6.91,27.23,1.45,40.83,2.29,10,.61,19.88,1.48,29.83,2.19,16.9,1.21,33.81,2.26,50.7,3.6,16.07,1.27,29-8.55,32.53-25,3.06-14.24,5-28.85,3-43.6a106.24,106.24,0,0,1-1.27-13.88c-.06-24.76-3.73-49.12-8.71-73.23-3.54-17.13-11-32.34-28-40.4-11.59-5.53-24.09-7.73-36.85-7.87-119.57-1.26-239.15,1.58-358.74-1.71C1512.2,2624.59,1446.52,2626.07,1380.87,2626.06Zm626.6,1.14c1.1,9.91,1.68,19.91,3.4,29.71,4.87,27.87,9.77,55.76,15.53,83.45a385.75,385.75,0,0,0,12.81,47.21c5.78,16.74,22.91,23.2,39.24,16.2,11.76-5,22.08-12.3,31.61-20.76,12.44-11,24.54-22.49,37.44-33,24.8-20.13,49.67-40.21,75.22-59.36,30.11-22.55,60.48-44.82,91.62-65.92,46.33-31.39,93.39-61.71,140.21-92.39,51.83-34,103.92-67.54,155.49-101.89,18-12,36.18-24,50.73-40.29,26-29.1,32.11-60.92,14.89-96.79-6.69-13.95-16.07-26.15-26.72-37.17a432.56,432.56,0,0,0-34.93-32.77,301.77,301.77,0,0,0-36.48-26.09c-17.24-10.38-35.72-12.45-54.29-2.81a132.61,132.61,0,0,0-17,10.42c-22.3,16.31-44.44,32.84-66.6,49.33-37.4,27.84-74.93,55.5-112.11,83.63-32.9,24.91-65.45,50.29-98.05,75.59q-37.47,29.09-74.67,58.51c-27.45,21.62-55,43.19-82.18,65.09-14.51,11.67-29.08,23.37-42.54,36.18C2015,2587.71,2007.27,2605.88,2007.47,2627.2Z"/><path class="cls-4" d="M434,1948c-5,1.82-10.09,3.25-14.84,5.51-32.15,15.33-64.78,29.62-98.49,41.11-35,11.94-70.81,21-107.92,23.56-13.57.94-27.19,1.26-40.79,1.86-2.6-6.83-5.55-13.54-7.73-20.5-14.81-47.37-30.07-94.62-44-142.24-18.08-61.75-32.5-124.41-41.65-188.14-3.11-21.71-5.21-43.62-6.62-65.51-1.88-29.2-3.5-58.47-3.61-87.72-.09-24.24,2-48.5,3.42-72.74,1.18-19.91,2.36-39.85,4.38-59.69q4.69-46.17,10.62-92.2c4-31.35,8.5-62.64,13-93.93,4.36-30,8.43-60,13.79-89.79,6.07-33.74,12.63-67.43,20.43-100.8A650,650,0,0,1,182,872.46c1-2.05,2.29-4,2.74-4.74,13.24.86,25.42,1.92,37.63,2.38,23.28.88,46.6.87,69.85,2.21,37.74,2.18,74.75,8.5,110.07,22.66,12.66,5.07,25.27,10.27,37.9,15.41-1.25,3-2.13,6.3-3.79,9.11-15.67,26.48-27.58,54.64-37.76,83.61-19.29,54.93-30,111.84-38.22,169.23S344.84,1287,337.85,1344.42c-3.45,28.35-6.88,56.86-7.41,85.35-.85,45.87-2,91.79,3.19,137.64a1032.47,1032.47,0,0,0,20.95,120.88c16.84,71.75,40,141.62,63.07,211.52C423,1915.93,428.57,1932,434,1948Z"/><path class="cls-5" d="M1154,1014.06c-3,2-6.38,3.61-8.91,6.08-54,52.53-91,115.19-111.47,187.64-10.37,36.64-15.88,74.2-21.65,111.73-6.23,40.51-12.7,81-26.11,120-15,43.39-39,81.1-73.74,111.16-27.82,24-60.27,38.12-97.68,37.23a128.86,128.86,0,0,1-51.2-12A170.9,170.9,0,0,1,714,1542.25a187.11,187.11,0,0,1-33.25-44.72c-16.37-30.38-25.55-62.86-28.7-97.07-1.7-18.53-4-37.15-3.65-55.68.41-21.89,2.95-43.77,5.31-65.57a526.79,526.79,0,0,1,29-123.27c9.65-26.57,21.56-52.32,32.71-78.33,1.51-3.54,4.5-6.44,6.8-9.64,19.47,6.31,37.1,16.37,54.33,27.14,34.85,21.78,66.23,48,96,76.23,2.2,2.09,3.88,5.37,8.85,5a34.76,34.76,0,0,0-2.66-4.77c-7-8.49-14.17-16.77-21-25.38-33.88-42.86-65.6-87.23-93-134.56-2.11-3.64-5.33-6.64-8-9.93-.11-1.89-.22-3.77-.32-5.66,3-3,6.48-5.57,8.86-9,13.6-19.32,26.8-38.92,40.41-58.24,5.61-8,6.74-7.73,13.5-.89,24.23,24.49,50.16,46.67,81.71,61.52,30,14.15,61.4,22.4,94.69,20.36,32.3-2,61.67-12.32,87.23-33.08,19.1-15.52,33.33-34.22,42.29-57,10.18-25.88,9.13-52.25,2.22-78.51-9.35-35.57-26.61-67.4-48.11-97-7.23-9.95-15.24-19.33-22.83-29-1.18-1.5-2.07-3.21-3.81-6,9.16-5.08,17.52-10.44,26.46-14.53,27.32-12.49,55.32-23.36,85.26-27.56,18.07-2.54,36.42-5.25,54.55-4.74a390.56,390.56,0,0,1,96.42,14.88,576.46,576.46,0,0,1,88,32.63c27,12.71,51.46,29.5,69.38,54.08,11,15.09,18.29,31.66,17.57,51-.69,18.68-8.49,34.07-21.77,46.67-14.11,13.38-31.42,21.35-50,26.15-26.42,6.84-53.19,12.34-79.61,19.21-13.14,3.42-25.81,8.64-38.69,13l-2-.08a58.2,58.2,0,0,0-40.49-24.83c-9.13-1.33-18.8-2.1-27.78-.55-42.39,7.28-79.29,37.23-85.17,84.18-1.44,11.52.54,22.55,9.4,31.24Zm-268,168,.32.27-.28-.31-.32-.29Z"/><path class="cls-4" d="M1230,72.19c15.28-.69,30.57-2.2,45.83-1.88,29.24.62,58.47,2.24,87.69,3.54,12,.53,23.9,1.37,35.85,2,16.6.81,33.21,1.52,49.82,2.27l46.84,2.1c2.17,1.27,4.3,3.54,6.51,3.62,10.28.39,20.59.39,30.87,0,2.23-.08,4.38-2.31,6.57-3.55,15.19,1.54,30.42,2.72,45.56,4.67,54.12,7,107.48,18.21,160.9,29.07,34.53,7,69,14.6,103.65,20.68,21.21,3.71,42.83,5.13,64.29,7.44,13.87,1.49,27.76,2.72,41.64,4.06,1.27,3,2.59,3.15,4,.08,25.4,2.48,50.76,5.43,76.2,7.35,35.79,2.69,71.22,8.11,106.38,14.79,24.07,4.57,47.64,11.77,71.43,17.79v9.6c-9.49,8.73-20.13,16.52-28.27,26.37-32,38.82-58.62,81.31-80.83,126.43-5.53,11.24-8.69,23.64-12.94,35.51-9.61-2.74-19.16-5.7-28.84-8.18a631.94,631.94,0,0,0-90.38-16.06c-23.14-2.44-46.23-5.32-69.4-7.48-20.18-1.89-40.54-2.21-60.64-4.72-28.7-3.57-57.38-7.76-85.82-13-46.5-8.63-92.73-18.69-139.19-27.5-35.66-6.76-71.56-11.52-108-11.22-24.28.2-48.57-1.09-72.85-2-12.29-.44-24.56-1.41-36.83-2.15-20.57-1.23-41.13-3.19-61.71-3.5-19.94-.3-39.93.65-59.84,1.92-14.24.91-28.72,1.87-42.51,5.21C1200,304.09,1164,313,1128.7,323.79c-67,20.48-132.2,45.77-194.26,78.58-32.7,17.29-64.63,35.87-94.57,57.73-21,15.33-42,30.72-60,49.43-22.63,23.46-44.26,47.88-66.35,71.86-16.68,18.11-33.46,36.14-50.09,54.29-20.45,22.33-41,44.53-61.11,67.19-21.18,23.89-41.75,48.31-62.72,72.39-5.65,6.49-11.77,12.58-17.67,18.86-8.43-8.93-16.93-17.81-25.28-26.81-15.38-16.58-30.5-33.4-46.07-49.81-17.85-18.83-35.85-37.55-54.26-55.83-6.06-6-13.41-10.85-20.53-15.68a38.22,38.22,0,0,0-21.7-6.52l-.15-7.66c4.63-6,8.93-12.37,13.95-18.06q27.41-31.08,55.24-61.8Q461.6,509.38,500.37,467q12.12-13.29,24.38-26.43c29.74-31.9,58.94-64.34,89.43-95.51,35.33-36.14,76.17-65.53,118.73-92.58a1027.49,1027.49,0,0,1,103-57.31,1398,1398,0,0,1,148.57-61.6c48.77-17.07,98.16-32.15,148.3-44.68,15.19-3.8,30.36-7.84,45.75-10.58,15.69-2.79,31.65-4.12,47.49-6.1C1227.39,75.29,1228.72,75.15,1230,72.19ZM839.07,390.75c8.24-1,16.54-1.59,24.71-3a171.85,171.85,0,0,0,21.32-5.14c26-8,49.11-22.15,72.4-35.7A823.38,823.38,0,0,1,1098,282.43c40-14.09,81-24.29,122.56-32.4a157.6,157.6,0,0,0,25-7.06c12-4.48,19.94-13.2,22.62-25.92a91.09,91.09,0,0,0,1.79-16.8c.35-15.65-.44-31.37.77-46.94.73-9.37,1.28-18.43-.42-27.74-2.6-14.21-11.16-23.42-25.73-25a101.57,101.57,0,0,0-25.9.15c-29.05,4.48-57.2,12.8-84.82,22.65-46.17,16.46-92.56,32-140.94,40.7-71.48,12.9-140.39,33.78-205.8,65.8-36.36,17.8-70.43,39-101.15,65.43a131.56,131.56,0,0,0-12.68,12.75c-3.76,4.26-3.39,6.15.91,10a34.24,34.24,0,0,0,3.18,2.43c32.45,22.84,65.27,45.11,103,58.48C799.3,385.67,818.74,390.15,839.07,390.75ZM383.32,623.83c4.31,2.47,6.67,4.33,9.35,5.28,24,8.47,41.68,26,59.67,42.7,14.12,13.11,26.48,28.09,40.26,41.59A211.93,211.93,0,0,0,518.76,735c15.55,10.95,33.6,8.89,47.54-4.11a76.9,76.9,0,0,0,19.33-28.77c5.33-13.65,10-27.59,16-40.94,13.4-29.9,34.46-54.45,56.52-78.13,23.14-24.83,46.73-49.25,69.85-74.1,8-8.58,14.65-18.21,16.78-30.17,2.21-12.44-7.11-21.21-19.14-17.26-6.2,2-12,5.6-17.5,9.31-21.81,14.83-45.51,25.21-71.49,29.56-30.18,5.06-60.48,9.42-90.79,13.67a206.75,206.75,0,0,0-91.22,35.66A254.75,254.75,0,0,0,400.07,602C394.79,608.75,389.63,615.6,383.32,623.83ZM1798.71,214.72a158.51,158.51,0,0,0,9,49.23,47.28,47.28,0,0,0,5,9.68c7.41,11.33,18.93,16.75,31.35,19.77,12.25,3,24.84,4.7,37.35,6.47q48.4,6.86,96.87,13.21c21.75,2.82,43.3,7,65.4,7.22,14.33.14,26.35-4.37,36.23-14,6.13-5.95,10.92-13.35,15.93-20.37,6-8.39,11-17.56,17.51-25.49a222.4,222.4,0,0,1,23.47-24.28c8.15-7.29,17.4-13.35,25.94-20.24,12.14-9.79,11.46-20.55-1.69-29a19.44,19.44,0,0,0-6.33-2.87c-7.46-1.53-15-3.82-22.49-3.82-20.27,0-40.55,1.62-60.82,1.54-24.27-.09-48.61-.32-72.78-2.22-29.21-2.3-58-7.95-86.46-15-17.44-4.35-34.69-9.57-52.25-13.32-20.37-4.36-48.14,4.42-56.19,33.18C1801,194.23,1800.34,204.6,1798.71,214.72Z"/><path class="cls-3" d="M2587.89,1927.88c3.78-11.33,7.2-22.79,11.4-34q33.2-88.42,66.71-176.75c7.76-20.57,15.68-41.09,23.05-61.81,10.3-28.95,17.8-58.59,21.13-89.25a614.06,614.06,0,0,0,3.68-85.73c-.8-25.26-2.4-50.49-3.65-75.74,0-.66-.08-1.33-.1-2q-1.05-41.94-2.12-83.87-1-35.93-2.12-71.86c-.57-17.63-1.17-35.25-1.94-52.87-.36-8-1.18-15.91-1.8-23.87,3.17-.93,6.49-1.52,9.48-2.86,43.67-19.45,87.68-38.2,130.81-58.78,31.43-15,61.68-32.5,92.49-48.82,7.6-4,15.33-7.8,23-11.69q1.08,30.42,2.15,60.84,1,28.42,2,56.85,1,28.92,2,57.85,1,27.93,2,55.85l2,56.85q1,27.93,2,55.86,1,29.42,2.06,58.85,1,28.92,1.94,57.85c.64,19,2.14,37.92,1.78,56.85-1.2,63.39-11.76,125.06-34.6,184.53s-44.82,119.1-67.18,178.67c-4.21,11.23-8.36,22.48-12.64,33.68-1.3,3.38-2.94,6.63-4.83,10.84-8.42-1.22-16.57-2.23-24.66-3.6q-89.61-15.22-179.21-30.54c-18.71-3.18-37.46-6.06-56.18-9.17C2593.61,1929.6,2590.77,1928.63,2587.89,1927.88Z"/><path class="cls-4" d="M2957.92,1048c-7.68,3.89-15.41,7.67-23,11.69-30.81,16.32-61.06,33.81-92.49,48.82-43.13,20.58-87.14,39.33-130.81,58.78-3,1.34-6.31,1.93-9.48,2.86-.71-31.58-1.15-63.18-2.23-94.76-.81-23.56-3.43-47.1-3.47-70.65-.06-27.36-10.32-51.43-21.81-75-21-43.2-46.81-83.63-74.6-122.76-17.72-25-35.46-50-54.23-74.12-24.48-31.5-49.69-62.45-75.18-93.15-17.83-21.47-36.51-42.24-55.08-63.08-10.17-11.41-20.94-22.3-31.4-33.46-7.73-8.25-15.19-16.75-23.16-24.76-6.79-6.82-14.2-13-21.2-19.65a74.54,74.54,0,0,1-5.79-6.83c8.92-3.66,17.78-7.48,26.77-11A156.4,156.4,0,0,0,2417,443.72c16.67-17.18,32.18-35.47,48.21-53.26,15.82-17.56,31.5-35.25,50.93-49.06,9.64-6.86,11.35-6.9,19.49,1.21,18.16,18.11,36.7,35.88,54.19,54.63,20.87,22.37,40.85,45.58,61.14,68.49,50.33,56.87,97.59,116.22,143,177.06C2831.38,693,2867,744.5,2898.81,798.5c18.77,31.86,36.18,64.43,47.82,99.81a156.3,156.3,0,0,1,7.8,46c.66,30.91,2.36,61.8,3.58,92.7C2958.15,1040.68,2958,1044.35,2957.92,1048Z"/><path class="cls-6" d="M521.88,794.12c5.9-6.28,12-12.37,17.67-18.86,21-24.08,41.54-48.5,62.72-72.39,20.07-22.66,40.66-44.86,61.11-67.19,16.63-18.15,33.41-36.18,50.09-54.29,22.09-24,43.72-48.4,66.35-71.86,18.06-18.71,39.07-34.1,60-49.43,29.94-21.86,61.87-40.44,94.57-57.73,62.06-32.81,127.26-58.1,194.26-78.58C1164,313,1200,304.09,1235.9,295.41c13.79-3.34,28.27-4.3,42.51-5.21,19.91-1.27,39.9-2.22,59.84-1.92,20.58.31,41.14,2.27,61.71,3.5,12.27.74,24.54,1.71,36.83,2.15,24.28.87,48.57,2.16,72.85,2,36.49-.3,72.39,4.46,108,11.22,46.46,8.81,92.69,18.87,139.19,27.5,28.44,5.28,57.12,9.47,85.82,13,20.1,2.51,40.46,2.83,60.64,4.72,23.17,2.16,46.26,5,69.4,7.48a631.94,631.94,0,0,1,90.38,16.06c9.68,2.48,19.23,5.44,28.84,8.18-3.95,13.47-4.14,27.31-4.15,41.18,0,11.57-.28,23.13-.44,34.69-30.95-4.52-61.85-9.38-92.85-13.42-17.13-2.23-34.42-3.31-51.67-4.51-65.2-4.53-129.56-14.39-193.42-28.34-40.66-8.88-81.7-16.15-122.75-23a335.45,335.45,0,0,0-64.64-4.72c-28.62.78-57.18-1.24-85.7-3.69-11.59-1-23.22-1.72-34.85-2-31.94-.86-63.91-2.51-95.83-1.82a366.36,366.36,0,0,0-83.88,11.66c-47.77,12.33-95.11,26-141.6,42.65-34.52,12.34-68.65,25.71-101.5,41.86-31.06,15.26-61.76,31.51-91.43,49.31-30.81,18.49-60,39.57-86.41,64.28-7.52,7.05-15.35,13.78-22.73,21C815.58,611.6,814,615,812,618a53.06,53.06,0,0,1-6.67,1.89,207.15,207.15,0,0,0-66,21.45c-35.74,18.61-62.28,46-79.09,82.57-5.9,12.82-9.18,26.44-8,40.64.59,7.23,2.56,14.34,3.91,21.51-15,16.87-30.17,33.66-45.08,50.64-7.9,9-15.41,18.32-23.09,27.5C568.49,848.91,552.5,830.16,536,812,530.9,806.36,526.56,800.08,521.88,794.12Z"/><path class="cls-6" d="M434,1948c-5.47-16.07-11.07-32.1-16.39-48.22-23-69.9-46.23-139.77-63.07-211.52a1032.47,1032.47,0,0,1-20.95-120.88c-5.15-45.85-4-91.77-3.19-137.64.53-28.49,4-57,7.41-85.35,7-57.43,14.36-114.82,22.54-172.09s18.93-114.3,38.22-169.23c10.18-29,22.09-57.13,37.76-83.61,1.66-2.81,2.54-6.07,3.79-9.11,14.84,5.23,28.08,13.44,40.14,23.27,11,9,21.13,19,31.64,28.63-2.89,5.59-5.23,11.55-8.76,16.71a477.12,477.12,0,0,0-60.83,125.36,810.49,810.49,0,0,0-28.28,121.51c-5.34,34.18-10.74,68.36-15.45,102.63s-8.91,68.58-12.71,103c-2.56,23.1-3.71,46.36-6,69.49-3.94,39.23-2.5,78.58-1.32,117.77.92,30.78,5.51,61.59,10.4,92.07,9.52,59.28,25.11,117.18,43.11,174.42,9.78,31.13,19.25,62.38,29.89,93.22,13.45,39,27.88,77.73,42.07,116.5,2.85,7.8,6.83,15.19,9.71,23,1.42,3.83,1.52,8.15,2.22,12.24-11.6-22-24-43.6-34.56-66.08-11.27-24-20.95-48.76-31-73.31-4.41-10.73-8-21.79-12.07-32.67C437,1954.67,435.47,1951.37,434,1948Z"/><path class="cls-7" d="M756.6,1001.74c2.71,3.29,5.93,6.29,8,9.93,27.43,47.33,59.15,91.7,93,134.56,6.8,8.61,14,16.89,21,25.38a34.76,34.76,0,0,1,2.66,4.77c-5,.33-6.65-3-8.85-5-29.72-28.27-61.1-54.45-96-76.23-17.23-10.77-34.86-20.83-54.33-27.14,0-.73-.11-1.47-.17-2.2.68-2.53.87-5.34,2.12-7.54C734.84,1039.33,745.75,1020.55,756.6,1001.74Z"/><path class="cls-8" d="M353.89,631.81l.15,7.66-4.58-2C350.94,635.56,352.41,633.68,353.89,631.81Z"/><path class="cls-8" d="M1230,72.19c-1.28,3-2.61,3.1-4,0Z"/><path class="cls-9" d="M1093.57,2212c-45.24,1.9-86.86-8.88-128.44-19.86-38.64-10.21-77.11-21.12-116-30.41-19.67-4.71-40-6.61-60.1-9.59-20.8-3.09-41.37-6.71-60.36-16.6-24.75-12.89-41.34-32.79-48.45-59.39-14.22-53.17-1.69-99.84,36.41-139.82,27.32-28.68,61.29-45.38,98.68-56,19.88-5.63,40.21-8.56,60.84-10.76,31.36-3.35,61.65,1.11,92.12,7,28.77,5.53,57.78,9.83,86.48,15.66,33.28,6.76,66.51,13.89,99.43,22.16a315.18,315.18,0,0,1,82.26,33.25c24.6,14.35,45.61,32.56,53.57,61.69a44.53,44.53,0,0,1,1.81,8.77c2.75,42.56-6.87,82.09-29.92,118-18,28.11-43.56,47.2-74.25,59.77A214.84,214.84,0,0,1,1093.57,2212Z"/><path class="cls-9" d="M2546.88,992.07c-2,22.65-3.5,47.9-6.66,72.93a687.45,687.45,0,0,1-11.68,67.83c-7,30.46-19.08,59-38.9,83.61-23.84,29.57-54.51,47.13-92.55,51.77-20.81,2.54-40.33-.36-58.94-10-15.92-8.28-27.33-21-36.2-36.23-11.21-19.3-17.06-40.55-21.31-62.15a429.08,429.08,0,0,0-33.72-102.17c-11.71-24.62-19.37-50.73-18.65-78.1,1.2-45.35,16.32-85.72,45.79-120.88,19.48-23.23,42.54-41.27,70-53.45,44.62-19.78,88.26-19.05,128.79,10.39,18.73,13.59,33.55,31.22,44.82,51.7a218.77,218.77,0,0,1,25.74,79.38C2545.15,960.83,2545.63,975.16,2546.88,992.07Z"/><path class="cls-9" d="M656.1,786.07c-1.35-7.17-3.32-14.28-3.91-21.51-1.16-14.2,2.12-27.82,8-40.64,16.81-36.6,43.35-64,79.09-82.57a207.15,207.15,0,0,1,66-21.45A53.06,53.06,0,0,0,812,618c7.62-.49,15.23-1.06,22.85-1.45,5.31-.28,10.67-.75,15.95-.35,29.55,2.24,58.84,5.91,87.3,14.85,26.81,8.43,50.35,22.65,71.83,40.25,12.31,10.1,23.39,21.69,35,32.68a50.73,50.73,0,0,1,4.18,5.31,64.19,64.19,0,0,1-6,5.17c-23,15.28-46.61,29.72-68.93,45.93-18.25,13.25-35.46,28.05-52.28,43.12-17.82,16-35.23,32.5-51.74,49.81-17.18,18-33.08,37.26-49.52,56-1.31,1.49-2.37,3.21-3.68,4.71-2.94,3.37-6.08,3.76-9.38.43-4.21-4.26-8.84-8.18-12.61-12.8-21-25.75-46.77-46.23-73.66-65.31-12.75-9-26.63-16.47-39.3-25.6-7.73-5.57-14.16-13-21.12-19.57C659.12,789.59,657.66,787.78,656.1,786.07Z"/><path class="cls-9" d="M1659.53,2449.24c-11.22,6-23.59,8.5-36,10.58a283.89,283.89,0,0,1-54.63,4.31c-12-.33-24-.16-36-.05-28.34.26-56.42-3-84.44-6.6-25.44-3.25-50.63-8-75.2-15.58-31.8-9.84-61.88-22.86-85.64-47.22a76.64,76.64,0,0,1-13.11-89.64c7.76-14.51,19.61-25.18,33.46-33.54a133.29,133.29,0,0,1,67.21-19.66c22.72-.5,44.31,4,65.64,10.88,16.49,5.29,33,10.66,49.28,16.47a292.87,292.87,0,0,0,79.8,16.89c1.86.12,3.7.66,7.82,1.42-6.72,4.06-11.64,7.06-16.59,10-12.14,7.23-23.37,15.54-30,28.45-12.7,24.63-9.3,48.58,5.19,70.95,11.24,17.35,29.29,25.7,48.48,31.23,19.92,5.75,40.3,8.78,61.14,8,4.47-.17,9,.22,13.45.35C1659.45,2447.39,1659.49,2448.31,1659.53,2449.24Z"/><path class="cls-9" d="M1237.3,1775.4c.83-9.26,2-18.51,2.43-27.79.79-15.22,9.79-24.38,22.51-30.37,21.13-10,43-12.7,66.07-6.88,9.88,2.5,20.39,2.57,30.61,3.71,27.42,3,55.28,0,82.48,6,14.29,3.18,27.11,8.85,37.42,19.69,8.6,9.06,13.19,19.82,15.12,32,3.52,22.16-1.48,43-10.36,63-7.58,17.17-17.41,33.06-30.33,46.69-13.37,14.13-29.52,24.53-49.27,25.94-9.66.68-19.94-1.61-29.37-4.45-26.81-8.06-53.31-17.15-78-30.65a156.71,156.71,0,0,1-33.25-23.67c-17.34-16.5-23.48-37.37-25.3-60.19-.34-4.3,0-8.66,0-13Z"/><path class="cls-9" d="M2529.33,1418.07a84.05,84.05,0,0,1-33.62-5.13c-34.43-12.38-47.25-39.19-37.75-73.53a99.24,99.24,0,0,1,20.84-38.31c16.67-19.39,33.26-38.89,50.87-57.42,19.72-20.76,35.83-20.16,56.64-.51,10.12,9.54,20.93,18.42,31.94,26.95,22.12,17.14,30.56,39.82,26.83,66.86-4.14,30-22,50.46-48,64.64A132.31,132.31,0,0,1,2529.33,1418.07Z"/><path class="cls-9" d="M1154,1014.06v-4c8.09-6.92,16-14.1,24.3-20.7,36.51-29,76.17-52.55,119.74-69.34l2,.08c3.93,8.79,9.12,17.25,11.55,26.43,6.41,24.17,2.21,47-12.55,67.34-30.8,42.44-86.82,41.62-121.72,18.86C1169,1027.32,1161.72,1020.33,1154,1014.06Z"/><path class="cls-10" d="M1380.87,2626.07c65.65,0,131.33-1.48,196.93.33,119.59,3.29,239.17.45,358.74,1.71,12.76.14,25.26,2.34,36.85,7.87,16.93,8.06,24.43,23.27,28,40.4,5,24.11,8.65,48.47,8.71,73.23a106.24,106.24,0,0,0,1.27,13.88c2,14.75.07,29.36-3,43.6-3.54,16.46-16.46,26.28-32.53,25-16.89-1.34-33.8-2.39-50.7-3.6-9.95-.71-19.88-1.58-29.83-2.19-13.6-.84-27.23-1.38-40.83-2.29-15.91-1.06-31.8-2.37-47.7-3.57-1-.07-2-.25-3-.27-36.27-.7-72.55-2.3-108.81-1.79-26.53.38-53,3.39-79.54,5.48q-36.76,2.9-73.51,6.36c-23.82,2.28-47.58,5.14-71.4,7.42-12.24,1.17-24.54,1.59-36.82,2.43-16.9,1.15-33.8,2.37-50.7,3.55-2.66.19-5.32.37-8,.41-37.27.7-74.61.16-111.8,2.33-54.62,3.19-109.22.67-163.82,1.59a66.79,66.79,0,0,1-16.77-1.93c-8.33-2-12.12-7.3-12.59-15.77a50.4,50.4,0,0,1,5.86-26.83c6.4-12.38,11.16-25.63,16.15-38.69,13.45-35.15,26.64-70.39,39.94-105.59.35-.93.68-1.88,1.06-2.8,8.2-20.12,23.22-30.2,44.9-30.26,28-.07,56,0,84,0Q1321.38,2626.06,1380.87,2626.07Z"/><path class="cls-10" d="M2007.47,2627.2c-.2-21.32,7.49-39.49,22.61-53.88,13.46-12.81,28-24.51,42.54-36.18,27.23-21.9,54.73-43.47,82.18-65.09q37.26-29.36,74.67-58.51c32.6-25.3,65.15-50.68,98.05-75.59,37.18-28.13,74.71-55.79,112.11-83.63,22.16-16.49,44.3-33,66.6-49.33a132.61,132.61,0,0,1,17-10.42c18.57-9.64,37.05-7.57,54.29,2.81a301.77,301.77,0,0,1,36.48,26.09,432.56,432.56,0,0,1,34.93,32.77c10.65,11,20,23.22,26.72,37.17,17.22,35.87,11.07,67.69-14.89,96.79-14.55,16.3-32.76,28.33-50.73,40.29-51.57,34.35-103.66,67.92-155.49,101.89-46.82,30.68-93.88,61-140.21,92.39-31.14,21.1-61.51,43.37-91.62,65.92-25.55,19.15-50.42,39.23-75.22,59.36-12.9,10.47-25,21.93-37.44,33-9.53,8.46-19.85,15.72-31.61,20.76-16.33,7-33.46.54-39.24-16.2a385.75,385.75,0,0,1-12.81-47.21c-5.76-27.69-10.66-55.58-15.53-83.45C2009.15,2647.11,2008.57,2637.11,2007.47,2627.2Z"/><path class="cls-2" d="M1298,920c-43.57,16.79-83.23,40.37-119.74,69.34-8.33,6.6-16.21,13.78-24.3,20.7-8.86-8.69-10.84-19.72-9.4-31.24,5.88-47,42.78-76.9,85.17-84.18,9-1.55,18.65-.78,27.78.55A58.2,58.2,0,0,1,1298,920Z"/><polygon class="cls-7" points="885.99 1182.09 885.71 1181.76 886.03 1182.05 885.99 1182.09"/><polygon class="cls-7" points="886.03 1182.05 886.31 1182.36 886 1182.09 886.03 1182.05"/><path class="cls-2" d="M839.07,390.75c-20.33-.6-39.77-5.08-58.67-11.76-37.78-13.37-70.6-35.64-103-58.48a34.24,34.24,0,0,1-3.18-2.43c-4.3-3.86-4.67-5.75-.91-10a131.56,131.56,0,0,1,12.68-12.75c30.72-26.42,64.79-47.63,101.15-65.43,65.41-32,134.32-52.9,205.8-65.8,48.38-8.72,94.77-24.24,140.94-40.7,27.62-9.85,55.77-18.17,84.82-22.65a101.57,101.57,0,0,1,25.9-.15c14.57,1.56,23.13,10.77,25.73,25,1.7,9.31,1.15,18.37.42,27.74-1.21,15.57-.42,31.29-.77,46.94a91.09,91.09,0,0,1-1.79,16.8c-2.68,12.72-10.63,21.44-22.62,25.92a157.6,157.6,0,0,1-25,7.06C1179,258.14,1138,268.34,1098,282.43A823.38,823.38,0,0,0,957.5,346.92c-23.29,13.55-46.37,27.71-72.4,35.7a171.85,171.85,0,0,1-21.32,5.14C855.61,389.16,847.31,389.78,839.07,390.75Z"/><path class="cls-2" d="M383.32,623.83c6.31-8.23,11.47-15.08,16.75-21.83a254.75,254.75,0,0,1,54.56-52.32A206.75,206.75,0,0,1,545.85,514c30.31-4.25,60.61-8.61,90.79-13.67,26-4.35,49.68-14.73,71.49-29.56,5.45-3.71,11.3-7.28,17.5-9.31,12-4,21.35,4.82,19.14,17.26-2.13,12-8.81,21.59-16.78,30.17-23.12,24.85-46.71,49.27-69.85,74.1-22.06,23.68-43.12,48.23-56.52,78.13-6,13.35-10.66,27.29-16,40.94a76.9,76.9,0,0,1-19.33,28.77c-13.94,13-32,15.06-47.54,4.11A211.93,211.93,0,0,1,492.6,713.4c-13.78-13.5-26.14-28.48-40.26-41.59-18-16.7-35.65-34.23-59.67-42.7C390,628.16,387.63,626.3,383.32,623.83Z"/><path class="cls-2" d="M1798.71,214.72c1.63-10.12,2.33-20.49,5.07-30.3,8-28.76,35.82-37.54,56.19-33.18,17.56,3.75,34.81,9,52.25,13.32,28.45,7.09,57.25,12.74,86.46,15,24.17,1.9,48.51,2.13,72.78,2.22,20.27.08,40.55-1.53,60.82-1.54,7.5,0,15,2.29,22.49,3.82a19.44,19.44,0,0,1,6.33,2.87c13.15,8.44,13.83,19.2,1.69,29-8.54,6.89-17.79,12.95-25.94,20.24a222.4,222.4,0,0,0-23.47,24.28c-6.52,7.93-11.51,17.1-17.51,25.49-5,7-9.8,14.42-15.93,20.37-9.88,9.59-21.9,14.1-36.23,14-22.1-.23-43.65-4.4-65.4-7.22q-48.46-6.31-96.87-13.21c-12.51-1.77-25.1-3.5-37.35-6.47-12.42-3-23.94-8.44-31.35-19.77a47.28,47.28,0,0,1-5-9.68A158.51,158.51,0,0,1,1798.71,214.72Z"/></g></g></svg>