<svg xmlns="http://www.w3.org/2000/svg" viewBox="0 0 3081 2972.58"><defs><style>.cls-1{fill:#707272;}.cls-2{fill:#adb3b3;}.cls-3{fill:#909493;}.cls-4{fill:#a0a5a5;}.cls-5{fill:#cacece;}.cls-6{fill:#bebfb6;}.cls-7{fill:#bdbeb6;}.cls-8{fill:#a3a4a4;}.cls-9{fill:#a0a3a2;}.cls-10{fill:#c1c3c2;}.cls-11{fill:#818483;}</style></defs><g id="Layer_2" data-name="Layer 2"><g id="Layer_1-2" data-name="Layer 1"><path class="cls-1" d="M0,1615.46v-20l3,.33a87.34,87.34,0,0,0,.62-8.82c-.4-15.19-.94-30.37-1.44-45.56,1.64-5,3.48-10.07-2.22-13.92v-18c4.12-9.06,3.77-18.67,3.51-28.27,0-2.14.48-4.52-.29-6.36-1.26-3-2.43-1.17-3.22.64v-4c3.39,1.67,3.63,1.69,3.89-1.69.79-10.1,1.36-20.21,2-30.32l.16-4c1-13.61,1.73-27.25,3.19-40.81,2.68-24.82,5.77-49.6,8.78-74.38,3.61-29.74,6.84-59.53,11.1-89.17C35.77,1185.05,42.91,1139,50.25,1093A1066.43,1066.43,0,0,1,83.84,947.23c12.38-40.26,28.05-79.16,48.08-116,26.59-48.93,58.21-94.78,91.94-139.05C269.71,632,318.8,574.46,369.6,518.43c51.46-56.75,103.91-112.61,155-169.65,27.44-30.6,56.49-59.25,88.65-84.81,7.82-6.21,15.49-12.64,22.92-19.31a405,405,0,0,1,68.68-49.61c24.52-14.11,47.75-30.62,72.88-43.49,42.32-21.67,85.13-42.36,129.85-59,71.72-26.76,143.22-53.93,217.91-71.67,37.61-8.94,75.16-17.69,114-19l18-.34L1265.59,0h24c1.54.54,3.06,1.53,4.61,1.56,15.14.21,30.28.27,45.43.37l2,0,36.06,1.71,6,.29,32,1.88,4,.17,30.09,1.64,8,.31,35.88,1.7,6,.44c1.91.46,3.81,1.3,5.73,1.33,22,.23,44.08.35,66.12.5,4.31.2,8.68,0,12.93.67,35.77,5.39,71.7,10,107.25,16.63,61,11.38,121.8,24.14,182.72,36.11,13.6,2.67,27.38,4.45,41.08,6.63l12.1,1.66,2,.2,18,1.78,5.87.38,18.07,1.74,3.93.27,18.09,1.67,3.92.31,18.1,1.57,5.87.46,18.08,1.69c14.08,1.44,28.18,2.73,42.23,4.36,8.8,1,17.52,2.62,26.3,3.8,6.18.84,12.4,1.44,18.61,2.1,11.82,1.24,23.68,2.2,35.45,3.77,6.87.91,13.55,3.3,20.42,4.12,38.23,4.57,75,15,111.09,27.87,82.23,29.28,162,64.59,241.48,100.46,23.48,10.6,43.73,25.12,62.53,42.24,48.38,44,92.69,92,135.39,141.43,89.36,103.48,174.26,210.38,247.46,326.13,6.22,9.83,12.19,19.87,17.61,30.17,14.45,27.39,28.57,55,42.75,82.49,2,3.83,4.1,7.72,5.24,11.84,4.53,16.35,8.69,32.81,13,49.23.05,2,.1,4,.16,6,.19,7.65.3,15.3.58,22.94,1.64,43.85,3.38,87.69,5,131.54,1.12,31.23,1.94,62.48,3.06,93.71,1.57,43.85,3.32,87.69,4.94,131.54q2.13,57.79,4.15,115.61a49,49,0,0,0,.9,5.87l3.26-1.35v20c-5.9-.77-3.08,3.79-3.06,5.76.18,18.73.68,37.46,1.08,56.19l.08,104.07.12,16c-1.06,30.4-5.13,60.3-14.44,89.39-11.67,36.45-21.59,73.55-35,109.36q-84.63,226.38-171,452.12c-21.88,57.51-41,116.23-71.55,170.12-4.8,8.46-9.56,16.64-16.66,23.42-16.33,15.64-30.74,33.16-49.17,46.74q-225.33,165.95-450.31,332.34c-43.93,32.47-87.42,65.56-136,91-3,1.54-5.71,3.54-8.79,4.72-24.08,9.25-48.91,15.15-74.78,16.26l-22.34,1.69.22.35-53.73.29c-9-.12-18-.48-26.91-.28-6.58.14-13.14,1-19.71,1.56l-15.63.28q-50.73.18-101.45.43c-1.59,0-3.17.83-4.75,1.27l.24.36-75.74.36c-11.58-.07-23.17-.29-34.76-.13-4.56.06-9.12,1-13.68,1.49l.23.35-75.57.48c-9-.18-17.94-.61-26.9-.44-6.58.12-13.15,1-19.72,1.59l.23.35-75.63.43c-9-.16-17.93-.56-26.88-.38-6.57.14-13.13,1-19.69,1.58l.23.36-75.66.4c-8.31-.15-16.63-.55-24.93-.35-7.25.17-14.49,1-21.73,1.58l-27.48.36c-4-.18-8-.54-12-.51q-43.42.32-86.87.82c-4,.05-7.9.76-11.85,1.16l-97.16.11-16.67-1.48c-15-2.88-30.45-4.4-44.92-9-24.39-7.71-48.52-16.52-72.14-26.34-76.65-31.88-149.82-70.65-222.17-111.29-72.19-40.54-140.92-86.14-207-135.81-26.86-20.2-53.18-41.43-77.7-64.37-43.76-40.94-86.51-82.94-122.92-131-18.32-24.19-36.84-48-51.58-74.66-8.39-15.15-17.67-29.79-26.5-44.69-12.89-21.77-26-43.36-35.86-66.81-14.86-35.28-32-69.65-45.62-105.39-20-52.55-38.43-105.74-56.24-159.09-28.68-85.87-56-172.19-73.79-261.14-5.43-27.07-10.88-54.16-15.06-81.44-4.08-26.64-6.53-53.53-9.75-80.3a47.58,47.58,0,0,0-1.41-5.68ZM214,821.77q1-2,2-4h0c-.68,1.32-1.37,2.63-2.06,3.95l-.25.34ZM208,831.85c.67-1.35,1.33-2.71,2-4.06l.23-.38-.38.23q-1.05,2-2.09,4l-.21.46ZM189.9,863.66l-4.05,6c-15.72,29.85-27.63,61.26-37.76,93.38-16.78,53.16-27.88,107.62-36,162.66-9.36,63.19-17.78,126.51-26.5,189.8-8.26,60-12.87,120.41-15.16,180.94-1.57,41.61.25,83.22,4.09,124.66,4.67,50.43,13.4,100.24,24.82,149.59,19.1,82.5,44.64,163.08,71.63,243.25.85,2.5,2.12,4.86,3.2,7.29,1.09,3.84,2,7.75,3.31,11.51,10.84,30.79,21.38,61.69,32.74,92.28,24.83,66.91,53.21,132.2,88.54,194.38A854.58,854.58,0,0,0,424.3,2488.05c21.36,22.36,44.37,43.2,67.26,64,46.15,42,96.34,78.87,148.13,113.58q71.84,48.16,147.75,89.63c64.9,35.63,131.74,67.07,200,95.57,44.08,18.39,89.65,27.29,137.28,26.07,19-.48,37.93-1.28,56.89-1.64,40.61-.78,81.23-1.36,121.85-2q62.41-1,124.85-2l118.85-2q62.91-1,125.84-2c39.29-.64,78.57-1.37,117.85-1.95,52.95-.78,105.89-1.31,158.83-2.25,21.29-.38,42.63-.81,63.84-2.53,43.74-3.54,82.37-21,117.54-46.33q66-47.67,131.49-96.12,140.83-103.67,281.49-207.57c37.22-27.52,74.37-55.16,111-83.49a184,184,0,0,0,44.81-50.62c15.26-25.24,25.54-52.7,35.85-80.14,4.09-10.89,7.64-22,11.44-33l-.09-.09a51.57,51.57,0,0,1-26.81-6.81c-6.66-3.77-13.43-7.59-19.32-12.4-20.63-16.83-41.21-33.76-61.23-51.32-19.17-16.81-40.37-29.13-65.43-34.74a275.74,275.74,0,0,0-55.45-6.49c-9.25-.16-18.52.83-27.79,1.3-20.17,2.18-40.37,4.19-60.53,6.58-41.64,4.94-83.24,10.21-124.89,15.08a381.82,381.82,0,0,1-38.77,3c-11.31.15-17.91-5.65-21-16.41a89.79,89.79,0,0,1-2.55-12.72c-2.35-16.89-11-29.67-24.94-39.18a116.71,116.71,0,0,0-42.17-17.55c-30.63-6.4-61.36-12.29-92.1-18.11q-98.61-18.66-197.28-37.07c-2.64-.5-5.21-1.4-7.82-2.12a14.7,14.7,0,0,1,6.83-3.08q141.39-28.87,282.8-57.7,47.46-9.63,95-18.65c22-4.15,39.92,2.82,53.71,20.67a114.31,114.31,0,0,0,14.28,15.31c9.14,8.18,19.68,9.26,30.63,3.93,4.46-2.18,8.53-5.16,12.76-7.81,13-8.13,25.65-16.79,39-24.33,34.25-19.4,70.52-33.52,110.16-35.93,18.83-1.15,37.85.79,56.79,1.34l2.44,1,3.48-.09c20,3.18,40.13,6.21,60.15,9.58q98,16.5,196,33.19c15,2.54,15,2.41,20.23-11.56,22.1-58.56,44.57-117,66.24-175.72,10.71-29,20.54-58.41,29.76-88,9.36-30,13.28-61.14,15.5-92.38,1.44-20.23,2.22-40.57,1.9-60.84-.47-29.59-2.2-59.16-3.36-88.74q-1-24.93-1.86-49.87c-1.4-40.23-2.88-80.46-4.12-120.7-.94-30.6-1.57-61.21-2.35-91.82,0-1-.09-2-.13-3q-1.82-43.37-3.64-86.74c-.77-17.61-1.65-35.22-2.48-52.83.14-3.32.47-6.65.37-10-.72-24.61-1.35-49.23-2.37-73.84-.58-13.94-1-28-3-41.76-3.61-25-14-47.85-24.78-70.39-17.15-35.8-37.64-69.71-59.29-102.91-62.87-96.38-133.58-186.83-208.73-273.83-30-34.75-61.4-68.32-92.56-102.05-11.05-12-23.38-22.74-34.91-34.27-4-4-7.67-4.74-12.19-1.18-2.87,2.26-6.23,4-8.84,6.49-14.59,14.08-29.42,27.94-43.41,42.61-18.36,19.26-35.58,39.62-54.12,58.7a139.67,139.67,0,0,1-48.69,32.5c-11.73,4.7-23.53,9.24-35.3,13.85-10.78,4-22,7.29-32.24,12.38s-19.54,12-29.25,18.07c-13.75,10.87-21.13,25.29-24.16,42.34-2.44,13.71-.85,27.24,1.26,40.74,3.13,20.06,7.3,40,9.67,60.14,2.7,22.93-3.43,43.6-19.9,60.54q-6.27,6.43-12.74,12.7-86.54,83.76-173.12,167.49-51.36,49.7-102.74,99.36a78.6,78.6,0,0,1-6.38,5.05,23.43,23.43,0,0,1,1.11-10.6c7.56-24.16,15-48.36,22.81-72.45,22.28-68.89,47.87-136.42,82.66-200.16,7.5-13.74,14.62-27.69,21.74-41.64,19.72-38.67,26.43-80.1,25.17-123-.61-21-2.31-41.9-3.67-62.83-.9-13.95-2.05-27.87-3.09-41.81,0-3,0-5.91,0-8.87a401,401,0,0,1,5.15-66.84c6.4-22.94,16.45-44.23,28.49-64.71,19.95-33.93,40.54-67.4,66-97.53,9.05-10.7,18.72-20.83,31.4-27.45,1.81-.95,3.47-2.18,6.09-3.84-3.41-1.25-5.52-2.25-7.74-2.81-26.14-6.59-52.08-14.31-78.51-19.42-70.41-13.6-142-17.54-213.23-24.34-25.5-2.43-51.13-4.66-76.28-9.27-57.33-10.49-114.31-22.86-171.6-33.55q-54-10.08-108.46-17.29c-19.37-2.54-39.15-1.87-58.73-2.8-46.88-2.23-93.74-4.87-140.64-6.71-34.6-1.36-69.23-1.94-103.86-2.46-29-.43-58,1.49-86.42,7.59a1568,1568,0,0,0-247.38,75.1c-83.62,33-163.67,72.91-237.14,125.21-36.47,25.95-70.63,54.64-101,87.54q-58,62.75-115.19,126.19-62.31,68.94-124.1,138.33c-1.69,1.89-3,4.08-4.79,6.44,1.53.7,2.37,1.42,3.22,1.42,13.4,0,24.54,5.85,34.53,13.94a226.85,226.85,0,0,1,18.87,17.83c9.78,10,19.23,20.31,28.93,30.39,17.53,18.24,35.33,36.22,52.66,54.65,12.07,12.83,23.55,26.22,35.3,39.37,6.37,7.64,12.32,15.7,19.21,22.84,14.76,15.3,30,30.13,45.06,45.14,16.6,16,35.27,29.22,55.29,40.58,17.16,9.75,35.57,16.45,54.36,22.19,17.08,5.22,29.81,15.69,38.34,31.33,4.78,8.75,9.41,17.58,14.34,26.25,2.28,4,5.1,7.68,7.67,11.5l.69,7.94c-2.12,2.43-4.73,4.58-6.29,7.33-8,14-15.6,28.29-23.59,42.33-2.57,4.52-5.9,8.59-8.88,12.87-11.89-4.32-23.74-8.73-35.66-12.93-24.17-8.52-48.54-16.5-72.53-25.48-29.23-10.94-56-26.29-79.18-47.46q-9.21-8.4-18.44-16.78C499.63,948,484,934.14,466,923.23c-7.61-4.61-16-8-24-12-3.53-1.84-6.95-3.9-10.59-5.48C380,883.4,326.27,872.66,270.3,871.9c-26.61-.37-53.21-1.75-79.82-2.68l-.51-5.5,2-3.93,6-12,2-2q2.06-4,4.13-7.94l.17-.51-.51.19q-2,4.05-4,8.09l-1.94,2-6,12Z"/><path class="cls-2" d="M2586.82,1928.83l-3.48.09-2.44-1c-18.94-.55-38-2.49-56.79-1.34-39.64,2.41-75.91,16.53-110.16,35.93-13.31,7.54-26,16.2-39,24.33-4.23,2.65-8.3,5.63-12.76,7.81-10.95,5.33-21.49,4.25-30.63-3.93a114.31,114.31,0,0,1-14.28-15.31c-13.79-17.85-31.71-24.82-53.71-20.67q-47.58,9-95,18.65-141.42,28.74-282.8,57.7a14.7,14.7,0,0,0-6.83,3.08c2.61.72,5.18,1.62,7.82,2.12q98.64,18.56,197.28,37.07c30.74,5.82,61.47,11.71,92.1,18.11a116.71,116.71,0,0,1,42.17,17.55c14,9.51,22.59,22.29,24.94,39.18a89.79,89.79,0,0,0,2.55,12.72c3.14,10.76,9.74,16.56,21,16.41a381.82,381.82,0,0,0,38.77-3c41.65-4.87,83.25-10.14,124.89-15.08,20.16-2.39,40.36-4.4,60.53-6.57l8.74,2c-1.47,3.61-2.4,6.06-3.47,8.45-11.35,25.3-29.7,45.19-51.13,61.79-39,30.16-78.83,59.17-118.46,88.47-38,28.12-76.27,56-114.37,84q-92.16,67.82-184.21,135.76c-34.59,25.66-72.57,41.87-116,43.63q-34.92,1.41-69.87,2.07c-44,.84-87.9,1.4-131.84,2.12q-56.92.91-113.86,1.92-67.9,1.08-135.83,2.09c-36,.59-71.91,1.38-107.86,1.88-56.94.8-113.88,1.81-170.82,2a220.2,220.2,0,0,1-70.71-11.42c-34.19-11.44-67-26.12-99.56-41.5-80.22-38-157.39-81.33-230.29-132.14-61.09-42.58-118.79-89-169-144.42-21.28-23.5-41.37-47.85-59.29-74q-11.6-16.89-22.77-34.05c-4.49-6.93-8.51-14.17-12.74-21.28-.79-3.88-1.08-7.94-2.45-11.59-15.5-41.46-32.07-82.54-46.54-124.36-15.35-44.34-29.49-89.13-42.81-134.13-21.29-71.89-39.07-144.62-44.2-219.78-2.17-31.77-4.71-63.47-2.44-95.53,1.83-25.82,1.91-51.8,4.52-77.62,1.67-16.53,2.76-33.13,4.79-49.62,3.48-28.38,7.32-56.73,11.32-85,7.27-51.39,14-102.87,24.68-153.71,13.9-66,35.06-129.07,71.76-186.23,6.09-9.5,11.7-19.3,17.53-29q9.23,8.4,18.44,16.78c23.19,21.17,49.95,36.52,79.18,47.46,24,9,48.36,17,72.53,25.48,11.92,4.2,23.77,8.61,35.66,12.93l.18,2c-1.67,4.34-3,8.83-5,13a693.14,693.14,0,0,0-51.9,149.79c-7.33,32.93-11.15,66.32-12.79,99.9-.84,17.22,1.11,34.56,1.42,51.85.39,22.16,4.57,43.72,10.39,64.94,12.32,44.93,34.87,83.42,72.89,111.62,33.62,24.94,71.22,34.2,112.34,25.94,29.56-6,54.35-21.66,75.82-42.3,29.86-28.69,50.53-63.38,64-102.39,12.26-35.42,18.74-72.16,24.63-109,6-37.48,11.24-75,20.35-112,18-73,54.75-135.38,105.3-190.2,5.37-5.82,11.76-10.69,17.68-16,6.82,8.83,15.51,15.44,25,21.21,22.16,13.54,46.57,16.56,71.24,11.77,29.22-5.69,49.19-24.07,59.7-52,8.77-23.32,5.86-45.8-6.78-67-1.4-2.35-4.35-3.78-6.58-5.63,0-.6.08-1.21.1-1.82,3.24-.68,6.53-1.19,9.71-2.06,19.91-5.44,39.72-11.22,59.7-16.37,14.18-3.66,28.67-6.13,42.84-9.83,18.77-4.91,37.07-11.23,52.72-23.23,19.82-15.2,30.53-35.07,28.67-60.43-1.14-15.63-7.34-29.66-16.8-42.14-19.81-26.14-45.44-45-75.4-57.54-23-9.65-46.46-18.45-70.19-26.14-48-15.58-97.2-22.31-147.76-16.45-45.8,5.31-87.93,20.88-127.43,44.19l-4,2c-2.55-4.18-4.45-9-7.77-12.43-6.67-6.92-14.12-13.09-21.24-19.58-17.58-16-37-29.75-58.68-39.12a275.24,275.24,0,0,0-108.62-22.74c-13.26-.06-26.52,1.05-39.78,1.62.47-5.91,4.66-9.4,8.63-12.93,10.43-9.29,20.57-19,31.52-27.59,18-14.21,36.13-28.4,55-41.41C942.27,514.49,978.44,496,1015,478.1s74.24-33,112.56-46.5c44.61-15.77,90-29,135.86-40.59,23.95-6.07,48.26-10.69,72.9-10.85,32.92-.22,65.87-1.78,98.8,1.45,23.14,2.27,46.43,3.17,69.67,4.08,27.25,1.06,54.54,1.25,81.8,2.27,12.6.48,25.34,1.06,37.71,3.27,46.85,8.4,93.59,17.42,140.35,26.32,43.47,8.27,86.62,18.23,131,20.84,26.52,1.57,53,4.73,79.41,7.44q33.24,3.42,66.4,7.5c15.51,1.89,31,4.24,46.44,6.39,1.05,13.94,2.2,27.86,3.1,41.81,1.36,20.93,3.06,41.87,3.67,62.83,1.26,42.91-5.45,84.34-25.17,123-7.12,14-14.24,27.9-21.74,41.64-34.79,63.74-60.38,131.27-82.66,200.16-7.8,24.09-15.25,48.29-22.81,72.45a23.43,23.43,0,0,0-1.11,10.6,78.6,78.6,0,0,0,6.38-5.05q51.42-49.63,102.74-99.36,86.57-83.74,173.12-167.49,6.46-6.26,12.74-12.7c16.47-16.94,22.6-37.61,19.9-60.54-2.37-20.15-6.54-40.08-9.67-60.14-2.11-13.5-3.7-27-1.26-40.74,3-17.05,10.41-31.47,24.16-42.34,2.79,2.16,5.28,4.95,8.41,6.38,19.06,8.7,38.37,16.89,57.41,25.66,13.28,6.12,26.56,12.3,37.64,22.31,20.95,18.94,42.4,37.24,61,58.75,24.34,28.16,50.39,54.84,74.58,83.12q39.87,46.6,77.6,95c30,38.27,58.6,77.54,85.15,118.3,2.1,3.22,5.41,5.66,8.17,8.46,10.78,18,17.07,37.46,17.86,58.54.19,5.33,0,10.67.27,16,1.2,25.24,2.67,50.47,3.68,75.72,1,25.93,1.64,51.88,2.44,77.82.66,24.27,1.14,48.55,2,72.82.95,25.58,2.54,51.15,3.42,76.74,1,29.93,1.58,59.88,2.34,89.81,0,1,.11,2,.15,3,1.17,28.24,2.69,56.48,3.37,84.74.31,12.93-.65,25.94-1.7,38.86-1.41,17.55-2.72,35.17-5.4,52.55-5,32.42-15.84,63.26-27.38,93.81Q2633.77,1805.62,2586.82,1928.83Zm-921.46,518.48,11.75-1.82c26.63,0,53.16-.76,79.7-3.89a797.32,797.32,0,0,0,145.29-31,719.25,719.25,0,0,0,143.42-62.68c25.73-14.78,50.93-30.37,71-52.84,15.74-17.63,28.63-37,33.32-60.52,5-25.1.25-47.7-19.71-65.49-17.22-15.35-38.18-22.63-60.19-27.42-27.68-6-52.8.93-76,16-7.53,4.88-14.61,10.46-21.81,15.84-17.84,13.36-35.22,27.36-53.51,40.07-45.92,31.92-97.3,48.6-152.83,53.5-34.44,3-68.89,6.24-103.22,10.32a316.9,316.9,0,0,0-69,15.87l-9.78,2c-30.44,1.72-59.59-4.38-88.17-14.28-19.2-6.64-38.44-13.17-57.81-19.26-32-10.05-64.24-14.66-97.18-4.26-23.71,7.5-44.17,19.57-59.63,39.65-18,23.45-19.22,64.38,2.61,91.23,14.45,17.77,32.88,30,53.33,39.31a301.07,301.07,0,0,0,75.17,23.4c19,3.22,38.07,6.54,57.24,8.55,24.13,2.52,48.37,5,72.58,5.2,25.55.17,51.2-1.68,76.66-4.11C1634.75,2459.14,1650.81,2455.41,1665.36,2447.31Zm-571.62-233.37c9.93-.85,19.86-1.77,29.8-2.51a216,216,0,0,0,69.52-17.2c30.14-13,55-32.73,72.17-60.9,19.5-32,28.38-67.14,28.5-104.7.07-21.37-8.51-38.8-22.13-54.11-18.16-20.43-42-32.44-66.66-43-32.93-14.08-67.52-23-102.46-30-50.27-10.14-100.78-19.11-151.23-28.36-32.07-5.88-64.36-5.46-96.45-.79-25.43,3.69-50.28,10.32-73.82,20.95-40,18.05-73,43.74-91.66,84.89-15.51,34.27-18.31,69.33-5.13,104.88,9,24.33,24.45,43.1,48.88,54,21,9.4,43.21,13.34,65.71,16.09a689.78,689.78,0,0,1,101.75,20.56c32.72,9.13,65.44,18.35,98.37,26.65C1030,2208.26,1061.51,2213.24,1093.74,2213.94ZM2398.52,793.51c-18-.83-39.11,5.25-59.59,15.15-22,10.63-40.31,25.61-56.92,43.18-34.27,36.25-51.76,79.46-52.49,129.06-.34,22.76,4.68,45,13.54,66.1,5.67,13.5,11.91,26.76,17.64,40.23,9.83,23.1,15.38,47.44,20.69,71.87,4.6,21.17,10,42.13,20.35,61.41,16.34,30.43,42.18,47.47,76.22,48.67,49.48,1.76,88.91-19,117.69-59.34,21.74-30.46,33-65.18,39.37-101.59,5.66-32.11,8.6-64.5,10.79-97.08,1.33-19.78.54-39.26-1.13-58.69a201.75,201.75,0,0,0-43.45-109.86C2476.32,811.15,2444.51,792.94,2398.52,793.51Zm-681,55.06c13.57-1.23,27.25-1.7,40.67-3.86a232.66,232.66,0,0,0,77.85-27.3c26.12-14.74,48.52-33.79,66.31-58.12,22-30,24.42-71.53,1.2-102.48a125.65,125.65,0,0,0-40.32-35.13c-42.78-23.62-88.39-32.09-136.88-26.21-27.84,3.38-54.19,11.2-78,26-45.17,28.18-75.8,66.74-81.82,121.22-2.3,20.87,3.25,40.31,17.43,56.56a103.74,103.74,0,0,0,33.2,25.19A236.9,236.9,0,0,0,1717.48,848.57Zm-478.57,926.66.72.06c0,5-.31,10,.06,15,2,27,11.08,50.32,34.15,66.87,35,25.12,74.78,38.93,115.87,49.34,13,3.3,26.36.88,38.79-5.47,16.81-8.58,29.23-21.66,39.89-36.82,18.74-26.66,29.68-55.77,26.95-88.79-1.29-15.69-7.37-29.19-19.95-39.85-11-9.29-23.82-13.09-37.21-15.74-21-4.14-42.24-5-63.55-4.35-17.43.52-34.41-1.93-51.35-6-22.43-5.35-43.88-.9-63.46,10.36-9.7,5.57-18.18,13.48-18.54,26.62C1241,1756.07,1239.74,1765.64,1238.91,1775.23Zm1293.36-355.58c4.49-.6,9.76-1.34,15-2,30.31-3.76,56.75-14.76,78.53-37.34,18.85-19.55,27.35-55,14.74-83.7a59.27,59.27,0,0,0-21.24-25.86c-8.46-5.78-15.84-13.14-23.76-19.73-6.9-5.74-13.55-11.87-21-16.84-3.91-2.62-9.15-3.93-13.93-4.43-14.62-1.5-24.44,7.61-33.31,17.18-14.23,15.37-28,31.21-41.57,47.15-14.64,17.16-27.16,35.52-29.47,58.91-2,20.72,4.06,38,21.23,50.74C2493.6,1415.59,2512.39,1418,2532.27,1419.65Z"/><path class="cls-3" d="M517.73,2130.08c4.23,7.1,8.25,14.34,12.74,21.27q11.13,17.19,22.77,34.05c17.92,26.13,38,50.48,59.29,74,50.18,55.4,107.88,101.84,169,144.42,72.9,50.81,150.07,94.17,230.29,132.14,32.51,15.38,65.37,30.06,99.56,41.5a220.2,220.2,0,0,0,70.71,11.42c56.94-.16,113.88-1.17,170.82-2,35.95-.5,71.9-1.29,107.86-1.88q67.9-1.1,135.83-2.09,56.94-.91,113.86-1.92c43.94-.72,87.89-1.28,131.84-2.12q34.93-.66,69.87-2.07c43.43-1.76,81.41-18,116-43.63q91.9-68.16,184.21-135.76c38.1-28,76.34-55.87,114.37-84,39.63-29.3,79.49-58.31,118.46-88.47,21.43-16.6,39.78-36.49,51.13-61.79,1.07-2.39,2-4.84,3.47-8.45l-8.74-2c9.27-.48,18.54-1.47,27.79-1.31a275.74,275.74,0,0,1,55.45,6.49c25.06,5.61,46.26,17.93,65.43,34.74,20,17.56,40.6,34.49,61.23,51.32,5.89,4.81,12.66,8.63,19.32,12.4a51.57,51.57,0,0,0,26.81,6.81l.09.09c-3.8,11-7.35,22.08-11.44,33-10.31,27.44-20.59,54.9-35.85,80.14a184,184,0,0,1-44.81,50.62c-36.6,28.33-73.75,56-111,83.49q-140.61,104-281.49,207.57-65.58,48.27-131.49,96.12c-35.17,25.38-73.8,42.79-117.54,46.33-21.21,1.72-42.55,2.15-63.84,2.53-52.94.94-105.88,1.47-158.83,2.25-39.28.58-78.56,1.31-117.85,1.95q-62.92,1-125.84,2l-118.85,2q-62.43,1-124.85,2c-40.62.66-81.24,1.24-121.85,2-19,.36-37.92,1.16-56.89,1.64-47.63,1.22-93.2-7.68-137.28-26.07-68.31-28.5-135.15-59.94-200-95.57q-75.83-41.64-147.75-89.63c-51.79-34.71-102-71.56-148.13-113.58-22.89-20.83-45.9-41.67-67.26-64a854.58,854.58,0,0,1-125.57-168.66C263.4,2257.21,235,2191.92,210.19,2125c-11.36-30.59-21.9-61.49-32.74-92.28-1.32-3.76-2.22-7.67-3.31-11.51,9.6-.62,19.23-1,28.8-1.9,15.18-1.5,30.46-2.63,45.47-5.25,65.89-11.49,126.6-37.53,185.94-67.26,1.39,2.63,3.13,5.13,4.13,7.91,14.81,41.06,31,81.58,50,120.88C497.48,2094.13,507.94,2111.94,517.73,2130.08Zm675.89,717c0,.28,0,.56,0,.84,47.27-.94,94.54-1.8,141.8-2.88,20.62-.47,41.23-1.39,61.84-2.12,1,0,2-.2,3-.27l47.74-3.56c11.61-.85,23.24-1.44,34.82-2.58,23.17-2.28,46.29-5,69.46-7.26,24.83-2.36,49.67-4.61,74.55-6.35,23.54-1.65,47.14-3.55,70.71-3.6,41.6-.09,83.21,1,124.81,1.93,12.29.28,24.56,1.58,36.83,2.48,14.92,1.09,29.83,2.31,44.75,3.36,12.6.89,25.21,1.76,37.83,2.38,14,.69,27.91,1.13,41.87,1.59,6,.19,10.85-2.31,15.22-6.37,9.25-8.59,12.56-19.59,12.4-31.6-.3-22.28-.38-44.62-2.12-66.81a381,381,0,0,0-8-53.23c-6.47-29-24.9-41.21-52.56-43.56-20.53-1.75-41.22-2.16-61.83-2.18q-330.34-.26-660.69-.19c-4,0-8.1.49-12-.22-14-2.57-27.8-1.37-41.75.24-15.73,1.82-28.17,8.09-34.33,23.44-10.91,27.18-21.6,54.46-32.34,81.71-10,25.38-17.67,51.69-30.76,75.85a38,38,0,0,0-4.48,16.25c-.5,15.8,6.26,21.18,18.32,22.46a94.81,94.81,0,0,0,10,.24Q1146.13,2847.06,1193.62,2847ZM2685.83,2333c-.8-6.58-1-13.31-2.52-19.7-5.11-20.94-16.37-38.63-31.19-53.86q-19.48-20-40.59-38.43c-12-10.49-25-19.94-39.78-26.49-16.62-7.33-33-7.33-49.08,1.15a137.32,137.32,0,0,0-17.67,11.28c-58,43.08-116.35,85.78-173.83,129.57-63.82,48.63-126.93,98.2-190.21,147.54-33.34,26-66.64,52-99.46,78.7-14.65,11.91-26.21,26.59-30.45,45.74-2.94,13.23-1.64,26.4,0,39.7a852.24,852.24,0,0,0,26.21,130.12,62.59,62.59,0,0,0,6.26,14.62c7.21,12.14,17,15.94,30.56,12.41,12.58-3.27,23-10.53,32.63-18.77,20.77-17.69,40.89-36.16,62-53.37,47.8-38.91,97.21-75.77,148.53-109.88,73-48.49,146.53-96.07,219.8-144.08,25.63-16.8,51.33-33.49,76.67-50.7,17.06-11.59,34.11-23.33,48-38.92C2676.14,2373.46,2686.26,2355.59,2685.83,2333Z"/><path class="cls-4" d="M434.35,1946.81c-59.34,29.73-120,55.77-185.94,67.26-15,2.62-30.29,3.75-45.47,5.25-9.57.94-19.2,1.28-28.8,1.9-1.08-2.43-2.35-4.79-3.2-7.29-27-80.17-52.53-160.75-71.63-243.25-11.42-49.35-20.15-99.16-24.82-149.59-3.84-41.44-5.66-83-4.09-124.66,2.29-60.53,6.9-120.9,15.16-180.94,8.72-63.29,17.14-126.61,26.5-189.8,8.15-55,19.25-109.5,36-162.66,10.13-32.12,22-63.53,37.76-93.38l4.63-.43c26.61.93,53.21,2.31,79.82,2.68,56,.76,109.74,11.5,161.1,33.9,3.64,1.58,7.06,3.64,10.59,5.48-1.5,3.32-2.81,6.73-4.52,9.94-5.15,9.69-10.92,19.09-15.62,29-21.53,45.38-36.08,93.11-45.73,142.25-6.86,34.92-12.42,70.11-17.81,105.3-4.79,31.22-8.75,62.59-12.7,93.94q-4.68,37.1-8.39,74.33c-2.14,21.82-3.77,43.7-5.23,65.58-1,14.59-1.33,29.23-1.77,43.85-.17,5.31.11,10.64.37,16,.29,6,.83,11.93,1.21,17.9,1.51,23.55,2.12,47.2,4.7,70.62,4.19,38.07,11.7,75.62,20.71,112.85,19,78.39,43.84,155,70.37,231.08C430.21,1931.38,432.11,1939.15,434.35,1946.81Z"/><path class="cls-5" d="M1155,1013.29c-5.92,5.31-12.31,10.18-17.68,16-50.55,54.82-87.32,117.23-105.3,190.2-9.11,37-14.35,74.52-20.35,112-5.89,36.85-12.37,73.59-24.63,109-13.49,39-34.16,73.7-64,102.39-21.47,20.64-46.26,36.35-75.82,42.3-41.12,8.26-78.72-1-112.34-25.94-38-28.2-60.57-66.69-72.89-111.62-5.82-21.22-10-42.78-10.39-64.94-.31-17.29-2.26-34.63-1.42-51.85,1.64-33.58,5.46-67,12.79-99.9a693.14,693.14,0,0,1,51.9-149.79c2-4.18,3.38-8.67,5-13,6.86,2.31,14,4,20.54,7,33.66,15.79,64,36.86,92.45,60.56,13.8,11.48,27.1,23.57,40.71,35.29,1.7,1.47,3.91,2.34,6.43,3.82,0-1.88.15-2.32,0-2.52q-4.66-5.82-9.39-11.59c-38.84-47.06-74.19-96.56-105-149.25-1.75-3-4.71-5.26-7.11-7.87l-.69-7.94c3-2.88,6.61-5.36,9-8.71,11.43-16.3,22.39-32.92,33.8-49.23,4-5.68,8.72-10.79,13.12-16.16,7.45,7.13,15,14.17,22.34,21.41a243.94,243.94,0,0,0,81.25,53.41c30,12.06,61.39,16.77,93.13,12.48,41.73-5.63,76-25.85,100.69-60.55,15-21.14,23.25-44.75,22.63-71.1-.37-15.84-3.79-31.07-8.6-46-12.22-37.92-32.54-71.35-57.25-102.33-4.94-6.19-9.45-12.73-14.16-19.11,39.5-23.31,81.63-38.88,127.43-44.19,50.56-5.86,99.73.87,147.76,16.45,23.73,7.69,47.18,16.49,70.19,26.14,30,12.56,55.59,31.4,75.4,57.54,9.46,12.48,15.66,26.51,16.8,42.14,1.86,25.36-8.85,45.23-28.67,60.43-15.65,12-33.95,18.32-52.72,23.23-14.17,3.7-28.66,6.17-42.84,9.83-20,5.15-39.79,10.93-59.7,16.37-3.18.87-6.47,1.38-9.71,2.06-1.86-2.72-3.26-6-5.67-8.07-14.46-12.59-31.89-18.84-50.57-17.52-37.66,2.66-67,20.5-85.53,53.82-8.67,15.61-13.28,32.68-7.85,50.85,1.34,4.5,2.84,9,7.86,10.84ZM895.69,1191.66l-2-2-4-4,.1-.09,4,4,2,2Z"/><path class="cls-4" d="M523.5,795.83c-11.75-13.15-23.23-26.54-35.3-39.37-17.33-18.43-35.13-36.41-52.66-54.65-9.7-10.08-19.15-20.39-28.93-30.39a226.85,226.85,0,0,0-18.87-17.83c-10-8.09-21.13-13.94-34.53-13.94-.85,0-1.69-.72-3.22-1.42,1.74-2.36,3.1-4.55,4.79-6.44q62-69.21,124.1-138.33,57.3-63.36,115.19-126.19c30.4-32.9,64.56-61.59,101-87.54,73.47-52.3,153.52-92.17,237.14-125.21a1568,1568,0,0,1,247.38-75.1c28.43-6.1,57.38-8,86.42-7.59,34.63.52,69.26,1.1,103.86,2.46,46.9,1.84,93.76,4.48,140.64,6.71,19.58.93,39.36.26,58.73,2.8q54.43,7.13,108.46,17.29c57.29,10.69,114.27,23.06,171.6,33.55,25.15,4.61,50.78,6.84,76.28,9.27,71.24,6.8,142.82,10.74,213.23,24.34,26.43,5.11,52.37,12.83,78.51,19.42,2.22.56,4.33,1.56,7.74,2.81-2.62,1.66-4.28,2.89-6.09,3.84-12.68,6.62-22.35,16.75-31.4,27.45-25.49,30.13-46.08,63.6-66,97.53-12,20.48-22.09,41.77-28.49,64.7-3.9-.82-7.83-1.52-11.69-2.5-12.91-3.25-25.72-6.95-38.72-9.86-31.57-7.06-63.6-11.09-95.79-14-32.8-3-65.53-6.91-98.37-9.27a693.59,693.59,0,0,1-84-11.71c-46.09-9.05-92.07-18.66-138.21-27.44-29.75-5.67-59.58-11.23-90-11.48-9.29-.07-18.59.1-27.88-.18-12-.36-23.92-1.06-35.88-1.63-17.29-.83-34.57-1.56-51.85-2.54-17.6-1-35.17-2.83-52.77-3.27-23.65-.59-47.32-.3-71-.19a308.25,308.25,0,0,0-69.24,8.48,1458,1458,0,0,0-150.55,44,1118.52,1118.52,0,0,0-127,53.66c-34.62,17.22-68.21,36.37-99.82,58.76-25.3,17.92-50.23,36.36-71.61,59-26.07,27.57-51.82,55.45-77.56,83.34-30.93,33.51-61.93,67-92.47,100.83-20.73,23-40.71,46.64-61,70Q535.55,781.9,523.5,795.83ZM669.94,314.05c3,2.53,5.06,4.6,7.44,6.2,16,10.77,31.89,21.79,48.24,32.05a279.3,279.3,0,0,0,70.73,32c23.77,6.9,47.95,7.53,72.18,3.48,25.74-4.31,48.16-17.1,70.81-29.11,26.15-13.86,51.83-28.67,78.4-41.67,55.56-27.18,113.87-46.73,174.33-59.81,15.3-3.3,30.7-6.19,45.85-10,20.41-5.17,33.54-19.75,33.62-42.56.08-25,.19-50,0-74.93-.13-15.61-7.94-24.05-23.3-27.94-12.83-3.25-25.19-.75-37.57,1.52-31.56,5.78-62,15.78-92,26.86A801.59,801.59,0,0,1,988.9,166c-80.33,15.13-157.32,39.9-229.1,79.8-30.16,16.77-57.45,37.27-83,60.28C674.44,308.18,672.62,310.9,669.94,314.05ZM386.18,625.44c3,1.62,5,2.72,7,3.77,7.64,4,15.9,7.19,22.79,12.23a357.91,357.91,0,0,1,34.67,28.41c18.59,17.6,36.16,36.26,54.54,54.08,8.13,7.88,17.16,15.41,28.69,17.32,17.27,2.86,32.3-2.84,41.61-17.69a192.21,192.21,0,0,0,17.74-37.82c8-22.52,18.27-43.73,33.09-62.37,13.43-16.91,27.67-33.24,42.28-49.16C685.7,555.57,703.94,538,721,519.29a190.3,190.3,0,0,0,21.14-28.87c2.73-4.47,3.32-10.77,3.33-16.25,0-7.93-4.77-12.3-12.8-12.06a36.36,36.36,0,0,0-13.35,3.25c-4.51,2-8.6,5.07-12.66,8a150.84,150.84,0,0,1-59.13,25.79c-30.68,5.94-61.71,10.19-92.67,14.61-26.24,3.76-51.7,9.92-75.29,22.31-37.16,19.5-64.9,49.4-89.88,82.25C388.31,620.06,387.65,622.36,386.18,625.44ZM1853.26,152c-25.23-2.59-45.39,16.5-50.23,38.84-5.72,26.34-2,51.62,6.82,76.4a34.53,34.53,0,0,0,18.62,20c7.53,3.38,15.36,6.53,23.38,8.3,10.69,2.34,21.7,3.25,32.57,4.77,49.75,7,99.48,14.15,149.27,20.86,22.1,3,40.86-3.44,54.26-22.23,4.83-6.78,9.75-13.51,14.24-20.51a198.08,198.08,0,0,1,56.63-58.34,45.94,45.94,0,0,0,8.25-7.19c5.89-6.51,5.52-13.85-.3-20.58-4.64-5.36-10.76-8-17.34-9.18-16.08-2.9-32.29-4.46-48.66-2.57a159.5,159.5,0,0,1-16.9,1.25c-19.94.15-39.89.36-59.82,0a350.91,350.91,0,0,1-37.8-2.52,658.5,658.5,0,0,1-97.67-20.45C1876.8,155.48,1865.21,150.69,1853.26,152Z"/><path class="cls-3" d="M2586.82,1928.83q46.79-123.27,93.52-246.56c11.54-30.55,22.4-61.39,27.38-93.81,2.68-17.38,4-35,5.4-52.55,1.05-12.92,2-25.93,1.7-38.86-.68-28.26-2.2-56.5-3.37-84.74,0-1-.12-2-.15-3-.76-29.93-1.32-59.88-2.34-89.81-.88-25.59-2.47-51.16-3.42-76.74-.9-24.27-1.38-48.55-2-72.83,5.71-1.71,11.66-2.85,17.09-5.21,25.35-11,50.54-22.42,75.82-33.59,51.85-22.91,102.09-49,151.24-77.16,3.4-2,7.3-3,11-4.51.83,17.61,1.71,35.22,2.48,52.83q1.88,43.37,3.64,86.74c0,1,.11,2,.13,3,.78,30.61,1.41,61.22,2.35,91.82,1.24,40.24,2.72,80.47,4.12,120.7q.87,24.95,1.86,49.87c1.16,29.58,2.89,59.15,3.36,88.74.32,20.27-.46,40.61-1.9,60.84-2.22,31.24-6.14,62.38-15.5,92.38-9.22,29.54-19.05,58.92-29.76,88-21.67,58.73-44.14,117.16-66.24,175.72-5.27,14-5.21,14.1-20.23,11.56q-98-16.55-196-33.19C2627,1935,2606.87,1932,2586.82,1928.83Z"/><path class="cls-4" d="M2958.61,1049.46c-3.66,1.48-7.56,2.56-11,4.51-49.15,28.21-99.39,54.25-151.24,77.16-25.28,11.17-50.47,22.57-75.82,33.59-5.43,2.36-11.38,3.5-17.09,5.21-.8-25.93-1.41-51.88-2.44-77.81-1-25.25-2.48-50.48-3.68-75.72-.25-5.32-.08-10.66-.27-16-.79-21.08-7.08-40.5-17.86-58.55-1.39-3.74-2.47-7.62-4.21-11.18a772.85,772.85,0,0,0-62.66-105.58q-42.52-60.45-87.44-119.19c-19.56-25.67-40.66-50.17-61.51-74.81-15.69-18.53-32-36.51-48.19-54.66-24.35-27.36-49.39-54.06-76.91-78.3-2.19-1.93-5-3.17-7.54-4.73,11.77-4.61,23.57-9.15,35.3-13.85a139.67,139.67,0,0,0,48.69-32.5c18.54-19.08,35.76-39.44,54.12-58.7,14-14.67,28.82-28.53,43.41-42.61,2.61-2.52,6-4.23,8.84-6.49,4.52-3.56,8.2-2.82,12.19,1.18,11.53,11.53,23.86,22.3,34.91,34.27,31.16,33.73,62.55,67.3,92.56,102.05,75.15,87,145.86,177.45,208.73,273.83,21.65,33.2,42.14,67.11,59.29,102.91,10.8,22.54,21.17,45.4,24.78,70.39,2,13.78,2.42,27.82,3,41.76,1,24.61,1.65,49.23,2.37,73.84C2959.08,1042.81,2958.75,1046.14,2958.61,1049.46Z"/><path class="cls-6" d="M523.5,795.83q12.07-13.92,24.14-27.84c20.31-23.36,40.29-47,61-70,30.54-33.87,61.54-67.32,92.47-100.83,25.74-27.89,51.49-55.77,77.56-83.34,21.38-22.63,46.31-41.07,71.61-59,31.61-22.39,65.2-41.54,99.82-58.76a1118.52,1118.52,0,0,1,127-53.66,1458,1458,0,0,1,150.55-44,308.25,308.25,0,0,1,69.24-8.48c23.66-.11,47.33-.4,71,.19,17.6.44,35.17,2.27,52.77,3.27,17.28,1,34.56,1.71,51.85,2.54,12,.57,23.92,1.27,35.88,1.63,9.29.28,18.59.11,27.88.18,30.47.25,60.3,5.81,90,11.48,46.14,8.78,92.12,18.39,138.21,27.44a693.59,693.59,0,0,0,84,11.71c32.84,2.36,65.57,6.28,98.37,9.27,32.19,2.94,64.22,7,95.79,14,13,2.91,25.81,6.61,38.72,9.86,3.86,1,7.79,1.68,11.69,2.5a401.23,401.23,0,0,0-5.15,66.85c0,3,0,5.91,0,8.87-15.48-2.15-30.94-4.5-46.45-6.39q-33.17-4.05-66.4-7.5c-26.45-2.71-52.89-5.87-79.41-7.44-44.42-2.61-87.57-12.57-131-20.84-46.76-8.9-93.5-17.92-140.35-26.32-12.37-2.21-25.11-2.79-37.71-3.27-27.26-1-54.55-1.21-81.8-2.27-23.24-.91-46.53-1.81-69.67-4.08-32.93-3.23-65.88-1.67-98.8-1.45-24.64.16-49,4.78-72.9,10.85-45.86,11.62-91.25,24.82-135.86,40.59-38.32,13.55-76,28.64-112.56,46.5s-72.7,36.39-106.23,59.48c-18.89,13-37,27.2-55,41.41-11,8.64-21.09,18.3-31.52,27.59-4,3.53-8.16,7-8.63,12.94-7.18,1.34-14.4,2.45-21.52,4.07-47.75,10.83-87.6,34-115.79,75-13.59,19.72-23.66,40.94-22.3,65.7.43,7.87,2.63,15.65,4,23.47-3,2.59-6.33,4.88-8.91,7.83-14.56,16.67-28.79,33.62-43.45,50.2-5.59,6.32-9.34,14.58-17.86,18-15-15-30.3-29.84-45.06-45.14C535.82,811.53,529.87,803.47,523.5,795.83Z"/><path class="cls-6" d="M434.35,1946.81c-2.24-7.66-4.14-15.43-6.77-23-26.53-76.09-51.38-152.69-70.37-231.08-9-37.23-16.52-74.78-20.71-112.85-2.58-23.42-3.19-47.07-4.7-70.62-.38-6-.92-11.93-1.21-17.9-.26-5.31-.54-10.64-.37-16,.44-14.62.8-29.26,1.77-43.85,1.46-21.88,3.09-43.76,5.23-65.58q3.66-37.23,8.39-74.33c3.95-31.35,7.91-62.72,12.7-93.94,5.39-35.19,10.95-70.38,17.81-105.3,9.65-49.14,24.2-96.87,45.73-142.25,4.7-9.9,10.47-19.3,15.62-29,1.71-3.21,3-6.62,4.52-9.94,8,4,16.37,7.34,24,12,18,10.91,33.66,24.79,47.92,40.25-5.83,9.67-11.44,19.47-17.53,29-36.7,57.16-57.86,120.28-71.76,186.23-10.71,50.84-17.41,102.32-24.68,153.71-4,28.32-7.84,56.67-11.32,85-2,16.49-3.12,33.09-4.79,49.62-2.61,25.82-2.69,51.8-4.52,77.62-2.27,32.06.27,63.76,2.44,95.53,5.13,75.16,22.91,147.89,44.2,219.78,13.32,45,27.46,89.79,42.81,134.13,14.47,41.82,31,82.9,46.54,124.36,1.37,3.65,1.66,7.71,2.45,11.59-9.79-18.13-20.25-35.94-29.23-54.47-19-39.3-35.21-79.82-50-120.88C437.48,1951.94,435.74,1949.44,434.35,1946.81Z"/><path class="cls-2" d="M587.77,863.81c8.52-3.45,12.27-11.71,17.86-18,14.66-16.58,28.89-33.53,43.45-50.2,2.58-3,5.92-5.24,8.9-7.83,1.46,1.35,3.22,2.49,4.32,4.09,6.16,8.94,14.33,15.59,23.46,21.23,9.89,6.11,19.91,12,29.57,18.48,31.1,20.75,58.42,45.9,84.09,72.94,4.78,5,9.52,10.1,14.27,15.16,0,.63,0,1.27-.05,1.9-4.4,5.38-9.16,10.49-13.12,16.17C789.11,954,778.15,970.65,766.72,987c-2.34,3.35-5.93,5.83-9,8.71-2.57-3.82-5.39-7.51-7.67-11.5-4.93-8.67-9.56-17.5-14.34-26.25-8.53-15.64-21.26-26.11-38.34-31.33-18.79-5.74-37.2-12.44-54.36-22.19C623,893,604.37,879.83,587.77,863.81Z"/><path class="cls-7" d="M2330.79,493.41c2.53,1.56,5.35,2.8,7.54,4.73,27.52,24.24,52.56,50.94,76.91,78.3,16.14,18.15,32.5,36.13,48.19,54.66,20.85,24.64,42,49.14,61.51,74.81q44.79,58.79,87.44,119.19A772.85,772.85,0,0,1,2675,930.68c1.74,3.56,2.82,7.44,4.21,11.18-2.76-2.79-6.07-5.23-8.17-8.45-26.55-40.76-55.19-80-85.15-118.3q-37.82-48.29-77.6-95c-24.19-28.28-50.24-55-74.58-83.12-18.59-21.51-40-39.81-61-58.75-11.08-10-24.36-16.19-37.64-22.31-19-8.77-38.35-17-57.41-25.66-3.13-1.43-5.62-4.22-8.41-6.38,9.71-6.1,19-13,29.25-18.07S2320,497.46,2330.79,493.41Z"/><path class="cls-8" d="M758.46,1003.6c2.4,2.61,5.36,4.88,7.11,7.87,30.84,52.69,66.19,102.19,105,149.25q4.74,5.76,9.39,11.59c.17.2,0,.64,0,2.52-2.52-1.48-4.73-2.35-6.43-3.82-13.61-11.72-26.91-23.81-40.71-35.29-28.5-23.7-58.79-44.77-92.45-60.56-6.52-3.06-13.68-4.72-20.54-7l-.18-2c3-4.28,6.31-8.35,8.88-12.87,8-14,15.6-28.29,23.59-42.33C753.73,1008.18,756.34,1006,758.46,1003.6Z"/><path class="cls-9" d="M1093.74,2213.94c-32.23-.7-63.79-5.68-94.84-13.51-32.93-8.3-65.65-17.52-98.37-26.65a689.78,689.78,0,0,0-101.75-20.56c-22.5-2.75-44.69-6.69-65.71-16.09-24.43-10.93-39.85-29.7-48.88-54-13.18-35.55-10.38-70.61,5.13-104.88,18.62-41.15,51.67-66.84,91.66-84.89,23.54-10.63,48.39-17.26,73.82-20.95,32.09-4.67,64.38-5.09,96.45.79,50.45,9.25,101,18.22,151.23,28.36,34.94,7,69.53,15.94,102.46,30,24.61,10.53,48.5,22.54,66.66,43,13.62,15.31,22.2,32.74,22.13,54.11-.12,37.56-9,72.68-28.5,104.7-17.16,28.17-42,47.92-72.17,60.9a216,216,0,0,1-69.52,17.2C1113.6,2212.17,1103.67,2213.09,1093.74,2213.94Z"/><path class="cls-9" d="M2398.52,793.51c46-.57,77.8,17.64,102.71,49.11a201.75,201.75,0,0,1,43.45,109.86c1.67,19.43,2.46,38.91,1.13,58.69-2.19,32.58-5.13,65-10.79,97.08-6.41,36.41-17.63,71.13-39.37,101.59-28.78,40.32-68.21,61.1-117.69,59.34-34-1.2-59.88-18.24-76.22-48.67-10.35-19.28-15.75-40.24-20.35-61.41-5.31-24.43-10.86-48.77-20.69-71.87-5.73-13.47-12-26.73-17.64-40.23-8.86-21.11-13.88-43.34-13.54-66.1.73-49.6,18.22-92.81,52.49-129.06,16.61-17.57,34.94-32.55,56.92-43.18C2359.41,798.76,2380.49,792.68,2398.52,793.51Z"/><path class="cls-5" d="M1593.57,2293.27a316.68,316.68,0,0,1,69-15.87c34.33-4.08,68.78-7.29,103.22-10.32,55.53-4.9,106.91-21.58,152.83-53.5,18.29-12.71,35.67-26.71,53.51-40.07,7.2-5.38,14.28-11,21.81-15.84,23.24-15.07,48.36-22,76-16,22,4.79,43,12.07,60.19,27.42,20,17.79,24.7,40.39,19.71,65.49-4.69,23.56-17.58,42.89-33.32,60.52-20.07,22.47-45.27,38.06-71,52.84a719.25,719.25,0,0,1-143.42,62.68,797.32,797.32,0,0,1-145.29,31c-26.54,3.13-53.07,3.86-79.69,3.89,3.16-3.26,6-7,9.54-9.7,20.2-15.47,32.91-35.55,36.35-60.75,4.34-31.75-18.28-63.71-50.75-73.09-20-5.77-40.41-7.13-61.09-6.83C1605.31,2295.2,1599.43,2293.92,1593.57,2293.27Z"/><path class="cls-5" d="M1717.48,848.57a236.9,236.9,0,0,1-100.34-24.09,103.74,103.74,0,0,1-33.2-25.19c-14.18-16.25-19.73-35.69-17.43-56.56,6-54.48,36.65-93,81.82-121.22,23.79-14.84,50.14-22.66,78-26,48.49-5.88,94.1,2.59,136.88,26.21a125.65,125.65,0,0,1,40.32,35.13c23.22,31,20.75,72.46-1.2,102.48-17.79,24.33-40.19,43.38-66.31,58.12a232.66,232.66,0,0,1-77.85,27.3C1744.73,846.87,1731.05,847.34,1717.48,848.57Z"/><path class="cls-9" d="M813.69,919.65c-4.75-5.06-9.49-10.13-14.27-15.16-25.67-27-53-52.19-84.09-72.94-9.66-6.45-19.68-12.37-29.57-18.48-9.13-5.64-17.3-12.29-23.46-21.23-1.1-1.6-2.86-2.74-4.32-4.09-1.39-7.82-3.59-15.6-4-23.47-1.36-24.76,8.71-46,22.3-65.7,28.19-40.94,68-64.16,115.79-75,7.12-1.62,14.34-2.73,21.52-4.07,13.26-.58,26.52-1.69,39.78-1.63A275.24,275.24,0,0,1,962,640.63c21.68,9.37,41.1,23.1,58.68,39.12,7.12,6.49,14.57,12.66,21.24,19.58,3.32,3.44,5.22,8.25,7.77,12.43-6.25,3.81-12.54,7.56-18.75,11.42A830.21,830.21,0,0,0,898.72,825.81C868,854.94,840.3,886.8,813.69,919.65Z"/><path class="cls-10" d="M813.69,919.65c26.61-32.85,54.31-64.71,85-93.84a830.21,830.21,0,0,1,132.19-102.63c6.21-3.86,12.5-7.61,18.75-11.42l4-2c4.71,6.38,9.22,12.92,14.16,19.11,24.71,31,45,64.41,57.25,102.33,4.81,14.92,8.23,30.15,8.6,46,.62,26.35-7.58,50-22.63,71.1-24.69,34.7-59,54.92-100.69,60.55-31.74,4.29-63.08-.42-93.13-12.48A243.94,243.94,0,0,1,836,943c-7.34-7.24-14.89-14.28-22.34-21.41C813.67,920.92,813.68,920.28,813.69,919.65Z"/><path class="cls-9" d="M1665.36,2447.31c-14.55,8.1-30.61,11.83-46.78,13.37-25.46,2.43-51.11,4.28-76.66,4.11-24.21-.16-48.45-2.68-72.58-5.2-19.17-2-38.22-5.33-57.24-8.55a301.07,301.07,0,0,1-75.17-23.4c-20.45-9.35-38.88-21.54-53.33-39.31-21.83-26.85-20.65-67.78-2.61-91.23,15.46-20.08,35.92-32.15,59.63-39.65,32.94-10.4,65.22-5.79,97.18,4.26,19.37,6.09,38.61,12.62,57.81,19.26,28.58,9.9,57.73,16,88.17,14.28-2.19,1.47-4.3,3.07-6.57,4.39-7.77,4.51-15.92,8.43-23.33,13.46-23.7,16.1-32.71,38.79-27.81,66.74,2.32,13.29,7.87,25.21,17.81,35.06,14.58,14.46,32.69,21.48,52,26.1C1618.7,2446.46,1642,2447.14,1665.36,2447.31Z"/><path class="cls-9" d="M1238.91,1775.23c.83-9.59,2.1-19.16,2.37-28.77.36-13.14,8.84-21,18.54-26.62,19.58-11.26,41-15.71,63.46-10.36,16.94,4,33.92,6.49,51.35,6,21.31-.63,42.59.21,63.55,4.35,13.39,2.65,26.24,6.45,37.21,15.74,12.58,10.66,18.66,24.16,19.95,39.85,2.73,33-8.21,62.13-26.95,88.79-10.66,15.16-23.08,28.24-39.89,36.82-12.43,6.35-25.77,8.77-38.79,5.47-41.09-10.41-80.87-24.22-115.87-49.34-23.07-16.55-32.14-39.83-34.15-66.87-.37-5-.06-10-.06-15Z"/><path class="cls-9" d="M2532.27,1419.65c-19.88-1.68-38.67-4.06-54.71-15.91-17.17-12.69-23.28-30-21.23-50.74,2.31-23.39,14.83-41.75,29.47-58.91,13.6-15.94,27.34-31.78,41.57-47.15,8.87-9.57,18.69-18.68,33.31-17.18,4.78.5,10,1.81,13.93,4.43,7.42,5,14.07,11.1,21,16.84,7.92,6.59,15.3,14,23.76,19.73a59.27,59.27,0,0,1,21.24,25.86c12.61,28.72,4.11,64.15-14.74,83.7-21.78,22.58-48.22,33.58-78.53,37.34C2542,1418.31,2536.76,1419.05,2532.27,1419.65Z"/><path class="cls-10" d="M1665.36,2447.31c-23.33-.17-46.66-.85-69.48-6.31-19.31-4.62-37.42-11.64-52-26.1-9.94-9.85-15.49-21.77-17.81-35.06-4.9-28,4.11-50.64,27.81-66.74,7.41-5,15.56-8.95,23.33-13.46,2.27-1.32,4.38-2.92,6.57-4.39l9.78-2c5.87.65,11.75,1.93,17.61,1.85,20.68-.3,41.11,1.06,61.09,6.83,32.47,9.38,55.09,41.34,50.75,73.09-3.44,25.2-16.15,45.28-36.35,60.75-3.57,2.73-6.38,6.44-9.54,9.7Z"/><path class="cls-9" d="M1155,1013.29l.87-3.59c8.24-6.7,16.51-13.37,24.74-20.09a428.11,428.11,0,0,1,116.92-68c2.23,1.85,5.18,3.28,6.58,5.63,12.64,21.24,15.55,43.72,6.78,67-10.51,27.93-30.48,46.31-59.7,52-24.67,4.79-49.08,1.77-71.24-11.77C1170.49,1028.73,1161.8,1022.12,1155,1013.29Z"/><path class="cls-10" d="M1297.51,921.6a428.11,428.11,0,0,0-116.92,68c-8.23,6.72-16.5,13.39-24.74,20.09-5-1.87-6.52-6.34-7.86-10.84-5.43-18.17-.82-35.24,7.85-50.85,18.5-33.32,47.87-51.16,85.53-53.82,18.68-1.32,36.11,4.93,50.57,17.52,2.41,2.09,3.81,5.35,5.67,8.07C1297.59,920.39,1297.56,921,1297.51,921.6Z"/><path class="cls-11" d="M1193.62,2847q-47.49,0-95,0a94.81,94.81,0,0,1-10-.24c-12.06-1.28-18.82-6.66-18.32-22.46a38,38,0,0,1,4.48-16.25c13.09-24.16,20.76-50.47,30.76-75.85,10.74-27.25,21.43-54.53,32.34-81.71,6.16-15.35,18.6-21.62,34.33-23.44,14-1.61,27.78-2.81,41.75-.24,3.88.71,8,.22,12,.22q330.35.06,660.69.19c20.61,0,41.3.43,61.83,2.18,27.66,2.35,46.09,14.59,52.56,43.56a381,381,0,0,1,8,53.23c1.74,22.19,1.82,44.53,2.12,66.81.16,12-3.15,23-12.4,31.6-4.37,4.06-9.23,6.56-15.22,6.37-14-.46-27.92-.9-41.87-1.59-12.62-.62-25.23-1.49-37.83-2.38-14.92-1.05-29.83-2.27-44.75-3.36-12.27-.9-24.54-2.2-36.83-2.48-41.6-.92-83.21-2-124.81-1.93-23.57,0-47.17,1.95-70.71,3.6-24.88,1.74-49.72,4-74.55,6.35-23.17,2.21-46.29,5-69.46,7.26-11.58,1.14-23.21,1.73-34.82,2.58l-47.74,3.56c-1,.07-2,.23-3,.27-20.61.73-41.22,1.65-61.84,2.12-47.26,1.08-94.53,1.94-141.8,2.88C1193.63,2847.6,1193.62,2847.32,1193.62,2847Z"/><path class="cls-11" d="M2685.83,2333c.43,22.62-9.69,40.49-24.09,56.63-13.89,15.59-30.94,27.33-48,38.92-25.34,17.21-51,33.9-76.67,50.7-73.27,48-146.84,95.59-219.8,144.08-51.32,34.11-100.73,71-148.53,109.88-21.15,17.21-41.27,35.68-62,53.37-9.67,8.24-20,15.5-32.63,18.77-13.6,3.53-23.35-.27-30.56-12.41a62.59,62.59,0,0,1-6.26-14.62A852.24,852.24,0,0,1,2011,2648.17c-1.63-13.3-2.93-26.47,0-39.7,4.24-19.15,15.8-33.83,30.45-45.74,32.82-26.65,66.12-52.71,99.46-78.7,63.28-49.34,126.39-98.91,190.21-147.54C2388.65,2292.7,2447,2250,2505,2206.92a137.32,137.32,0,0,1,17.67-11.28c16.07-8.48,32.46-8.48,49.08-1.15,14.82,6.55,27.75,16,39.78,26.49q21,18.38,40.59,38.43c14.82,15.23,26.08,32.92,31.19,53.86C2684.87,2319.66,2685,2326.39,2685.83,2333Z"/><path class="cls-2" d="M669.94,314.05c2.68-3.15,4.5-5.87,6.87-8,25.54-23,52.83-43.51,83-60.28,71.78-39.9,148.77-64.67,229.1-79.8a801.59,801.59,0,0,0,129.81-35.82c30-11.08,60.39-21.08,92-26.86,12.38-2.27,24.74-4.77,37.57-1.52,15.36,3.89,23.17,12.33,23.3,27.94.2,25,.09,49.95,0,74.93-.08,22.81-13.21,37.39-33.62,42.56-15.15,3.84-30.55,6.73-45.85,10-60.46,13.08-118.77,32.63-174.33,59.81-26.57,13-52.25,27.81-78.4,41.67-22.65,12-45.07,24.8-70.81,29.11-24.23,4.05-48.41,3.42-72.18-3.48a279.3,279.3,0,0,1-70.73-32C709.27,342,693.4,331,677.38,320.25,675,318.65,672.94,316.58,669.94,314.05Z"/><path class="cls-2" d="M386.18,625.44c1.47-3.08,2.13-5.38,3.48-7.15,25-32.85,52.72-62.75,89.88-82.25,23.59-12.39,49.05-18.55,75.29-22.31,31-4.42,62-8.67,92.67-14.61a150.84,150.84,0,0,0,59.13-25.79c4.06-2.9,8.15-6,12.66-8a36.36,36.36,0,0,1,13.35-3.25c8-.24,12.82,4.13,12.8,12.06,0,5.48-.6,11.78-3.33,16.25A190.3,190.3,0,0,1,721,519.29c-17,18.69-35.27,36.28-52.37,54.92-14.61,15.92-28.85,32.25-42.28,49.16-14.82,18.64-25.11,39.85-33.09,62.37a192.21,192.21,0,0,1-17.74,37.82c-9.31,14.85-24.34,20.55-41.61,17.69-11.53-1.91-20.56-9.44-28.69-17.32-18.38-17.82-35.95-36.48-54.54-54.08A357.91,357.91,0,0,0,416,641.44c-6.89-5-15.15-8.21-22.79-12.23C391.18,628.16,389.2,627.06,386.18,625.44Z"/><path class="cls-2" d="M1853.26,152c12-1.34,23.54,3.45,35.32,6.84a658.5,658.5,0,0,0,97.67,20.45,350.91,350.91,0,0,0,37.8,2.52c19.93.4,39.88.19,59.82,0a159.5,159.5,0,0,0,16.9-1.25c16.37-1.89,32.58-.33,48.66,2.57,6.58,1.19,12.7,3.82,17.34,9.18,5.82,6.73,6.19,14.07.3,20.58a45.94,45.94,0,0,1-8.25,7.19,198.08,198.08,0,0,0-56.63,58.34c-4.49,7-9.41,13.73-14.24,20.51-13.4,18.79-32.16,25.21-54.26,22.23-49.79-6.71-99.52-13.88-149.27-20.86-10.87-1.52-21.88-2.43-32.57-4.77-8-1.77-15.85-4.92-23.38-8.3a34.53,34.53,0,0,1-18.62-20c-8.87-24.78-12.54-50.06-6.82-76.4C1807.87,168.53,1828,149.44,1853.26,152Z"/></g></g></svg>