<svg xmlns="http://www.w3.org/2000/svg" xmlns:xlink="http://www.w3.org/1999/xlink" viewBox="0 0 919.1 928.08"><defs><style>.cls-1{fill:none;}.cls-2{clip-path:url(#clip-path);}.cls-3{fill:#707272;}.cls-4{fill:#909493;}.cls-5{fill:#a0a5a5;}.cls-6{fill:#adb3b3;}.cls-7{fill:#bebfb6;}.cls-8{fill:#818483;}.cls-9{fill:#a0a3a2;}.cls-10{fill:#fff;opacity:0.35;}</style><clipPath id="clip-path" transform="translate(0 0.01)"><path class="cls-1" d="M80.63,269.25l21.11-.95,15.9-.07,31.32.51,18.35,1.19L188.59,271,213,272l15.49.4H244l6.49-.11,5.76-.23,5.39-.32-.42-3.54-.45-4.44-.38-4.59-.27-4.08-.31-6.23-.21-7.31-.07-6.73.05-8.16.17-8.41.27-8.4.44-10.43.49-10.33.55-11.51.51-11.77.47-16.55.07-6.36v-6.12l-.18-9.14-.45-9.57-.5-6.84-.91-8.83-1.12-8-1.23-6.92-1.25-5.89-.74-3.09,3.28-3.82,3.37-4.23,4.62-6.34L271,58.94l5.47-8.59L281,43l6.27-9.54,4.8-6.5L297.34,21l2.83-2.8L302.6,16l3-2.34,4.69-3.11,6.64-3.34,9.13-3,5.13-1,6.33-.78,5.62-.55,9.13-.71L362.8.56l9.36-.33L382.72,0l10.56,0,7.44.07L410,.23l10,.26,16.44.58,15.71.65L498.76,3.4l17.39.28,4.09.26,5.36.59,9.81,1.6L551,9.63,562,12.57l14.12,4.25L593,22.47l4.93,1.78,2.5,4,3.87,6.49L608.94,43l3.62,6.61,3.83,7.31,3.46,6.91L622.8,70l5.36,12.19,5.46,14.67,2.34,7.75,1.13,4.49.83,3.93.46,2.66.42,3,.39,4.46.06,2.5-.07,4.68L639,139l-.17,8.63-.65,32.65-.17,8.88-.18,8.63L637.61,209l-.43,21.25-.4,20.16-.41,20.76,3.89.72,8.5,1.32,12.76,1.36,9.44.54,10.8.2,13.68-.27,14.52-.73,14.17-.9,16.9-1,9.61-.37,9.84-.17,7.09,0,10.33.38,8.77.88,14.82,2.43,14.09,3.14,9.53,2.48,11.26,3.25,15.18,4.84,13,4.52L878.29,299,901,308.25l2.72,20.43,2,14.8L910,373.76l3.79,23.51,1.24,9.54.89,8.89,1.13,15,.63,11.41.69,17.39.49,20.41.26,32.88v14.4L919,538.93l-.15,11.76-.2,11.76-.25,11.76L918,586.46l-.3,9.7-1.49,1.57-14.66,11.54-25.25,19.87-24.64,19.07-8.49,1.08-22.59,2.45L795.06,654l-21.75,1.42-21.94,1-18.61.44h-21L691,656.24l-12.84-.71-13.35-1.06.15,5.65.36,11.66.41,11.52.45,11.51.47,11.62.48,11.79.48,11.85.36,9.14.57,15.11.39,11.52.29,9.48.25,9,.27,12.13.14,8.63L670,817v8.76l-.12,11.52-.31,11.41-.24,5.56-4.33,6L658,870l-18,25-13.39,18.64-1,.42-6.13.34-20.63,1.14-34.17,1.86-28.24,1.44L516,919.8l-18.12.81L474,921.68l-16.43.73L421.72,924l-25.43,1.13-8.9.27-12.23.2-15.12.11-16.44.13L333,926l-18.71.71-9.4.64-7.48.7L288.94,921l-9.21-8-12.2-11.22-13-13-2.19-2.34-2.85-3.12-3.06-3.47L242,874.56,238.52,870l-3.14-4.48-2.58-4.12,1.68-10.27,1.23-9.14.93-8.63.52-5.9.61-8.74.35-7.07.22-6.84.13-7.19v-9.36l-.14-9-.19-6.61-.34-8.52-.41-8.27-.64-10.54-.48-7.11-1.11-15.11-.77-9.86-1-12.92-.82-10.8-.69-9.71-.45-7-.65-11.41-.36-7.55-.25-6.48-5.45-1-11.42-2.17-12-2.26-11.71-2.19-12.17-2.24-10.07-1.85-11.14-2L141.89,631l-4.66-.84-7-1.25-5.33-1-7.28-1.31L107,624.75l-8.55-1.53-12-2.12-35.32-6.23-7-1.22-5.52-7.39-11.21-15L15.64,575.4,7.3,564.23,0,554.44l.31-17,.45-24.24L1.26,486l.51-28,.33-17.88.84-45.24.83-45.36.49-26.36,10.69-10,17.21-16L46,284.37l13.5-12.57,8.85-1.32Z"/></clipPath></defs><g id="Layer_2" data-name="Layer 2"><g id="Layer_1-2" data-name="Layer 1"><g class="cls-2"><path class="cls-3" d="M513.67,3.62c29.55.15,84.21,20.63,84.21,20.63s42.09,65.9,41.37,102.5c-1,51.15-1.87,93.3-2.88,144.46,49,9.56,86.5-.62,136.38.88S901,308.25,901,308.25s8.77,66.77,11.69,82.32c10.44,55.44,5.07,206,5.07,206l-65.54,51.57s-102,14.3-187.37,6.33c1.33,55.71,7.15,145.11,4.5,199.75l-43,59.85s-70.14,3.94-93,5l-134.14,6c-32.64,1.45-68.83-.39-101.73,3.06,0,0-48.19-38.42-64.65-66.65,13.06-72.5-.09-140.4-2.63-214-70.84-13.68-186-33.76-186-33.76L0,554.44,4.26,323.21l55.2-51.41c56.23-9.76,145.25,3.9,202.18,0-7.79-61.88,9.61-132.69-5.48-193.21,28.36-31.69,33.89-70.89,78.69-75.87C392.71-3.74,455.41,3.31,513.67,3.62Z" transform="translate(0 0.01)"/><path class="cls-4" d="M509.75,29.07c27.67.14,78.84,19.31,78.84,19.31s27.24,61.47,26.56,95.74L612.3,287.79c45.85,9,93.15-.35,139.85,1s120,33.85,120,33.85,8.36,54.09,11.11,68.65C893.06,443.24,888,584.2,888,584.2l-61.36,48.28s-107.7,13.16-187.59,5.7c1.25,52.16,6.69,135.85,4.21,187l-28.08,56.25s-65.67,3.69-87.07,4.65l-125.57,5.6c-30.57,1.36-64.45-.36-95.25,2.86,0,0-37.63-35.83-53-62.26,12.23-67.87-.08-131.44-2.46-200.36C185.5,619.13,70.21,600.19,70.21,600.19L28.84,544.76l4-216.49,51.47-36.9c52.64-9.13,136,3.66,189.28,0-7.28-57.93,9.21-135.46-4.92-192.12,26.55-29.67,31.73-66.37,73.68-71C396.5,22.18,455.2,28.78,509.75,29.07Z" transform="translate(0 0.01)"/><path class="cls-5" d="M874.61,338.28c-1.42-9.09-2.43-15.59-2.43-15.59s-73.33-32.45-120-33.85-94,7.91-139.85-1l2.85-143.67c.68-34.27-26.56-95.74-26.56-95.74s-51.17-19.17-78.84-19.31c-54.55-.29-113.25-6.89-167.41-.87-41.95,4.66-47.13,41.36-73.68,71,14.13,56.66-2.36,134.19,4.92,192.12-53.29,3.68-136.64-9.11-189.28,0l-51.47,36.9-4,216.25A93.18,93.18,0,0,0,46,537.62c12.18-6.47,22.43-16,33.84-23.71,56.53-38.41,131.78-29.48,197.67-47.65,32.57-9,63.37-24.81,96.86-29.33,39.6-5.34,79.35,5.56,119.11,9.63,127.62,13.05,250.78-44.08,366.34-99.77C864.94,344.32,870.16,341.75,874.61,338.28Z" transform="translate(0 0.01)"/><path class="cls-6" d="M501.67,71.25c22.78.12,64.91,15.91,64.91,15.91S588.2,181.76,587.64,210L585.3,328.26c37.75,7.38,76.69-.28,115.14.87s135.83,28.56,135.83,28.56,6.88,44.53,9.14,56.52c8,42.73,4.47,137.78,4.47,137.78l-46.33,38S674.66,612,608.88,605.9c1,42.94,4,122.72,1.93,164.84l-23.12,46.32s-54.07,3-71.69,3.83L412.61,825.5c-25.17,1.12-49.2-.66-74.56,2,0,0-18.16-26.64-30.85-48.4-6.1-52.49-3.71-124.21-5.67-181-54.6-10.55-202.34-25.39-202.34-25.39L65.13,527.11l3.28-178.25L129.89,328c43.34-7.53,132.48,16.78,176.36,13.75-6-47.7,7.74-122-3.89-168.7,21.86-24.43,26.93-98.63,61.47-102.47C408.43,65.58,456.76,71,501.67,71.25Z" transform="translate(0 0.01)"/><path class="cls-7" d="M607.22,344.61c37.76,7.38,76.7-.29,115.15.87,27.38.82,84.64,14.95,115.33,23l-1.65-10.65s-97.38-27.4-135.83-28.55c-30.88-.93-62.08,3.83-92.73,1.91Z" transform="translate(0 0.01)"/><path class="cls-7" d="M329.13,795.44c-6.11-52.49-3.72-124.21-5.67-181-6.18-1.19-13.57-2.44-21.79-3.72,1.3,54.51-.35,119.78,5.31,168.5,12.69,21.76,30.85,48.4,30.85,48.4,3.63-.38,7.23-.66,10.81-.88C342.63,817.55,335.25,805.93,329.13,795.44Z" transform="translate(0 0.01)"/><path class="cls-7" d="M87.05,543.46l3.29-178.25,61.47-20.91c43.34-7.52,132.48,16.79,176.37,13.76-6-47.7,7.74-122-3.9-168.7,21.87-24.43,26.94-98.64,61.48-102.48,44.59-5,92.92.48,137.84.72,12.51.06,30.87,4.86,44.87,9.16-1.3-5.89-2.11-9.43-2.11-9.43s-42.13-15.79-64.91-15.91c-44.91-.24-93.24-5.67-137.84-.71-34.54,3.83-39.61,78-61.47,102.47,11.63,46.65-2.11,121,3.89,168.7-43.88,3-133-21.28-176.36-13.76L68.19,349,64.91,527.28,99,572.92s4,.4,10.91,1.12Z" transform="translate(0 0.01)"/><path class="cls-3" d="M638.8,326.21c1,3.62,2.82,7.1,2.88,10.87.17,9.39-9.95,15.38-19,18s-19.47,4.77-24.25,12.86c-2.54,4.31-2.91,9.51-4.4,14.29-1.4,4.49-3.81,8.59-6.19,12.64q-22.73,38.6-45.44,77.21l29.4-32.84c6-6.73,12.7-13.84,21.57-15.59,10.44-2.05,25.26,1.85,28.86-8.16,1.32-3.64.15-7.69.62-11.53,1.51-12.41,17.92-17,23.71-28,1.83-3.52,2.65-7.79,5.71-10.32,7.3-6,17.43,3.2,26.86,3.95,9,.71,17.09-7.49,18.23-16.45s-3.39-17.9-9.88-24.19c20-.7,37-21.12,34-40.93C720.28,279.51,626,280.76,638.8,326.21Z" transform="translate(0 0.01)"/><path class="cls-6" d="M292.91,157c.71,2.06,1.8,4.45,3.95,4.77,2.61.4,4.41-2.5,5.35-5,7-18.43,9.23-38.85,19.57-55.65,2.71-4.41,6-8.63,7.2-13.68,1.57-6.7-.85-13.6-1.73-20.44a45.71,45.71,0,0,1,.41-14.2c.48-2.54,1.12-5.36-.26-7.54-1.82-2.86-6.27-2.82-9-.88s-4.34,5.13-6,8.1a129.92,129.92,0,0,1-11.86,17.34q-8.07,10.28-17,19.8c-5.44,5.78-10.63,8.27-8.19,16.38C280.46,123.2,287.06,140.07,292.91,157Z" transform="translate(0 0.01)"/><path class="cls-6" d="M345.86,60.28a12.25,12.25,0,0,0,5,3.45c5.14,1.66,10.35-1.78,15-4.53,29.8-17.64,67.85-11,101.06-20.84,1.83-.54,4.05-1.78,3.67-3.65-.29-1.41-1.95-2-3.38-2.28-4.21-.72-8.51-.35-12.77,0a781.69,781.69,0,0,1-88.19,1.92c-6.27-.22-20.39-1.86-25.06,3.7C336.4,43.76,341.64,55.8,345.86,60.28Z" transform="translate(0 0.01)"/><path class="cls-6" d="M46.52,322.58c-3.44,2.38-7.33,6.32-5.47,10.07,1.1,2.22,3.76,3.09,6.16,3.74L64.16,341c2.22.6,4.54,1.21,6.77.69,2-.45,3.64-1.74,5.35-2.84,9.68-6.24,22-6.95,32.26-12.08,2.62-1.31,5.29-3.13,6.12-5.94,1-3.46-1.15-7-3.56-9.69-5.88-6.55-19.43-15.71-28.83-13.25-5.67,1.48-12.53,8.56-17.37,11.92Z" transform="translate(0 0.01)"/><path class="cls-6" d="M118.74,304.82a45.07,45.07,0,0,0,10.84,4.91c6.74,2,13.83,2.44,20.84,2.91a1116.53,1116.53,0,0,1,128.85,16.24c2.56.47,5.22,1,7.75.32s4.89-2.73,4.94-5.33c0-1.81-1-3.44-2-4.94-3.75-5.7-7.68-11.58-13.48-15.16-8.28-5.1-18.69-4.6-28.4-4-18.13,1-36.32,1.66-54.45.61-14.9-.86-29.72-2.85-44.51-4.83-9.53-1.28-21.13-4.83-30.69-4.12C109.07,292.08,112.54,301,118.74,304.82Z" transform="translate(0 0.01)"/><path class="cls-6" d="M751.51,309.15a13.63,13.63,0,0,0,.6,7.72c1.66,4,5.53,6.64,9.35,8.7,16.85,9.1,36.3,11.91,54.26,18.55,4.37,1.61,8.72,3.47,13.35,4,12.24,1.42,23.39-6.47,33.18-14,1.41-1.08,2.89-2.25,3.47-3.93.84-2.44-.59-5.21-2.68-6.73s-4.71-2.08-7.24-2.63a471,471,0,0,1-61.38-17.76c-7.93-2.89-18.71-9.91-27.06-8.83A19.12,19.12,0,0,0,751.51,309.15Z" transform="translate(0 0.01)"/><path class="cls-8" d="M312.13,888.83a241.64,241.64,0,0,1,70-6.43c14.19.78,28.6,2.79,42.49-.27,24.62-5.44,43.37-25.8,67.22-34,19.08-6.56,39.85-4.84,60-6.06,11.19-.68,24.93-4.62,26.81-15.68-12.76-1.72-25.73-.5-38.51,1-36,4.28-71.9,11-108.12,9.91-26.43-.77-53.4-6.3-79.83-2.84C330.38,837.35,320.2,870.53,312.13,888.83Z" transform="translate(0 0.01)"/><path class="cls-8" d="M265.3,827a3.87,3.87,0,0,0-1.56,2c-.23,1.2.67,2.29,1.52,3.17q17.31,18.09,34.64,36.17c1.57,1.64,3.35,3.38,5.61,3.55,3.66.28,6.14-3.54,7.63-6.89,4.82-10.85,8.18-22.59,7.62-34.45-.48-10.06-5.22-29.35-17.86-30.35C291,799.28,273.89,819.89,265.3,827Z" transform="translate(0 0.01)"/><path class="cls-8" d="M619.67,744.74c-1,12.49-2.48,25.09-.76,37.51s7,24.9,17.07,32.4L638.74,667c.19-10.35.35-20.92-2.87-30.76-2.85-8.7-9.73-19-19.32-20.67-3.73,18,4,44,4.65,63.11A560,560,0,0,1,619.67,744.74Z" transform="translate(0 0.01)"/><path class="cls-3" d="M757,594.73c5.6-5.05,13.91-8,16.29-15.15,2.56-7.68-3.33-15.91-2.11-23.92,1.28-8.39,9.89-14.06,11.71-22.35,1.39-6.39-1.32-13.89,2.62-19.11,2.6-3.44,7.35-4.64,10.11-7.94,5.59-6.69.18-16.76,1.18-25.42,1.33-11.41,13.67-18.81,16.08-30a73.51,73.51,0,0,0,12.78,36.54c-15.21,2.81-23.12,24.1-13.45,36.16,1.71,2.12,3.88,4.1,4.4,6.77,1.65,8.44-12.5,10.5-16.38,18.17-1.57,3.1-1.21,6.79-1.84,10.21-1.82,10-12,17.71-11.37,27.86.57,9.91,10.79,15.93,19.57,20.57s18.6,12,17.42,21.83c-1.37,11.49-15.89,15.4-27.43,16.18C774.42,646.58,727.58,621.3,757,594.73Z" transform="translate(0 0.01)"/><path class="cls-8" d="M824.75,583c-3,3.33-6.06,7.33-5.6,11.79.32,3.06,2.25,5.66,3.9,8.25a55.87,55.87,0,0,1,7.78,19.65c5.31-1.76,7.91-7.56,11.66-11.72,4.94-5.47,12.13-8.21,18.4-12.08s12.24-10,11.82-17.41c-.51-8.73-12.32-19-21.09-19C841.05,562.45,831.11,575.92,824.75,583Z" transform="translate(0 0.01)"/><path class="cls-9" d="M274.43,402.68c-9.49,9.09-15.21,22.46-13.56,35.5,2,15.51,14.3,28.63,29.09,33.71s31.47,2.82,45.59-3.9,25.92-17.6,35.88-29.66c8.54-10.34,16.16-22.5,16.29-35.9C388,379,361,356.55,340.53,372.8c-9.45,7.49-13.06,11.62-25.78,13.68C299.73,388.9,285.89,391.71,274.43,402.68Z" transform="translate(0 0.01)"/><path class="cls-9" d="M195.54,392.73c.26,5.93,4.33,11.24,9.48,14.18s11.26,3.8,17.19,3.77c19-.06,84.2-37.29,44.62-53.24C250.06,350.68,194.67,372.89,195.54,392.73Z" transform="translate(0 0.01)"/><path class="cls-9" d="M363.28,305.51c-7.55-.78-14.68,5.6-16.12,13.06s1.95,15.26,7.38,20.57,12.63,8.43,19.93,10.53c4.75,1.37,10.35,2.2,14.24-.85,3.39-2.66,4.29-7.42,4.21-11.73a38.37,38.37,0,0,0-9.73-24.68c-4.81-5.35-13.19-9.28-19-5Z" transform="translate(0 0.01)"/><path class="cls-9" d="M486.36,805c-13-1.56-28.18-6.79-31.1-19.55-2.1-9.19,3.57-18.66,11.15-24.27s16.82-8.35,25.58-11.83,17.63-8.17,22.6-16.18c6.1-9.84,5.13-22.7,10.54-32.93a29,29,0,0,1,47.11-6c6.1,6.69,8.74,15.85,9.83,24.84,3.09,25.47-7.46,40-26.16,54.36C532,791.82,519.49,809,486.36,805Z" transform="translate(0 0.01)"/><path class="cls-9" d="M459.91,692.28A63.6,63.6,0,0,1,471.24,656c2-2.84,4.27-5.59,7.3-7.27,7.41-4.11,17.32-.4,22.4,6.38s6.29,15.7,6.2,24.18-1.32,17-.38,25.39c.48,4.2,1.19,9.23-2,12a10.09,10.09,0,0,1-5.6,1.89C479.83,720.47,460,714.27,459.91,692.28Z" transform="translate(0 0.01)"/><path class="cls-9" d="M677.05,480.47c-2.5,7.72-3.11,16.63,1.09,23.57,5,8.29,15.44,11.58,25.11,12.19,25.52,1.58,51.4-12.16,64.38-34.2,1.9-3.24,3.6-6.94,2.88-10.63-1-5.37-6.59-8.43-11.54-10.77-15.73-7.43-30.36-20-48-14.65C695.37,450.72,682,465.21,677.05,480.47Z" transform="translate(0 0.01)"/><path class="cls-9" d="M778.75,420.27c-5.75-.73-10.8,5.33-10.35,11.1s5.08,10.57,10.41,12.83,11.29,2.43,17.08,2.37c7.77-.08,15.85-.61,22.65-4.38s11.92-11.65,10.11-19.21c-2.23-9.38-13.65-13.71-23.24-12.61s-18.31,5.94-27.66,8.32Z" transform="translate(0 0.01)"/><path class="cls-10" d="M105.08,413.16a74.29,74.29,0,0,0,7.73,61c3.75,6,8.59,11.62,15,14.56s14.71,2.66,19.93-2.11c7-6.38,6.15-17.34,5.71-26.79-1-21.43,5.46-46.5,25.24-54.84,12.72-5.37,27.24-2.16,40.66,1.11l37.88,9.24c14.64,3.58,33.47,5.62,41.6-7.08,7.38-11.53-.88-27.77-13.05-34s-26.56-5.61-40.25-5.53C191.5,369,127,344.17,105.08,413.16Z" transform="translate(0 0.01)"/><path class="cls-10" d="M139,512.89c-5.93-1.85-12.73.68-16.71,5.44-6.28,7.53-5.34,19.56,1,27.07s16.85,10.64,26.58,9.45c12-1.46,24.16-11.57,22.6-23.59-.95-7.32-6.73-13.3-13.38-16.5s-14.15-4.11-21.48-5Z" transform="translate(0 0.01)"/><path class="cls-10" d="M472.46,127.07a202.31,202.31,0,0,1,32.84-.6c4.75.3,9.69.83,13.73,3.35,5.67,3.51,8.49,10.2,10,16.68,5.42,22.55-.43,46.37,2.8,69.33.83,5.93,2.63,12.32,7.57,15.7,7.33,5,18.06.4,22.62-7.22s4.6-17,4.35-25.87q-.85-30.3-4.13-60.46c-1.26-11.59-3.42-24.34-12.47-31.69-8.45-6.86-20.35-6.92-31.22-6.65-16.1.39-56.38-6.16-69.32,4.33C429.35,120.12,459.4,128.08,472.46,127.07Z" transform="translate(0 0.01)"/><path class="cls-10" d="M556.1,639.06c-1.83,8.6-.78,17.52-.1,26.29a309.76,309.76,0,0,1-2.8,71.8c-1.8,11.45-4.21,23.35-.82,34.43s15,20.65,26.08,17.15c6.24-2,10.76-7.64,13-13.78s2.51-12.81,2.68-19.34a749.61,749.61,0,0,0-3.77-96.87c-1-10,.41-34.2-11.08-39C567.45,614.77,558.17,629.32,556.1,639.06Z" transform="translate(0 0.01)"/><path class="cls-3" d="M300,597.81c5.32-.5,10.68.13,16,0,16.23-.28,31.5-7.14,46.76-12.7a309.45,309.45,0,0,1,91.75-18.33c-15,7.08-31.18,11.42-46.13,18.62a133.66,133.66,0,0,0-56.27,51.38c-7.31-9-20.67-11-31.83-7.92s-20.65,10.26-29.84,17.29Q269.77,662,249.07,677.85c-1.68,1.29-5.91-25.09-5.38-28.07,1.81-10.06,5.68-12.38,11.57-19.68C266.87,615.7,280.2,599.69,300,597.81Z" transform="translate(0 0.01)"/></g></g></g></svg>