<svg xmlns="http://www.w3.org/2000/svg" xmlns:xlink="http://www.w3.org/1999/xlink" viewBox="0 0 128.66 51.55"><defs><style>.cls-1{fill:none;}.cls-2{clip-path:url(#clip-path);}.cls-3{fill:#a1b8bf;}</style><clipPath id="clip-path" transform="translate(-1.46 -2.16)"><rect class="cls-1" width="130.12" height="53.71"/></clipPath></defs><g id="Layer_2" data-name="Layer 2"><g id="Layer_1-2" data-name="Layer 1"><g class="cls-2"><path class="cls-3" d="M1.46,27.89a29,29,0,0,1,2-11.06,22.28,22.28,0,0,1,13.39-13,28.92,28.92,0,0,1,10-1.68,28.92,28.92,0,0,1,10,1.68,23.32,23.32,0,0,1,8.06,4.93,22.57,22.57,0,0,1,5.41,8.06,29,29,0,0,1,2,11.06A30,30,0,0,1,50.28,39,22.44,22.44,0,0,1,45,47.09,22.64,22.64,0,0,1,36.89,52a29.25,29.25,0,0,1-10.1,1.69A28.79,28.79,0,0,1,16.69,52a22.53,22.53,0,0,1-8-5,23.34,23.34,0,0,1-5.29-8.09,29.48,29.48,0,0,1-1.92-11Zm14.43,0q0,7.3,3,10.91a9.77,9.77,0,0,0,7.94,3.6,9.82,9.82,0,0,0,8-3.6q3-3.61,3-10.91T34.85,17.07a9.71,9.71,0,0,0-8-3.61,9.89,9.89,0,0,0-8,3.57q-3,3.57-3,10.86ZM90.24,3.68a9.48,9.48,0,0,1,1,2.36,10.59,10.59,0,0,1,.44,3.09c0,2.08-.44,3.57-1.32,4.45a4.82,4.82,0,0,1-3.57,1.32H70V24H87.51a7.91,7.91,0,0,1,1.09,2.33,10.44,10.44,0,0,1,.44,3c0,2-.44,3.49-1.33,4.37A4.78,4.78,0,0,1,84.15,35h-14V51.94a21.75,21.75,0,0,1-2.76.48,29.39,29.39,0,0,1-3.72.24,16.39,16.39,0,0,1-3.25-.28,5.67,5.67,0,0,1-2.37-1,4.34,4.34,0,0,1-1.44-2A9.83,9.83,0,0,1,56.09,46V11.14a7.37,7.37,0,0,1,2-5.46,7.39,7.39,0,0,1,5.45-2Zm38.44,0a9.48,9.48,0,0,1,1,2.36,10.94,10.94,0,0,1,.44,3.09c0,2.08-.44,3.57-1.33,4.45a4.82,4.82,0,0,1-3.56,1.32H108.39V24H126A7.67,7.67,0,0,1,127,26.29a10.12,10.12,0,0,1,.44,3c0,2-.44,3.49-1.32,4.37A4.79,4.79,0,0,1,122.58,35h-14V51.94a22.34,22.34,0,0,1-2.77.48,29.27,29.27,0,0,1-3.72.24,16.46,16.46,0,0,1-3.25-.28,5.73,5.73,0,0,1-2.37-1,4.34,4.34,0,0,1-1.44-2A9.83,9.83,0,0,1,94.52,46V11.14a7.41,7.41,0,0,1,2-5.46,7.4,7.4,0,0,1,5.45-2Z" transform="translate(-1.46 -2.16)"/></g></g></g></svg>