<svg id="Layer_1" data-name="Layer 1" xmlns="http://www.w3.org/2000/svg" xmlns:xlink="http://www.w3.org/1999/xlink" viewBox="0 0 258.46 135.07"><defs><style>.cls-1{fill:none;}.cls-2{clip-path:url(#clip-path);}.cls-3{fill:#68ea5e;}</style><clipPath id="clip-path" transform="translate(-70.77 -82.46)"><polygon class="cls-1" points="135.9 49.64 138 48.73 140.18 48.01 143.31 47.02 148.11 45.53 153.42 44.05 156.66 43.23 167.49 40.93 174.18 39.82 179.83 39.06 185.87 38.41 193.17 37.85 201.44 37.4 206.74 37.4 216.25 37.53 222.98 37.84 228.61 38.25 234.07 38.78 238.18 39.27 245.06 40.28 249.35 41.03 254.97 42.17 260.76 43.52 266.76 45.13 271.11 46.43 275.6 47.91 280.37 49.64 283.7 50.95 287.14 52.4 291.54 54.4 296.69 56.98 300.9 59.29 304.06 61.16 308.15 63.75 312.96 67.09 315.88 69.29 318.39 71.32 321.19 73.72 324.9 77.18 330.42 83.03 333.35 86.53 335.94 89.93 338.65 93.81 342.38 99.88 344.3 103.52 347.1 109.32 350.15 117.45 351.81 123.14 353.12 128.91 354.2 135.55 354.95 142.99 355.24 151.71 355.24 158.06 354.52 164.4 354.06 168.95 353.12 175.05 351.09 183.66 348.76 190.24 345.79 197.42 340.79 206.92 335.97 214.23 331.66 219.77 325.03 226.97 319.86 231.72 313.24 236.98 301.33 244.67 292.33 249.37 280.61 254.33 267.53 258.61 255.37 261.62 249.74 262.74 238.23 264.52 227.84 265.59 217.19 266.36 208.14 266.36 195.19 266.03 184.7 265.24 173.14 263.79 163.03 261.98 158.82 261.06 151.44 259.2 141.8 256.27 135.9 254 130.75 252.08 123.66 248.85 115.77 244.67 110.08 241.2 103.26 236.45 97.87 232.14 91.89 226.65 85.95 220.26 82.62 216.15 76.9 207.93 73.08 201.34 68.16 190.48 64.98 180.49 63.37 173.21 62.18 165.02 61.48 153.28 61.48 142.87 62.63 134.74 63.97 127.14 65.75 120.09 70.02 108.42 74.98 98.77 81.04 89.54 86.08 83.22 93 75.94 100.85 69.15 109.12 63.2 116.79 58.54 124.63 54.47 135.9 49.64"/></clipPath></defs><g class="cls-2"><path class="cls-3" d="M70.77,149.9q0-16.4,5.15-29a58.56,58.56,0,0,1,35.08-34,75.73,75.73,0,0,1,26.16-4.41,75.58,75.58,0,0,1,26.14,4.41A61.05,61.05,0,0,1,184.42,99.8a59.16,59.16,0,0,1,14.17,21.1q5.16,12.61,5.16,29T198.7,179a58.69,58.69,0,0,1-14,21.21,59.76,59.76,0,0,1-21.12,12.92,77.21,77.21,0,0,1-26.46,4.42A75.66,75.66,0,0,1,110.68,213a59,59,0,0,1-21-13.13,60.89,60.89,0,0,1-13.86-21.21q-5-12.62-5-28.78Zm37.81,0q0,19.11,7.78,28.56t20.8,9.46q13.23,0,21-9.46t7.78-28.56q0-18.92-7.67-28.36c-5.13-6.31-12.08-9.46-20.91-9.46s-15.64,3.12-20.89,9.35-7.89,15.72-7.89,28.47Zm220.65,59.44a19,19,0,0,1-8.5,4.51,49,49,0,0,1-13.35,1.58,46.26,46.26,0,0,1-14.69-2.31c-4.61-1.54-8.41-5.25-11.34-11.13l-20.8-42.43c-2.11-4.34-4-8.44-5.67-12.29s-3.51-8.3-5.46-13.34l-1.26.21q.83,11.34.94,23.11t.1,23.1v32.56a57.88,57.88,0,0,1-7,1.26,70.76,70.76,0,0,1-9.36.63,47.68,47.68,0,0,1-8.19-.63,12.63,12.63,0,0,1-5.88-2.52,12.12,12.12,0,0,1-3.57-5.14,24.24,24.24,0,0,1-1.25-8.51V93a17.61,17.61,0,0,1,9-6.29,39.3,39.3,0,0,1,13-2.1A45.31,45.31,0,0,1,250.78,87q7,2.42,11.25,11l21,42.43c2.1,4.34,4,8.44,5.67,12.29s3.49,8.29,5.45,13.34l1.06-.22q-.84-11.32-1.06-22.68t-.2-22.69v-34a58.51,58.51,0,0,1,7-1.26,70.66,70.66,0,0,1,9.34-.62c6.17,0,10.85,1.08,14.08,3.25s4.82,6.69,4.82,13.55v108Z" transform="translate(-70.77 -82.46)"/></g></svg>