<svg id="Layer_1" data-name="Layer 1" xmlns="http://www.w3.org/2000/svg" viewBox="0 0 880.12 907.13"><defs><style>.cls-1{fill:#9a3838;}.cls-2{fill:#a03f3f;}.cls-3{fill:#a44343;}.cls-4{fill:#a64646;}.cls-5{fill:#aa4846;}.cls-6{fill:#9d3c3c;}.cls-7{fill:#a44242;}.cls-8{fill:#ac4b4b;isolation:isolate;opacity:0.35;}</style></defs><g id="Layer_2" data-name="Layer 2"><g id="Layer_1-2" data-name="Layer 1-2"><path class="cls-1" d="M803.77,907.13l76.35-70s-21.21-190-17-238.17,17-174.9,17-174.9V50.67L794.48,0S531.88,109.91,491.59,124.8s-289,156.93-289,156.93L8.48,424.06,0,488.9c21.33,44,191,143.3,242.8,173.1,57.41,33,155,66.68,280.05,128.49C664.5,860.47,803.77,907.13,803.77,907.13Z" transform="translate(0 0)"/><path class="cls-2" d="M787.69,883.38l71.95-66s-20-179.11-16-224.46,16-164.79,16-164.79V76.26L778.93,28.51S531.46,132.13,493.49,146.13,221.12,294,221.12,294L38.21,428.13l-8,61.1c20.1,41.45,180,135,228.81,163.13,54.11,31.13,146,62.84,263.92,121.09C656.43,839.41,787.69,883.38,787.69,883.38Z" transform="translate(0 0)"/><path class="cls-3" d="M30.22,489.24c20.1,41.45,180,135,228.81,163.13C313.14,683.5,405,715.21,523,773.46c133.48,65.95,264.74,109.92,264.74,109.92l71.95-66s-20-179.11-16-224.46,16-164.79,16-164.79V76.26l-.42-.25c-20.1,12.4-40.39,37.62-55.5,51.48-23.06,21.15-45.64,42.84-67.49,65.25-24.72,25.36-48.56,51.68-75.32,74.88-33.32,28.89-70.74,52.57-108,76.14C465,399.36,375.8,455.56,276.61,486.93c-22.36,7.07-45.4,12.88-68.84,13.08-53.57.44-106.06-28.33-158.71-18.42a79.48,79.48,0,0,0-18.61,6Z" transform="translate(0 0)"/><path class="cls-4" d="M712.73,789.91,769,738.38S753.33,598.44,756.46,563,769,434.22,769,434.22V159.29L705.89,122s-193.35,80.93-223,91.89S270.12,329.42,270.12,329.42l-143,104.8L120.88,482c15.7,32.39,140.65,105.52,178.78,127.46,42.27,24.32,114.1,49.1,206.2,94.6C610.18,755.56,712.73,789.91,712.73,789.91Z" transform="translate(0 0)"/><path class="cls-5" d="M755,307v104.8s-9.37,93.35-12.49,128.78S755,715.94,755,715.94l-56.22,51.53S596.19,733.13,491.9,681.58C399.8,636.08,328,611.3,285.7,587c-32.18-18.52-126.18-73.49-164.19-109.66l-.6,4.64c15.7,32.39,140.65,105.52,178.78,127.46,42.27,24.32,114.1,49.1,206.2,94.6,104.29,51.54,206.84,85.89,206.84,85.89L769,738.38S753.33,598.44,756.46,563,769,434.22,769,434.22V159.29L755,151Z" transform="translate(0 0)"/><path class="cls-4" d="M838.6,824.24c3.42-3.11,7.07-6.7,7.52-11.32.65-6.22-4.66-11.36-9.87-14.82-17.3-11.47-38.67-16.38-54.47-29.85-5.46-4.65-11.36-10.67-18.44-9.56-4.11.64-7.41,3.63-10.45,6.48-8.45,7.93-17.63,17.87-15.82,29.32,1.08,6.84,5.94,12.36,10.13,17.88a117.66,117.66,0,0,1,15.32,26.76c2.6,6.37,4.6,13,8.18,18.88,10.42,17.33,20.06,10.12,31.87-.73Z" transform="translate(0 0)"/><path class="cls-4" d="M844.64,481.3c1.3-5.52,2.7-11.17,1.93-16.79s-4.26-11.25-9.72-12.75c-2.91-.8-6-.35-9,.33a58.81,58.81,0,0,0-33.94,22.47c-11,15.1-14,34.38-16.81,52.85l-6.75,45.32c-1,6.76-2,13.72-.4,20.37s6.49,13,13.17,14.23c4.19.77,8.47-.49,12.54-1.78,8.25-2.6,29-5.62,34.19-12.74,4.94-6.73,2-25.36,2.66-33.59A513.92,513.92,0,0,1,844.64,481.3Z" transform="translate(0 0)"/><path class="cls-4" d="M847.65,135.89c-.36-3.46-.9-7-2.77-10-2.87-4.53-8.59-6.74-13.94-6.35s-10.33,3-14.45,6.49c-11.73,9.8-16.92,25.16-21.59,39.71s-9.29,29-10.61,44.14c-1.29,14.77.66,29.6,1.59,44.4,2.66,42-2.85,84.24.61,126.17.49,5.94,1.53,12.56,6.28,16.15a6.87,6.87,0,0,0,4.9,1.58c3.84-.49,5.62-5,6.4-8.75,3.93-19.09,1.78-38.82,1.55-58.3a295.41,295.41,0,0,1,8.71-74.67c2.77-11.09,6.22-22.13,12-32,4.34-7.46,9.93-14.15,14.08-21.73C849.9,185.36,849.68,155.13,847.65,135.89Z" transform="translate(0 0)"/><path class="cls-4" d="M244.34,598.46c-1-8.61-9.89-13.66-17.59-17.65a335.48,335.48,0,0,1-41.91-25.73,221.94,221.94,0,0,1-27.31-22.78c-5.17-5.16-10-10.69-15.73-15.26-17.54-14-41-17.53-63.25-20.54-6-.81-13.43-1-16.63,4.15-3.36,5.39.7,12.38,5.43,16.6,11.56,10.29,27.17,14.37,41.33,20.62,33,14.57,58.77,41.36,85.18,66,7.55,7,21.19,19.77,32.78,17C234.85,618.8,245.35,607.13,244.34,598.46Z" transform="translate(0 0)"/><path class="cls-4" d="M739.72,845.13l-20.47-24c-4.77-5.58-9.56-11.2-15.22-15.89-16.24-13.44-37.79-18-57.9-24.27-43.71-13.71-83.48-37.44-125.11-56.56-3.62-1.67-7.44-3.34-11.42-3.17s-8.17,2.79-8.75,6.73c-.44,3,1.22,5.89,3,8.31,8.28,11.09,20.66,18.26,32.81,24.9,44,24,89.47,45.18,134.94,66.29l48.1,22.32c4.2,1.94,17,10.73,21.62,8.73C747.54,855.83,742.92,848.87,739.72,845.13Z" transform="translate(0 0)"/><path class="cls-6" d="M822.24,77.7c.68-1.11,1.37-2.39,1-3.65a4.89,4.89,0,0,0-2.12-2.43L793.58,51.78c-3.75-2.7-7.61-5.45-12.08-6.6-10.82-2.8-21.82,4.59-28.58,13.49s-11,19.59-18.43,28c-4.58,5.18-10.6,10-11.57,16.81-.92,6.51,3.18,12.71,8,17.22C769.39,157.05,802.81,109.5,822.24,77.7Z" transform="translate(0 0)"/><path class="cls-6" d="M253.31,332.13c20.35-11.59,42.24-23.2,54.22-43.32-17-5.61-34.69,4.85-49.67,14.63A1763.32,1763.32,0,0,1,70.47,410c-4,2-8.6,4.82-8.57,9.27.05,6.11,8.19,8.09,14.29,8,38.75-.58,53.85-9.33,83.27-32.28A780.39,780.39,0,0,1,253.31,332.13Z" transform="translate(0 0)"/><path class="cls-6" d="M632.12,136.76c-36.34,13.58-74.41,23.36-108.17,42.45-21.36,12.08-41.05,27.91-64.59,34.85-1.14-4.75,3-9,6.88-12,55-42.89,125.27-61.23,183.69-99.31,10.91-7.11,21.41-14.91,32.93-21,6.74-3.54,26.57-15.13,33.77-9.61,11.11,8.5-7.2,21.18-13,26C682.61,115.59,657.45,127.3,632.12,136.76Z" transform="translate(0 0)"/><path class="cls-1" d="M433.22,231.46c9.35,6.09,9.38,19.69,15.2,29.22,4.69,7.68,13,12.34,21.15,16.1a198.76,198.76,0,0,0,63.84,17.27c-10,10.7-20.21,21.84-25,35.67s-2.46,31.21,9.26,40c-8.22,4.11-16.39-7-16.23-16.18s4-18.79.49-27.29-13.12-12.54-22.16-13.43-18.18.67-27.21-.26c-3-.3-6.23-1.1-7.77-3.64-2.24-3.7.55-8.26,1.39-12.5,2.42-12.23-11.6-21-23.66-24.14a138.29,138.29,0,0,0-34.29-4.47c-6.06,0-13,0-16.93-4.68-5-6-1.56-15.72-5.72-22.31-1.91-3-5.17-4.94-7.46-7.68-7.24-8.67-2.69-22,4-31.11,9.81-13.41,40.2-38.3,54.68-18.28,7.56,10.46-1.1,18.61-.86,28.51C416.33,227.23,421.33,223.72,433.22,231.46Z" transform="translate(0 0)"/><path class="cls-1" d="M377,667.87c.16-7.11-2.2-14.15-1.63-21.25C376.52,631.85,390,621,403.8,615.51s28.91-7.43,42-14.33q-4.59-12.85-9.17-25.72a21.47,21.47,0,0,1-1.62-6.79c-.07-3.37,1.42-6.54,2.88-9.58q9.94-20.69,19.88-41.39l-33.33,24.07c-5.54,4-11.29,8.23-14.44,14.3s-2.81,14.55,2.64,18.69a98.61,98.61,0,0,1-44,11.07c-7.14.1-15.16-.28-20.39,4.58-10.46,9.75.93,27.32-2.07,41.3l-39.65,17.42c-8.38,3.67-18.07,9.18-18.34,18.32-.24,7.93,7,13.94,13.92,17.76C324.57,697.55,376.05,708.65,377,667.87Z" transform="translate(0 0)"/><path class="cls-1" d="M851.5,337.72c-6.88,2-14.21,0-21.25-1.43s-15-2.06-20.77,2.2c-3.7,2.72-6.23,7.27-10.64,8.54-2.48.72-5.12.25-7.66-.19-11.77-2-23.86-3.21-35.65-1.24a68.6,68.6,0,0,0-49.9,37.78c-3.35,7.11-6.6,15.87-14.26,17.67-7.29,1.72-14-4.11-19-9.75a185.47,185.47,0,0,1-31.51-50.79A70.55,70.55,0,0,0,669,366.65c2.41,1.23,5.18,2.34,7.75,1.51,3.34-1.08,4.86-4.86,5.91-8.21a418,418,0,0,0,11.19-43.82c1.44,4.39,8.15,2,11.36-1.34,9.33-9.62,18.63-22.14,32-22.28,6.15-.07,12.1,2.65,18.24,2.34,13.67-.69,21.72-15,29.23-26.41s22.38-22.51,33.61-14.69c3.18,2.21,5.76,5.83,9.61,6.21,3.51.34,6.57-2.18,9.19-4.54l25.82-23.29c1.81-1.64,4.4-3.36,6.46-2a5.57,5.57,0,0,1,1.92,3.25A112.88,112.88,0,0,1,873,291.64C870.43,302.54,863.66,334.13,851.5,337.72Z" transform="translate(0 0)"/><path class="cls-7" d="M286,479.87c-.58-8-4.35-15.53-5-23.54-1.64-21.65,19.78-41.07,15.25-62.31-2.81-13.22-16-22.77-29.52-23.49s-26.6,6.23-35.6,16.34-14.19,23.06-17.35,36.21A141.92,141.92,0,0,0,210,463.22c1,20.23,11.71,44.3,33.65,49.28C264.12,517.13,287.56,501.9,286,479.87Z" transform="translate(0 0)"/><path class="cls-7" d="M377.32,530c4.37-8.36,6.16-18.94,1.35-27.06-4.61-7.84-14.55-11.43-23.55-10.19s-16.93,6.69-22.95,13.46c-5.27,5.93-9.54,13.14-16.48,17-4.37,2.42-9.39,3.26-14.25,4.39-7.17,1.66-14.54,4.24-19.39,9.78s-6.14,14.76-1,20.07c3,3.12,7.42,4.31,11.67,5.07C322.2,567.8,362.28,558.73,377.32,530Z" transform="translate(0 0)"/><path class="cls-7" d="M180.29,469.22c6.67.45,11.91-5.44,15.61-11,4.35-6.56,8.31-14.21,7-22-2.08-11.92-17.32-18.43-28.47-13.72s-17.31,17.63-16.64,29.75c.17,3,.87,6.31,3.26,8.15,4.91,3.8,12.87-1.13,18,2.35Z" transform="translate(0 0)"/><path class="cls-7" d="M716.32,207.79c1.14-7.28.68-15.22-3.52-21.27s-12-9.43-19.47-10-15,1.34-22.19,3.59a204.8,204.8,0,0,0-37.71,16.07c-10.33,5.69-20.51,12.63-26.44,22.83s-6.42,24.34,1.63,33c6.52,7,16.83,8.85,26.39,9.07C668.4,261.87,710.58,244.39,716.32,207.79Z" transform="translate(0 0)"/><path class="cls-7" d="M545,278.34a57.46,57.46,0,0,0,32.25-38c.61-2.41,1-5.22-.54-7.19-1.16-1.49-3.11-2.08-4.94-2.54a97.19,97.19,0,0,0-55.12,2.55c-7,2.45-14.28,6.26-17.21,13.08-4.06,9.46,2.47,20.79,11.56,25.64s19.89,4.9,30.19,4.85Z" transform="translate(0 0)"/><path class="cls-7" d="M660.75,709.87c2.55-3.58,4.48-8.13,3.14-12.32-1.2-3.77-4.71-6.27-8.16-8.22-12.71-7.18-27.23-10.53-40.47-16.69a103.39,103.39,0,0,1-27.91-19.09c-9.76-9.35-20.43-21.67-33.74-19.34-9.14,1.59-15.85,10.5-16.79,19.72s3,18.41,8.8,25.64S559,692.4,566.42,697.9L587,713.08c5.19,3.83,10.47,7.71,16.53,9.89C620.78,729.19,649.51,725.63,660.75,709.87Z" transform="translate(0 0)"/><path class="cls-7" d="M740.2,698.82c3.24-16.82-4.47-34.88-18-45.44-5.67-4.44-12.52-7.74-19.72-7.9s-14.72,3.28-18.17,9.6c-8.65,15.84,11.55,35.14,5.93,52.28-1.68,5.11-5.5,9.26-7.55,14.24s-1.45,11.94,3.45,14.17C706.12,744.82,736.81,716.45,740.2,698.82Z" transform="translate(0 0)"/><path class="cls-7" d="M633,654.08c17.37,1.19,33.91-14.85,33.26-32.25a16.85,16.85,0,0,0-2.72-9.27c-2.46-3.43-6.57-5.21-10.54-6.64-7.08-2.54-14.53-4.45-22-4s-15.11,3.55-19.71,9.49c-5.78,7.47-5.76,18.51-1,26.67s13.55,13.49,22.81,15.28Z" transform="translate(0 0)"/><path class="cls-8" d="M714.65,681.55c12.1-24.75,10.45-53.75,7.92-81.18-2.86-31-6.57-62.26-17-91.59-4.07-11.4-12.88-24.53-24.73-22.06-8.45,1.76-13.06,10.76-16,18.89-10.32,28.8-14.36,59.71-13,90.27.56,12,1.94,24.17-.11,36s-8.22,23.75-18.95,29.2c-14.19,7.22-33.35,7.1-29.54,28.55,2.33,13.09,16.29,27.57,28.77,31.56C660.71,730.41,702.3,706.79,714.65,681.55Z" transform="translate(0 0)"/><path class="cls-8" d="M679.59,463c9.18.19,18.73.3,27-3.58s15-13,12.82-22c-2.55-10.63-15.17-15.13-26.06-16.2-8.79-.86-18-.57-25.88,3.53s-13.73,12.85-12.21,21.55c2,11.37,15.79,17.53,27.05,15Z" transform="translate(0 0)"/><path class="cls-8" d="M324.81,397.4C348,390,373.1,383.7,389.48,365.74c4.74-5.19,8.71-11.74,8.36-18.77-.62-12.51-15-20.55-27.49-19.25s-23.19,9-33.47,16.17a670.89,670.89,0,0,1-144.44,76.36c-17,6.45-45.15,16.92-43.09,39.95,2.16,24.11,26.13,16.21,40.22,7.64C234.12,440.68,274.35,413.53,324.81,397.4Z" transform="translate(0 0)"/></g></g></svg>