<svg xmlns="http://www.w3.org/2000/svg" xmlns:xlink="http://www.w3.org/1999/xlink" viewBox="0 0 169.78 161.47"><defs><style>.cls-1{isolation:isolate;}.cls-2{fill:url(#radial-gradient);}.cls-3{opacity:0.4;}.cls-4,.cls-5{fill:#f39700;}.cls-5{mix-blend-mode:multiply;}.cls-6{fill:#fff;}.cls-6,.cls-7,.cls-8,.cls-9{mix-blend-mode:screen;opacity:0.7;}.cls-7{fill:url(#Gold_Radial);}.cls-8{fill:url(#Gold_Radial-2);}.cls-9{fill:url(#Gold_Radial-3);}</style><radialGradient id="radial-gradient" cx="30.07" cy="16.19" r="179.42" gradientUnits="userSpaceOnUse"><stop offset="0" stop-color="#fffad2"/><stop offset="0.07" stop-color="#fcf2c1"/><stop offset="0.2" stop-color="#f3df94"/><stop offset="0.21" stop-color="#f2dc8e"/><stop offset="0.48" stop-color="#f0bf00"/><stop offset="1" stop-color="#ff8f1a"/></radialGradient><radialGradient id="Gold_Radial" cx="111.38" cy="124.19" r="29.46" gradientUnits="userSpaceOnUse"><stop offset="0" stop-color="#fffad2"/><stop offset="0.11" stop-color="#fcf2c1"/><stop offset="0.34" stop-color="#f3df94"/><stop offset="0.37" stop-color="#f2dc8e"/><stop offset="0.69" stop-color="#f0bf00"/><stop offset="1" stop-color="#c9961a"/></radialGradient><radialGradient id="Gold_Radial-2" cx="60.14" cy="125.03" r="29.08" xlink:href="#Gold_Radial"/><radialGradient id="Gold_Radial-3" cx="43.51" cy="76.53" r="28.92" xlink:href="#Gold_Radial"/></defs><g class="cls-1"><g id="Layer_2" data-name="Layer 2"><g id="Layer_1-2" data-name="Layer 1"><polygon class="cls-2" points="84.89 0 111.12 53.16 169.78 61.68 127.34 103.05 137.35 161.47 84.89 133.89 32.43 161.47 42.45 103.05 0 61.68 58.66 53.16 84.89 0"/><g class="cls-3"><rect class="cls-4" x="84.89" y="89.26"/><rect class="cls-4" x="84.89" y="89.26"/><polygon class="cls-5" points="111.12 53.16 84.89 0 84.89 89.26 111.12 53.16"/><polygon class="cls-4" points="84.89 89.26 84.89 89.26 84.89 89.26 84.89 89.26"/><rect class="cls-4" x="84.89" y="89.26"/><polygon class="cls-4" points="84.89 89.26 84.89 89.26 84.89 89.26 84.89 89.26"/><polygon class="cls-5" points="84.89 89.26 84.89 89.26 127.34 103.05 169.78 61.68 84.89 89.26"/><polygon class="cls-5" points="84.89 133.89 137.35 161.47 84.89 89.26 84.89 133.89"/><polygon class="cls-5" points="42.45 103.05 32.43 161.47 84.89 89.26 42.45 103.05"/><polygon class="cls-5" points="84.89 89.26 58.66 53.16 0 61.68 84.89 89.26 84.89 89.26"/></g><polygon class="cls-6" points="84.09 3.35 82.64 65.06 84.45 87.28 84.39 73.27 84.09 3.35"/><polygon class="cls-6" points="87.47 87.28 166.44 61.92 108.96 78.82 87.47 87.28"/><polygon class="cls-7" points="86.74 90.58 136.01 157.79 104.61 112.15 86.74 90.58"/><polygon class="cls-8" points="84 91.54 36.27 158.52 69.84 114.32 84 91.54"/><polygon class="cls-9" points="4.63 63.85 82.4 89.21 59.94 84.14 4.63 63.85"/></g></g></g></svg>