<svg xmlns="http://www.w3.org/2000/svg" xmlns:xlink="http://www.w3.org/1999/xlink" viewBox="0 0 1083.32 336.28"><defs><style>.cls-1{fill:none;}.cls-2{clip-path:url(#clip-path);}.cls-3{fill:#885252;}.cls-4{fill:#9b6565;}.cls-5{fill:#a26e6e;}.cls-6{fill:#aa7776;}.cls-7{fill:#b17f78;}.cls-8{fill:#925c5c;}.cls-9{fill:#a36d6d;}.cls-10{fill:#bb8585;opacity:0.35;}</style><clipPath id="clip-path" transform="translate(0.06 0)"><path class="cls-1" d="M57.35,1.11H69.26L82.35.89,135,1.11,200.78,0H310.7l64.8.55,43.2.56,53.28.8,35.1,1.46,35.44,2.3,30.26,2.58L604,10.78l13,.77,14.38.61,28.81.55,19.66,0,29.28-.42,35.06-.65L776.77,11l49.45-1,39.14-.82,42.93-.92L964,7l50-1.11,11.84-.26,54.89,64.73-1.53,32.23-1,37.16-.06,17.29.75,24.87,1.83,16.72,1.2,8.35.91,11.69V240.1l-.24,32.13-1.87,32.5-41,26.1L990.38,332l-88.32,2.08-78.72,2.21h-19.2l-25.07-1.63-49.87-2.74-64.28-3.54-65.59-3.61-29.28.18-41.92.49-33.11.38-33.12.39-45.6.52-40.33.47-48.47.56-55.69.65-57.11.66-36.62.43-48.32.56-67.31.78L52.79,319l-31.7-38.91-8.26-32L7.29,226.55,4.13,202.29l-2.4-23.21L0,139.78l.47-8.15,7.8-33.5L15.53,67l5.56-23.9Z"/></clipPath></defs><g id="Layer_2" data-name="Layer 2"><g id="Layer_2-2" data-name="Layer 2"><g class="cls-2"><path class="cls-3" d="M57.35,1.11l-36.26,42L.47,131.63c-2.88,29.77,6.82,94.92,6.82,94.92l13.8,53.52,41.36,50.76,534.45-6.2,211.65,11.65,231.14-5.45,41-26.1s5.85-75,0-106.08,0-128.27,0-128.27L1025.76,5.65S812,10.49,697.62,12.46,583,5.2,466.11,1.72,57.35,1.11,57.35,1.11Z" transform="translate(0.06 0)"/><path class="cls-4" d="M69.38,19.16,31.89,50.65,21.48,137.88C18.7,165,31.8,226.55,31.8,226.55l1.33,49,48.23,43.59,516.33-5.64,204.48,10.6,223.31-5,39.57-23.75s5.65-68.29,0-96.54,0-116.74,0-116.74l-53-58.91s-206.53,4.4-317,6.2-110.7-6.61-223.66-9.77S69.38,19.16,69.38,19.16Z" transform="translate(0.06 0)"/><path class="cls-5" d="M695,29.43c-110.49,1.79-110.7-6.61-223.66-9.77S60.72,14.58,60.72,14.58L31.89,50.65,12.24,137.88c-2.78,27.09,9.24,84.49,9.24,84.49l11.65,53.21,48,43.4c24.35-15.91,50.51-32.46,73.19-49.35,15.71-11.7,28.25-25,45.19-36,20.25-13.14,45.94-22.39,71.37-31.31C325,183.32,379.76,165,437.57,151c157.75-38,330.37-41.41,499.19-46,39.41-1.06,80-2.4,115.6-13.12a100.06,100.06,0,0,0,11.33-4.11c.85-3.62,1.36-5.69,1.36-5.69l-53-58.91S805.49,27.63,695,29.43Z" transform="translate(0.06 0)"/><path class="cls-6" d="M157.12,59.82,87.85,76,89,145.09c-2.48,20.71-10.37,62.16-10.37,62.16L89,247.9l43,33.31,460.12-4.31L774.26,285l199-3.79,35.27-18.14s-10.08-49.31-15.12-70.89,15.12-92.08,15.12-92.08l-47.26-45s-184,3.37-282.5,4.74-98.65-5-199.31-7.46S157.12,59.82,157.12,59.82Z" transform="translate(0.06 0)"/><path class="cls-7" d="M88,219.08s7.89-41.46,10.38-62.16l-1.1-69.06,69.27-16.21s221.66-9.88,322.32-7.46S589.72,73,688.18,71.65s282.5-4.74,282.5-4.74l37.2,35.44c.4-1.45.64-2.25.64-2.25l-47.26-45s-184,3.37-282.5,4.74-98.65-5-199.31-7.46-322.33,7.46-322.33,7.46L87.85,76,89,145.09c-2.48,20.71-10.37,62.16-10.37,62.16L89,247.9l8,6.19Z" transform="translate(0.06 0)"/><path class="cls-6" d="M46,58.43,72.1,68a29.56,29.56,0,0,0,7.54,2,33.4,33.4,0,0,0,9.2-.89l45.26-8.75c2.61-.51,5.38-1.08,7.11-2.41,2.38-1.83,2-4.5,1.13-6.79-2.26-5.72-7.25-11-14.16-15a26.24,26.24,0,0,0-12.73-3.87,36.8,36.8,0,0,0-10.75,2C89.07,38.82,73.48,43.41,57.82,47.9c-3.66,1.05-13.32,1.44-16,2.73C33.76,54.53,46,56.26,46,58.43Z" transform="translate(0.06 0)"/><path class="cls-6" d="M41.29,77.77a75.75,75.75,0,0,1,.89,31.47c-1.27,6.92-3.45,14.12.15,20.71,2.08,3.81,6,7.12,9.8,10.36l25.5,21.56c10.09-17.28.8-36.38,1.21-54.79.22-9.66,2.69-20.4-6.72-28C67.7,75.44,61.24,73.12,55,70.89c-3.12-1.11-11.16-5.35-14.86-3.41C37.45,68.87,40.81,75.86,41.29,77.77Z" transform="translate(0.06 0)"/><path class="cls-6" d="M836.4,54c13.55.57,29.91.49,37.17-6.71,3.67-3.64,3.75-8.61.06-12.25s-11-5.7-17.74-4.95c-6.15.69-11.17,3.4-16.77,5.13-7.35,2.27-15.69,2.86-23.84,3.41l-82.49,5.59c-11,.74-62.65-.82-60.13,11.06,27.36.25,55.3-2.42,82.83-2.65C782.52,52.37,809.44,54,836.4,54Z" transform="translate(0.06 0)"/><path class="cls-6" d="M999.31,83.05a45.89,45.89,0,0,0,29.54,7.61,70.28,70.28,0,0,0,14.46-3.53c1.94-.63,4-1.34,4.89-2.59s.42-2.42,0-3.62c-2.87-7.49-8.62-14.41-14.31-21.24L1018.27,41c-1.94-2.34-4.59-5-8.79-5.15-3.51-.15-6.47,1.54-8.83,3.17s-4.51,3.3-5.52,5.34c-1.33,2.71-.36,5.64-.53,8.47-.35,5.91-9.74,9.46-10.27,14.15C983.83,71.42,994.77,79.94,999.31,83.05Z" transform="translate(0.06 0)"/><path class="cls-6" d="M74.38,254.31a10.24,10.24,0,0,0,3.2-2,5.2,5.2,0,0,0,1-3.83c0-2.85,0-5.71-.07-8.56s-.08-5.64-2-8.13c-2.07-2.66-6.28-4.62-10.94-5.09a21.15,21.15,0,0,0-12.91,2.7c-4.62,3-5.5,7.48-8.5,11.2-2.1,2.6-5.26,4.81-7.6,7.33-3.73,4-9.55,20.24,2.19,21.59C44,270.08,69.22,256.78,74.38,254.31Z" transform="translate(0.06 0)"/><path class="cls-6" d="M165.4,49.55c10.51,2.32,22,1.07,33.07.1A616.74,616.74,0,0,1,269,47.48c5.68.16,11.65.35,16.73-1.26s8.62-5.72,5.84-8.83c-1.94-2.18-6.28-3.13-10.26-3s-7.76,1-11.57,1.78c-28,5.47-57.32.49-85.28-2.4-8-.82-29.45-5-34.42.15C144.22,39.89,157.64,47.84,165.4,49.55Z" transform="translate(0.06 0)"/><path class="cls-8" d="M990.15,296.88a77.78,77.78,0,0,1,14,11.31c3.1,3.19,7,7,12.9,6.93s9.35-3.92,12.59-7a46.59,46.59,0,0,1,10.7-7.38c2.87-1.46,6-2.75,8.36-4.54s3.8-4.25,2.6-6.45c-.73-1.31-2.3-2.36-3.7-3.45-2.93-2.26-5.23-4.84-8.29-7-7.27-5.2-18.87-7.87-29.76-6.85-9.63.91-18.88,5-24.57,9.88C978.1,288.26,981.94,291.64,990.15,296.88Z" transform="translate(0.06 0)"/><path class="cls-8" d="M1015.13,251c1,3.14,2,6.34,4.59,9.09,2.4,2.55,6,4.55,9.53,6.51l25.07,13.87c7.22-15.44-5.61-31.5-18.3-45.48-15.51-17.09-32-35.82-27.14-55.25.63-2.51-.41-6.36-4.35-5.77a5,5,0,0,0-3.19,2c-8.59,10.77-1,24.17,2.08,35.25Q1009,231.15,1015.13,251Z" transform="translate(0.06 0)"/><path class="cls-8" d="M1024,107.63l19.45-6.35c1.74-.57,4-1.12,5.53-.37a3.05,3.05,0,0,1,1.54,2c1,3,1.68,6.73-2.1,8.72-2.32,1.23-5.58,1.35-8.56,1.72-9.08,1.13-17.1,5.2-20.75,10.54-3.11,4.53-3.19,10.61-9.53,13.94C994.8,133.11,1014.76,110.63,1024,107.63Z" transform="translate(0.06 0)"/><path class="cls-8" d="M130,301.17c3.46-1.73,6.16-4,9.48-5.81,10.71-5.89,26.13-6.54,40.35-6.9l140.74-3.6c8.59-.22,17.47-.41,25.45,1.59-17.66,7.22-40.51,5.85-61.28,8.13-12.33,1.36-24.17,4.07-36.1,6.46a687.77,687.77,0,0,1-84.25,11.4c-12.62.93-31.21,3.76-43.65,1.88C102.93,311.63,123.19,304.57,130,301.17Z" transform="translate(0.06 0)"/><path class="cls-8" d="M582.6,297.83c-1.47,2.92-2.78,6.43.36,8.77,2.94,2.19,8.23,2.16,12.79,2,38.25-1.06,76.24,3.67,113.74,8.53,6.59.85,13.63,1.69,19.9.14,9.7-2.39,14.05-10.2,11-16.45S728.45,290,718.75,287.59s-20.27-2.92-30.66-3.42L613,280.56c-6.06-.29-17.79-1.5-22.52,1.46C586.34,284.63,584.41,294.23,582.6,297.83Z" transform="translate(0.06 0)"/><path class="cls-3" d="M374.84,294.06c-3.07-1.65-7.22-3.66-6.65-7.1.3-1.87,2-3.13,3.29-4.48,6.11-6.19,5.93-16.25,3.51-24.6s-6.68-16.27-7.47-24.93c-1.25-13.58,6.19-26.6,6.37-40.24.22-17.71-11.57-33-22.76-46.76,12.43,10.61,30.11,17.57,34.77,33.23,1.42,4.74,1.4,9.77,2,14.68C390.1,210.81,400,228,394,244c-1.44,3.86-3.81,7.75-3,11.79.86,4.23,4.89,6.94,8.64,9.07,10.69,6.05,22.08,11.23,31.09,19.58s15.35,20.92,12.4,32.84c-2,7.94-42,7-47.85,3.68C384.67,314.81,386.05,300.09,374.84,294.06Z" transform="translate(0.06 0)"/><path class="cls-3" d="M809.55,109.82c-1.83,7.92.48,16.11,2.22,24.05a168.06,168.06,0,0,1,3.05,52.26q1.44-27.74,2.9-55.47c.14-2.76.33-5.66,1.8-8,2.5-4,7.72-5,12.26-6.28a58.4,58.4,0,0,0,40-39.65c.81-2.84,1.44-5.84,3.31-8.12,6.52-8,21-4.39,29-12.08,7.52-7.19,10.82-20.44,11.72-30.33-20.92-4.22-41.33-1.41-55.23,15.71-8.11,10-12.5,21.51-21.62,30.74C827.92,83.8,813.35,93.38,809.55,109.82Z" transform="translate(0.06 0)"/><path class="cls-3" d="M115.8,53c6.54,5.3,11.21,12.52,15.76,19.61,3,4.64,6.05,9.52,6.62,15,.65,6.32-2.09,12.43-3.57,18.61s-1.27,13.7,3.73,17.63c2.43,1.91,5.58,2.62,8.27,4.13,6.5,3.64,9.44,11.27,11.89,18.29q4.73,13.52,9.44,27-2.25-27.19-4.52-54.39l-14.64-1.39c1-8.09,7.25-14.35,12-21s8-16.09,3.14-22.63C161,70,156,68.38,152.17,65.36a19.84,19.84,0,0,1-6.36-21.2l-12.64-2c-.95-6.3,4.25-11.87,5.13-18.17,1.42-10.23-9.51-18.76-19.84-18.86C90.37,4.81,89.92,24.7,92.68,46.28A31.3,31.3,0,0,1,115.8,53Z" transform="translate(0.06 0)"/><path class="cls-9" d="M124,205.38c-5.84,8.32-4,21.38,4.47,27,4,2.62,8.79,3.51,13.41,4.68,11.52,2.93,22.41,7.88,33.75,11.46s23.52,5.78,35.08,3,22.28-11.46,24.58-23.12c.78-3.91.46-8.33-2.15-11.34-5-5.8-14.28-3-21.82-1.51-21.86,4.45-31.59-7.8-49.21-16.13C150.48,193.92,132.24,193.58,124,205.38Z" transform="translate(0.06 0)"/><path class="cls-9" d="M260.81,240.37c-1,3.67-2.89,7.36-2.06,11.07,1.31,5.87,8.37,8.12,14.31,9,13,2,26.79,2.46,38.94-2.64s22.21-17,21.66-30.16c-1.09-26.19-35.16-35.81-56.59-35.64-9.22.08-17.2,1-21.78,10C248.06,216.12,264.71,225.69,260.81,240.37Z" transform="translate(0.06 0)"/><path class="cls-9" d="M933.07,195.39c-.56,4,0,8.1-.85,12-2.06,9.72-11.9,15.89-21.54,18.3s-19.84,2.22-29.35,5.09c-4.27,1.29-8.48,3.28-11.46,6.6s-4.53,8.17-3,12.38c2.26,6.41,10,8.78,16.7,9.83a149.32,149.32,0,0,0,68.06-4.76c7.79-2.48,15.65-5.88,21-12.09,5.76-6.74,7.78-16,7.35-24.9-.58-11.76-4-34.12-16.06-40.19C951.28,171.35,934.92,182.4,933.07,195.39Z" transform="translate(0.06 0)"/><path class="cls-9" d="M887.88,100.59c-6.17,7.35-9.27,16.72-12.25,25.84-1,3-2,6.22-1.26,9.32.65,2.82,2.65,5.13,4.78,7.09a41.89,41.89,0,0,0,43.16,7.74c4.83-2,9.29-4.88,14.29-6.38,4.63-1.39,9.66-1.57,13.94-3.79,10.28-5.34,11.59-20.33,6.29-30.62C945.1,87,904.92,80.28,887.88,100.59Z" transform="translate(0.06 0)"/><path class="cls-9" d="M199.78,116.09c4.7,2,10,1.83,15.1,2.58,12.81,1.87,23.81,9.83,36,14.29s28.22,4.16,35.28-6.69c5.5-8.46,2.91-20.36-3.81-27.89S265.69,87,255.87,84.66c-13-3.08-37-8.66-50.21-3.89C191.25,86,182,108.35,199.78,116.09Z" transform="translate(0.06 0)"/><path class="cls-10" d="M608.28,104.22c11.1,2.39,22.59,1.6,33.93,1a820.65,820.65,0,0,1,133.09,4.19c7.16.81,14.71,1.66,21.34-1.16S808.31,97.5,805.31,91c-3.47-7.57-13.88-8-22.17-7.29a878.19,878.19,0,0,1-121.82,1.11c-13.78-.83-31-5.78-44.66-2.93C605.72,84.13,588.71,100,608.28,104.22Z" transform="translate(0.06 0)"/><path class="cls-10" d="M905.19,88.9c-4.65,3-8.91,8.36-7.22,13.63,2.25,7,11.8,7.17,19.13,7.53a52.42,52.42,0,0,1,22.63,6.43c6,3.33,11.88,8,18.78,8.09,10,.11,17.85-10.81,16.52-20.74s-9.79-17.86-19.32-21C941.85,78.34,917.64,80.85,905.19,88.9Z" transform="translate(0.06 0)"/><path class="cls-10" d="M113.47,168.93l6.81,54.47c.81,6.46,1.7,13.17,5.18,18.67,5.63,8.9,16.64,12.62,27,14.73a169.41,169.41,0,0,0,38.25,3.39c7.49-.19,16.31-1.75,19.51-8.53,3.39-7.18-2.34-16-9.72-18.88s-15.66-1.72-23.53-.73-16.35,1.63-23.31-2.21c-8.42-4.65-12.39-14.83-12.87-24.45s1.86-19.11,2.85-28.69C147.22,141.37,108.54,129.56,113.47,168.93Z" transform="translate(0.06 0)"/></g></g></g></svg>