<svg xmlns="http://www.w3.org/2000/svg" xmlns:xlink="http://www.w3.org/1999/xlink" viewBox="0 0 87.93 55.34"><defs><style>.cls-1{fill:none;}.cls-2{isolation:isolate;}.cls-3{clip-path:url(#clip-path);}.cls-4,.cls-5,.cls-6,.cls-7,.cls-8{fill-rule:evenodd;}.cls-4{fill:url(#radial-gradient);}.cls-5{fill:url(#New_Gradient_Swatch_93);}.cls-6{fill:#edf5f7;opacity:0.5;}.cls-6,.cls-8{mix-blend-mode:screen;}.cls-7{fill:#575756;opacity:0.75;}.cls-8{fill:url(#radial-gradient-2);}</style><clipPath id="clip-path"><path class="cls-1" d="M15.83,2.48l.93-.39,1.93-.71,1.5-.44,1.9-.43L23,.35,24.79.13,26.61,0h34.5l1.65.07,1.63.19,1.49.25.93.19,2,.53L70.86,2l1.07.45L73.16,3l1.32.7L76,4.64l1.23.85,1.48,1.18,1,.89.76.75,1,1.1.91,1.09.81,1.09.8,1.2.7,1.17.62,1.18.49,1.06.44,1.09.43,1.21.4,1.36.34,1.48.21,1.27.16,1.29.06.91,0,.92,0,1.44,0,1.12-.06,1.16-.05.74-.18,1.5L87.41,33,87,34.85l-.45,1.52-.45,1.25-.43,1.05-.51,1.1-.82,1.55-1.1,1.79-.7,1-.41.55-.77,1-.94,1-1.1,1.1L77.86,49l-1.29,1-1.47,1-1.61,1-1.13.59-1.23.56-1.23.49-2.61.83-1.85.41-1.77.27-1,.09-1,.07-2.7,0H28.4l-2.49-.05-1.27-.11L23.1,55l-1.74-.36L19.5,54.1l-.73-.25-1.3-.49-.71-.3L16,52.73l-.87-.43-.95-.52L12.9,51l-1-.63-1.38-1L8.8,47.76l-1-.95-1-1.11-.7-.83-.51-.65-.44-.6-.67-1-.62-1-.64-1.12-.87-1.76-.61-1.45-.42-1.18L.93,34.77.5,32.9l-.19-1L.15,30.6,0,28.81V25.27l.21-2.36L.54,21,1,19.33,1.75,17c0-.1,1.08-2.36,1.08-2.36L3.75,13l1.09-1.63L6,9.88,7.3,8.45,9,6.86l1.49-1.2,1.24-.89,2-1.27Z"/></clipPath><radialGradient id="radial-gradient" cx="43.96" cy="27.71" r="36.72" gradientUnits="userSpaceOnUse"><stop offset="0" stop-color="#9da9ab"/><stop offset="1" stop-color="#555763"/></radialGradient><radialGradient id="New_Gradient_Swatch_93" cx="17.68" cy="-1.88" r="82.11" gradientUnits="userSpaceOnUse"><stop offset="0" stop-color="#9da9ab"/><stop offset="1" stop-color="#717485"/></radialGradient><radialGradient id="radial-gradient-2" cx="26.07" cy="57.4" r="37.74" gradientUnits="userSpaceOnUse"><stop offset="0" stop-color="#1d71b8"/><stop offset="1"/></radialGradient></defs><g class="cls-2"><g id="Layer_2" data-name="Layer 2"><g id="Layer_1-2" data-name="Layer 1"><g class="cls-3"><path class="cls-4" d="M27.48.08h33a27.63,27.63,0,0,1,0,55.26h-33A28,28,0,0,1,2.94,40c-.08-.16-.3-.7-.5-1A26.74,26.74,0,0,1,0,27.71,27.64,27.64,0,0,1,27.48.08Z"/><path class="cls-5" d="M27.48,0h33C75.56,0,87.93,11.76,87.93,26.14S75.54,51.63,60.44,52.28h-33A28.35,28.35,0,0,1,4.12,39.71a10.31,10.31,0,0,1-1-1.56A24.21,24.21,0,0,1,0,26.14C0,11.76,12.37,0,27.48,0Z"/><path class="cls-6" d="M26.62,1.78H61.31A29.26,29.26,0,0,1,83.59,12.26,28.37,28.37,0,0,0,60.44,0h-33A28.36,28.36,0,0,0,4.34,12.25,29.23,29.23,0,0,1,26.62,1.78Z"/><path class="cls-7" d="M44,48.78H27.56C15.12,48.21,3.5,39.24,3.5,26.14c0-12.95,11.36-22.64,24-22.64h33c12.62,0,24,9.69,24,22.64S72.8,48.21,60.37,48.78Z"/><path class="cls-8" d="M9.48,47c5.78,5.9,12.21,7.53,20.45,7.77,10.71.31,17.32-.17,23.38-.49-5.77-.86-12.52-.67-23.29-.86C21.51,53.31,15.33,52,9.48,47Z"/></g></g></g></g></svg>