<svg id="Layer_1" data-name="Layer 1" xmlns="http://www.w3.org/2000/svg" viewBox="0 0 407.57 325.85"><defs><style>.cls-1{fill:#ed1c24;stroke:#ed1c24;stroke-miterlimit:10;stroke-width:60px;}</style></defs><path class="cls-1" d="M501.91,415.2c-56.38-34.52-115.73-64.86-172.3-99.34q28.06-32.07,55.76-64.47c14.33-16.78,30.29-33.39,37.23-54.82,3-9.21-11.5-13.15-14.46-4-5.89,18.17-20,32.5-32.11,46.72q-21.24,24.88-42.72,49.58-8.26,9.53-16.6,19c-28.81-18.05-56.78-37.36-83.12-59.07Q216.73,234.9,201,219.73c-10-9.7-20.42-23-35.84-22.29-9.62.41-9.67,15.41,0,15,5.46-.24,9.63,2.87,13.52,6.41,4.88,4.43,9.38,9.27,14.15,13.82q14,13.37,28.9,25.68A745.16,745.16,0,0,0,284,304.42q11.31,7.53,22.81,14.74-29.28,33.3-59,66.24Q223,413,197.83,440.27c-6.53,7.09,4.06,17.72,10.61,10.6q56.35-61.2,111.28-123.7c32.28,19.75,65.4,38.13,98.37,56.68,25.62,14.41,51.17,28.95,76.25,44.3C502.59,433.21,510.13,420.24,501.91,415.2Z" transform="translate(-127.89 -157.38)"/></svg>